<?xml version="1.0" encoding="UTF-8" standalone="no"?>
<!DOCTYPE svg PUBLIC "-//W3C//DTD SVG 1.1//EN" "http://www.w3.org/Graphics/SVG/1.1/DTD/svg11.dtd">
<!--Generated by Intaglio, www.PurgatoryDesign.com-->
<svg version="1.1" viewBox="0,0,576,734" width="576" height="734" xmlns="http://www.w3.org/2000/svg" xmlns:xlink="http://www.w3.org/1999/xlink" xmlns:intaglio="http://purgatorydesign.com/namespaces/intaglio" intaglio:grid="36,36,1,1,0.5,#9999bf,1,0,0,0" intaglio:guides="0.8,#f0f,1,1"><image xlink:href="1.pdf" width="612" height="792" transform="matrix(0.803922,0,0,0.803922,17,-132)"/><path fill="#fffffe" fill-opacity="0.01" stroke="#0361f6" stroke-width="3" d="M162,81 C162,81,211.745,51.1186,245,43 C289.135,32.2254,320.641,34.4424,366,37 C386.866,38.1766,400.964,40.0568,421,46 C430.82,48.9127,437.546,51.2171,446,57 C453.879,62.3897,458.981,66.8797,464,75 C475.222,93.1575,477.754,108.081,482,129 C486.74,152.355,487,192.353,487,192.353"/><path fill="#fffffe" fill-opacity="0.01" stroke="#0361f6" stroke-width="3" d="M162,288.908 C162,288.908,211.745,318.789,245,326.908 C289.135,337.682,320.641,335.465,366,332.908 C386.866,331.731,400.964,329.851,421,323.908 C430.82,320.995,437.546,318.691,446,312.908 C453.879,307.518,458.981,303.028,464,294.908 C475.222,276.75,477.754,261.827,482,240.908 C486.74,217.553,487,177.555,487,177.555"/></svg>
