<?xml version="1.0" encoding="UTF-8" standalone="no"?>
<svg
   xmlns:dc="http://purl.org/dc/elements/1.1/"
   xmlns:cc="http://creativecommons.org/ns#"
   xmlns:rdf="http://www.w3.org/1999/02/22-rdf-syntax-ns#"
   xmlns:svg="http://www.w3.org/2000/svg"
   xmlns="http://www.w3.org/2000/svg"
   xmlns:sodipodi="http://sodipodi.sourceforge.net/DTD/sodipodi-0.dtd"
   xmlns:inkscape="http://www.inkscape.org/namespaces/inkscape"
   sodipodi:docname="2pitchforkcoloreig2.svg"
   inkscape:version="1.0 (4035a4f, 2020-05-01)"
   id="svg5114"
   version="1.1"
   viewBox="0 0 210 297"
   height="297mm"
   width="210mm">
  <defs
     id="defs5108" />
  <sodipodi:namedview
     inkscape:window-maximized="0"
     inkscape:window-y="23"
     inkscape:window-x="59"
     inkscape:window-height="943"
     inkscape:window-width="1252"
     showgrid="true"
     inkscape:document-rotation="0"
     inkscape:current-layer="layer1"
     inkscape:document-units="mm"
     inkscape:cy="277.21538"
     inkscape:cx="56.274046"
     inkscape:zoom="0.40387541"
     inkscape:pageshadow="2"
     inkscape:pageopacity="0.0"
     borderopacity="1.0"
     bordercolor="#666666"
     pagecolor="#ffffff"
     id="base">
    <inkscape:grid
       id="grid5116"
       type="xygrid" />
  </sodipodi:namedview>
  <metadata
     id="metadata5111">
    <rdf:RDF>
      <cc:Work
         rdf:about="">
        <dc:format>image/svg+xml</dc:format>
        <dc:type
           rdf:resource="http://purl.org/dc/dcmitype/StillImage" />
        <dc:title />
      </cc:Work>
    </rdf:RDF>
  </metadata>
  <g
     id="layer1"
     inkscape:groupmode="layer"
     inkscape:label="Layer 1">
    <g
       transform="matrix(0.03527778,0,0,-0.03527778,-22.643403,146.95347)"
       id="g893">
      <path
         id="path895"
         style="fill:#ffffff;fill-opacity:1;fill-rule:nonzero;stroke:none"
         d="M 0,0 H 5600 V 4200 H 0 Z" />
      <path
         id="path897"
         style="fill:#ffffff;fill-opacity:1;fill-rule:nonzero;stroke:none"
         d="M 0,0 H 5600 V 4200 H 0 Z" />
      <path
         id="path899"
         style="fill:#ffffff;fill-opacity:1;fill-rule:nonzero;stroke:none"
         d="M 1210,510 H 4590 V 3890 H 1210 Z" />
      <path
         id="path901"
         style="fill:none;stroke:#262626;stroke-width:20;stroke-linecap:square;stroke-linejoin:round;stroke-miterlimit:10;stroke-dasharray:none;stroke-opacity:1"
         d="M 1210,510 H 4590" />
      <g
         transform="scale(10)"
         id="g903">
        <text
           id="text907"
           style="font-style:oblique;font-variant:normal;font-size:26.4px;font-family:Helvetica;-inkscape-font-specification:Helvetica-Oblique;writing-mode:lr-tb;fill:#262626;fill-opacity:1;fill-rule:nonzero;stroke:none"
           transform="matrix(1,0,0,-1,275,18)"><tspan
             id="tspan905"
             y="0"
             x="0">X</tspan></text>
        <text
           id="text911"
           style="font-style:oblique;font-variant:normal;font-size:21.12px;font-family:Helvetica;-inkscape-font-specification:Helvetica-Oblique;writing-mode:lr-tb;fill:#262626;fill-opacity:1;fill-rule:nonzero;stroke:none"
           transform="matrix(1,0,0,-1,292,5)"><tspan
             id="tspan909"
             y="0"
             x="0">1</tspan></text>
      </g>
      <path
         id="path913"
         style="fill:none;stroke:#262626;stroke-width:20;stroke-linecap:square;stroke-linejoin:round;stroke-miterlimit:10;stroke-dasharray:none;stroke-opacity:1"
         d="M 1210,510 V 3890" />
      <g
         transform="scale(10)"
         id="g915">
        <text
           id="text919"
           style="font-style:oblique;font-variant:normal;font-size:26.4px;font-family:Helvetica;-inkscape-font-specification:Helvetica-Oblique;writing-mode:lr-tb;fill:#262626;fill-opacity:1;fill-rule:nonzero;stroke:none"
           transform="matrix(0,1,1,0,96,205)"><tspan
             id="tspan917"
             y="0"
             x="0">X</tspan></text>
        <text
           id="text923"
           style="font-style:oblique;font-variant:normal;font-size:21.12px;font-family:Helvetica;-inkscape-font-specification:Helvetica-Oblique;writing-mode:lr-tb;fill:#262626;fill-opacity:1;fill-rule:nonzero;stroke:none"
           transform="matrix(0,1,1,0,109,222)"><tspan
             id="tspan921"
             y="0"
             x="0">0</tspan></text>
      </g>
      <path
         id="path925"
         style="fill:none;stroke:#0000ff;stroke-width:50;stroke-linecap:butt;stroke-linejoin:bevel;stroke-miterlimit:10;stroke-dasharray:50, 50;stroke-dashoffset:0;stroke-opacity:1"
         d="m 1938.58,1499.33 2.48,-0.34 2.48,-0.55 2.48,-0.7 2.48,-4.26 2.48,-2.51 2.48,-2.31 2.48,-2.25 2.47,-2.18 2.48,-2.34 2.48,-2.16 2.48,-2.19 2.48,-2.2 2.48,-2.13 2.48,-2.21 2.48,-2.09 2.48,-2.16 2.48,-2.19 2.48,-2.11 2.48,-2.18 2.48,-2.09 2.48,-2.25 2.48,-2.07 2.48,-2.14 2.48,-2.08 2.48,-2.05 2.48,-2.14 2.48,-2.13 2.48,-2.12 2.48,-2.03 2.48,-2.19 2.48,-2.02 2.48,-2.09 2.48,-2.09 2.48,-2.08 2.48,-1.99 2.48,-2.15 2.47,-2.03 2.48,-2.08 2.48,-2.05 2.48,-2.04 2.48,-2.04 2.48,-2.03 2.48,-2.02 2.48,-2.1 2.48,-1.93 2.48,-2.08 2.48,-1.92 2.48,-2.07 2.48,-1.99 2.48,-1.98 2.48,-2.02 2.48,-1.99 2.48,-1.97 2.48,-1.96 2.48,-2.02 2.48,-1.95 2.48,-1.93 2.48,-2.01 2.48,-2 2.48,-1.85 2.48,-1.99 2.48,-1.99 2.48,-1.83 2.47,-1.97 2.48,-1.97 2.48,-1.96 2.48,-1.88 2.48,-1.88 2.48,-1.94 2.48,-1.94 2.48,-1.86 2.48,-1.86 2.48,-1.92 2.48,-1.91 2.48,-1.91 2.48,-1.84 2.48,-1.9 2.48,-1.81 2.48,-1.9 2.48,-1.89 2.48,-1.79 2.48,-1.88 2.48,-1.86 2.48,-1.86 2.48,-1.79 2.48,-1.86 2.48,-1.76 2.48,-1.85 2.48,-1.83 2.48,-1.84 2.48,-1.82 2.48,-1.76 2.47,-1.81 2.48,-1.72 2.48,-1.82 2.48,-1.79 2.48,-1.8 2.48,-1.79 2.48,-1.78 2.48,-1.79 2.48,-1.7 2.48,-1.69 2.48,-1.77 2.48,-1.76 2.48,-1.75 2.48,-1.75 2.48,-1.75 2.48,-1.74 2.48,-1.6 2.48,-1.72 2.48,-1.73 2.48,-1.72 2.48,-1.71 2.48,-1.72 2.48,-1.71 2.48,-1.55 2.48,-1.7 2.48,-1.69 2.48,-1.69 2.48,-1.68 2.47,-1.65 2.48,-1.58 2.48,-1.65 2.48,-1.67 2.48,-1.66 2.48,-1.65 2.48,-1.51 2.48,-1.65 2.48,-1.65 2.48,-1.63 2.48,-1.54 2.48,-1.59 2.48,-1.62 2.48,-1.56 2.48,-1.53 2.48,-1.62 2.48,-1.62 2.48,-1.45 2.48,-1.6 2.48,-1.61 2.48,-1.44 2.48,-1.59 2.48,-1.5 2.48,-1.52 2.48,-1.57 2.48,-1.46 2.48,-1.54 2.48,-1.5 2.47,-1.48 2.48,-1.49 2.48,-1.48 2.48,-1.47 2.48,-1.48 2.48,-1.47 2.48,-1.46 2.48,-1.39 2.48,-1.53 2.48,-1.38 2.48,-1.45 2.48,-1.45 2.48,-1.37 2.48,-1.45 2.48,-1.43 2.48,-1.36 2.48,-1.36 2.48,-1.42 2.48,-1.35 2.48,-1.42 2.48,-1.34 2.48,-1.34 2.48,-1.34 2.48,-1.33 2.48,-1.34 2.48,-1.39 2.48,-1.32 2.48,-1.29 2.47,-1.28 2.48,-1.31 2.48,-1.31 2.48,-1.31 2.48,-1.3 2.48,-1.25 2.48,-1.28 2.48,-1.23 2.48,-1.28 2.48,-1.22 2.48,-1.23 2.48,-1.27 2.48,-1.21 2.48,-1.2 2.48,-1.27 2.48,-1.14 2.48,-1.19 2.48,-1.2 2.48,-1.19 2.48,-1.18 2.48,-1.12 2.48,-1.18 2.48,-1.18 2.48,-1.11 2.48,-1.1 2.48,-1.18 2.48,-1.1 2.48,-1.08 2.47,-1.11 2.48,-1.08 2.48,-1.09 2.48,-1.1 2.48,-1.08 2.48,-1.01 2.48,-1.07 2.48,-1.04 2.48,-1.05 2.48,-1 2.48,-1.06 2.48,-0.93 2.48,-1.07 2.48,-0.96 2.48,-0.98 2.48,-0.96 2.48,-0.99 2.48,-0.98 2.48,-0.91 2.48,-0.92 2.48,-0.9 2.48,-0.97 2.48,-0.92 2.48,-0.9 2.48,-0.89 2.48,-0.84 2.48,-0.9 2.48,-0.87 2.47,-0.87 2.48,-0.82 2.48,-0.84 2.48,-0.82 2.48,-0.82 2.48,-0.84 2.48,-0.78 2.48,-0.79 2.48,-0.82 2.48,-0.74 2.48,-0.73 2.48,-0.78 2.48,-0.76 2.48,-0.68 2.48,-0.75 2.48,-0.69 2.48,-0.72 2.48,-0.7 2.48,-0.68 2.48,-0.67 2.48,-0.69 2.48,-0.61 2.48,-0.67 2.48,-0.6 2.48,-0.69 2.48,-0.59 2.48,-0.61 2.48,-0.54 2.47,-0.59 2.48,-0.61 2.48,-0.54 2.48,-0.54 2.48,-0.55 2.48,-0.57 2.48,-0.54 2.48,-0.47 2.48,-0.53 2.48,-0.47 2.48,-0.46 2.48,-0.47 2.48,-0.46 2.48,-0.46 2.48,-0.47 2.48,-0.38 2.48,-0.43 2.48,-0.44 2.48,-0.39 2.48,-0.38 2.48,-0.38 2.48,-0.36 2.48,-0.37 2.48,-0.27 2.48,-0.39 2.48,-0.33 2.48,-0.3 2.48,-0.27 2.48,-0.34 2.47,-0.28 2.48,-0.24 2.48,-0.25 2.48,-0.25 2.48,-0.26 2.48,-0.25 2.48,-0.19 2.48,-0.18 2.48,-0.26 2.48,-0.18 2.48,-0.19 2.48,-0.13 2.48,-0.12 2.48,-0.19 2.48,-0.13 2.48,-0.12 2.48,-0.14 2.48,-0.06 2.48,-0.12 2.48,-0.12 h 2.48 l 2.48,-0.13 h 2.48 l 2.48,-0.06 2.48,-0.07 h 2.48 2.48 2.47 2.48 2.48 2.48 l 2.48,0.07 2.48,0.06 2.48,0.07 2.48,0.05 2.48,0.06 2.48,0.07 2.48,0.13 2.48,0.12 2.48,0.13 2.48,0.13 2.48,0.12 2.48,0.12 2.48,0.13 2.48,0.17 2.48,0.21 2.48,0.12 2.48,0.26 2.48,0.17 2.48,0.2 2.48,0.24 2.48,0.21 2.48,0.21 2.48,0.22 2.48,0.27 2.47,0.28 2.48,0.28 2.48,0.28 2.48,0.28 2.48,0.26 2.48,0.35 2.48,0.26 2.48,0.39 2.48,0.27 2.48,0.36 2.48,0.38 2.48,0.34 2.48,0.35 2.48,0.36 2.48,0.4 2.48,0.39 2.48,0.4 2.48,0.38 2.48,0.39 2.48,0.39 2.48,0.45 2.48,0.46 2.48,0.4 2.48,0.47 2.48,0.45 2.48,0.48 2.48,0.45 2.48,0.5 2.48,0.46 2.47,0.45 2.48,0.5 2.48,0.51 2.48,0.51 2.48,0.51 2.48,0.5 2.48,0.58 2.48,0.51 2.48,0.55 2.48,0.51 2.48,0.59 2.48,0.56 2.48,0.57 2.48,0.56 2.48,0.58 2.48,0.55 2.48,0.57 2.48,0.63 2.48,0.61 2.48,0.62 2.48,0.6 2.48,0.63 2.48,0.61 2.48,0.62 2.48,0.61 2.48,0.6 2.48,0.68 2.48,0.68 2.47,0.59 2.48,0.67 2.48,0.69 2.48,0.62 2.48,0.71 2.48,0.66 2.48,0.67 2.48,0.66 2.48,0.67 2.48,0.72 2.48,0.72 2.48,0.69 2.48,0.68 2.48,0.68 2.48,0.71 2.48,0.72 2.48,0.72 2.48,0.72 2.48,0.71 2.48,0.72 2.48,0.74 2.48,0.76 2.48,0.73 2.48,0.76 2.48,0.71 2.48,0.77 2.48,0.74 2.48,0.74 2.47,0.75 2.48,0.8 2.48,0.7 2.48,0.76 2.48,0.78 2.48,0.77 2.48,0.76 2.48,0.77 2.48,0.76 2.48,0.84 2.48,0.75 2.48,0.76 2.48,0.76 2.48,0.77 2.48,0.82 2.48,0.8 2.48,0.78 2.48,0.76 2.48,0.82 2.48,0.82 2.48,0.75 2.48,0.82 2.48,0.75 2.48,0.82 2.48,0.81 2.48,0.82 2.48,0.75 2.48,0.81 2.47,0.81 2.48,0.81 2.48,0.75 2.48,0.81 2.48,0.81 2.48,0.8 2.48,0.81 2.48,0.81 2.48,0.8 2.48,0.81 2.48,0.8 2.48,0.8 2.48,0.81 2.48,0.8 2.48,0.8 2.48,0.8 2.48,0.8 2.48,0.79 2.48,0.8 2.48,0.8 2.48,0.79 2.48,0.86 2.48,0.8 2.48,0.79 2.48,0.79 2.48,0.79 2.48,0.79 2.48,0.79 2.47,0.79 2.48,0.79 2.48,0.79 2.48,0.85 2.48,0.79 2.48,0.78 2.48,0.78 2.48,0.79 2.48,0.78 2.48,0.78 2.48,0.71 2.48,0.78 2.48,0.78 2.48,0.78 2.48,0.77 2.48,0.78 2.48,0.71 2.48,0.77 2.48,0.78 2.48,0.77 2.48,0.77 2.48,0.77 2.48,0.7 2.48,0.77 2.48,0.7 2.48,0.77 2.48,0.77 2.48,0.7 2.47,0.71 2.48,0.75 2.48,0.76 2.48,0.69 2.48,0.7 2.48,0.76 2.48,0.69 2.48,0.69 2.48,0.76 2.48,0.64 2.48,0.73 2.48,0.7 2.48,0.68 2.48,0.68 2.48,0.69 2.48,0.69 2.48,0.67 2.48,0.61 2.48,0.76 2.48,0.6 2.48,0.64 2.48,0.72 2.48,0.61 2.48,0.6 2.48,0.67 2.48,0.65 2.48,0.64 2.48,0.6 2.47,0.6 2.48,0.61 2.48,0.59 2.48,0.64 2.48,0.57 2.48,0.59 2.48,0.59 2.48,0.6 2.48,0.6 2.48,0.59 2.48,0.6 2.48,0.54 2.48,0.5 2.48,0.59 2.48,0.56 2.48,0.49 2.48,0.56 2.48,0.53 2.48,0.51 2.48,0.57 2.48,0.45 2.48,0.55 2.48,0.48 2.48,0.45 2.48,0.56 2.48,0.44 2.48,0.42 2.48,0.54 2.48,0.47 2.47,0.47 2.48,0.42 2.48,0.43 2.48,0.43 2.48,0.43 2.48,0.43 2.48,0.43 2.48,0.42 2.48,0.43 2.48,0.35 2.48,0.35 2.48,0.43 2.48,0.35 2.48,0.35 2.48,0.42 2.48,0.28 2.48,0.42 2.48,0.28 2.48,0.34 2.48,0.36 2.48,0.3 2.48,0.32 2.48,0.3 2.48,0.27 2.48,0.33 2.48,0.27 2.48,0.27 2.48,0.27 2.47,0.22 2.48,0.29 2.48,0.3 2.48,0.16 2.48,0.25 2.48,0.27 2.48,0.14 2.48,0.27 2.48,0.16 2.48,0.23 2.48,0.2 2.48,0.14 2.48,0.17 2.48,0.14 2.48,0.18 2.48,0.21 2.48,0.12 2.48,0.12 2.48,0.11 2.48,0.12 2.48,0.11 2.48,0.15 2.48,0.12 2.48,0.01 2.48,0.15 2.48,-0.01 2.48,0.15 h 2.47 l 2.48,0.15 2.48,-0.01 h 2.48 l 2.48,0.07 2.48,0.07 h 2.48 2.48 2.48 2.48 2.48 2.48 l 2.48,-0.07 2.48,-0.07 h 2.48 l 2.48,0.01 2.48,-0.15 h 2.48 l 2.48,-0.15 2.48,0.01 2.48,-0.15 2.48,0.01 2.48,-0.15 2.48,-0.14 2.48,-0.08 2.48,-0.05 2.48,-0.15 2.48,-0.14 2.48,-0.14 2.47,-0.15 2.48,-0.14 2.48,-0.14 2.48,-0.13 2.48,-0.16 2.48,-0.24 2.48,-0.18 2.48,-0.15 2.48,-0.22 2.48,-0.2 2.48,-0.18 2.48,-0.25 2.48,-0.13 2.48,-0.29 2.48,-0.24 2.48,-0.18 2.48,-0.29 2.48,-0.22 2.48,-0.19 2.48,-0.29 2.48,-0.28 2.48,-0.27 2.48,-0.3 2.48,-0.29 2.48,-0.24 2.48,-0.3 2.48,-0.3 2.48,-0.28 2.47,-0.28 2.48,-0.34 2.48,-0.29 2.48,-0.36 2.48,-0.29 2.48,-0.36 2.48,-0.3 2.48,-0.31 2.48,-0.36 2.48,-0.36 2.48,-0.34 2.48,-0.32 2.48,-0.43 2.48,-0.3 2.48,-0.43 2.48,-0.3 2.48,-0.43 2.48,-0.34 2.48,-0.4 2.48,-0.41 2.48,-0.34 2.48,-0.42 2.48,-0.43 2.48,-0.37 2.48,-0.35 2.48,-0.43 2.48,-0.43 2.48,-0.42 2.47,-0.43 2.48,-0.43 2.48,-0.42 2.48,-0.42 2.48,-0.42 2.48,-0.41 2.48,-0.42 2.48,-0.47 2.48,-0.5 2.48,-0.43 2.48,-0.42 2.48,-0.41 2.48,-0.48 2.48,-0.48 2.48,-0.41 2.48,-0.48 2.48,-0.48 2.48,-0.42 2.48,-0.54 2.48,-0.4 2.48,-0.55 2.48,-0.39 2.48,-0.56 2.48,-0.38 2.48,-0.55 2.48,-0.47 2.48,-0.47 2.47,-0.48 2.48,-0.44 2.48,-0.54 2.48,-0.46 2.48,-0.47 2.48,-0.53 2.48,-0.53 2.48,-0.46 2.48,-0.46 2.48,-0.52 2.48,-0.53 2.48,-0.45 2.48,-0.54 2.48,-0.44 2.48,-0.52 2.48,-0.52 2.48,-0.52 2.48,-0.52 2.48,-0.45 2.48,-0.51 2.48,-0.52 2.48,-0.49 2.48,-0.47 2.48,-0.51 2.48,-0.51 2.48,-0.51 2.48,-0.51 2.48,-0.51 2.48,-0.5 2.47,-0.51 2.48,-0.5 2.48,-0.51 2.48,-0.5 2.48,-0.5 2.48,-0.5 2.48,-0.5 2.48,-0.5 2.48,-0.51 2.48,-0.55 2.48,-0.5 2.48,-0.49 2.48,-0.5 2.48,-0.48 2.48,-0.57 2.48,-0.49 2.48,-0.49 2.48,-0.49 2.48,-0.48 2.48,-0.49 2.48,-0.49 2.48,-0.48 2.48,-0.48 2.48,-0.56 2.48,-0.48 2.48,-0.48 2.48,-0.48 2.48,-0.55 2.47,-0.47 2.48,-0.48 2.48,-0.47 2.48,-0.48 2.48,-0.47 2.48,-0.48 2.48,-0.47 2.48,-0.47 2.48,-0.47 2.48,-0.47 2.48,-0.47 2.48,-0.47 2.48,-0.46 2.48,-0.47 2.48,-0.46 2.48,-0.47 2.48,-0.46 2.48,-0.46 2.48,-0.46 2.48,-0.46 2.48,-0.46 2.48,-0.46 2.48,-0.46 2.48,-0.45 2.48,-0.46 2.48,-0.45 2.48,-0.46 2.48,-0.37 2.47,-0.46 2.48,-0.46 2.48,-0.38 2.48,-0.45 2.48,-0.44 2.48,-0.45 2.48,-0.38 2.48,-0.45 2.48,-0.38 2.48,-0.44 2.48,-0.44 2.48,-0.38 2.48,-0.37 2.48,-0.44 2.48,-0.43 2.48,-0.39 2.48,-0.36 2.48,-0.44 2.48,-0.35 2.48,-0.39 2.48,-0.38 2.48,-0.35 2.48,-0.44 2.48,-0.37 2.48,-0.36 2.48,-0.36 2.48,-0.36 2.48,-0.36 2.47,-0.36 2.48,-0.37 2.48,-0.36 2.48,-0.35 2.48,-0.37 2.48,-0.31 2.48,-0.4 2.48,-0.28 2.48,-0.35 2.48,-0.35 2.48,-0.29 2.48,-0.32 2.48,-0.35 2.48,-0.33 2.48,-0.28 2.48,-0.35 2.48,-0.34 2.48,-0.27 2.48,-0.3 2.48,-0.28 2.48,-0.3 2.48,-0.27 2.48,-0.35 2.48,-0.27 2.48,-0.27 2.48,-0.27 2.48,-0.27 2.48,-0.26 2.47,-0.27 2.48,-0.27 2.48,-0.27 2.48,-0.26 2.48,-0.24 2.48,-0.28 2.48,-0.23 2.48,-0.27 2.48,-0.19 2.48,-0.27 2.48,-0.24 2.48,-0.23 2.48,-0.18 2.48,-0.25 2.48,-0.23 2.48,-0.19 2.48,-0.25 2.48,-0.18 2.48,-0.2 2.48,-0.23 2.48,-0.15 2.48,-0.22 2.48,-0.16 2.48,-0.18 2.48,-0.2 2.48,-0.19 2.48,-0.19 2.48,-0.13 2.47,-0.19 2.48,-0.13 2.48,-0.2 2.48,-0.12 2.48,-0.15 2.48,-0.16 2.48,-0.12 2.48,-0.13 2.48,-0.12 2.48,-0.13 2.48,-0.2 2.48,-0.06 2.48,-0.13 2.48,-0.14 2.48,-0.13 2.48,-0.08 2.48,-0.12 2.48,-0.06 2.48,-0.13 2.48,-0.11 2.48,-0.09 2.48,-0.06 2.48,-0.14 2.48,-0.06 2.48,-0.08 2.48,-0.06 2.48,-0.06 2.48,-0.07 2.48,-0.07 2.47,-0.04 2.48,-0.05 2.48,-0.04 2.48,-0.06 2.48,-0.05 2.48,-0.02 2.48,-0.01 2.48,-0.05 2.48,-0.07 h 2.48 2.48 2.48 l 2.48,-0.05 2.48,-0.02 h 2.48 2.48 2.48 2.48 2.48 l 2.48,0.07 h 2.48 2.48 2.48 l 2.48,0.07 2.48,-0.01 2.48,0.07 h 2.48 l 2.48,0.07 2.47,0.05 2.48,0.01 2.48,0.07 2.48,0.07 2.48,0.02 2.48,0.11 2.48,-0.01 2.48,0.09 2.48,0.04 2.48,0.11 2.48,0.04 2.48,0.12 2.48,0.1 2.48,0.03 2.48,0.14 2.48,0.08 2.48,0.1 2.48,0.08 2.48,0.13 2.48,0.11 2.48,0.1 2.48,0.1 2.48,0.1 2.48,0.12 2.48,0.13 2.48,0.13 2.48,0.11 2.48,0.15 2.47,0.12 2.48,0.09 2.48,0.17 2.48,0.16 2.48,0.1 2.48,0.16 2.48,0.13 2.48,0.14" />
      <path
         id="path927"
         style="fill:none;stroke:#0000ff;stroke-width:50;stroke-linecap:butt;stroke-linejoin:bevel;stroke-miterlimit:10;stroke-dasharray:50, 50;stroke-dashoffset:0;stroke-opacity:1"
         d="m 1933.7,1503.72 -0.38,2.23 -0.61,2.23 -0.77,2.24 -4.74,2.23 -2.79,2.23 -2.57,2.23 -2.49,2.23 -2.43,2.23 -2.59,2.24 -2.4,2.23 -2.44,2.23 -2.44,2.23 -2.37,2.23 -2.46,2.23 -2.32,2.24 -2.4,2.23 -2.43,2.23 -2.34,2.23 -2.43,2.23 -2.32,2.23 -2.5,2.24 -2.31,2.23 -2.38,2.23 -2.3,2.23 -2.28,2.23 -2.37,2.23 -2.37,2.24 -2.36,2.23 -2.25,2.23 -2.43,2.23 -2.25,2.23 -2.32,2.23 -2.32,2.24 -2.31,2.23 -2.22,2.23 -2.38,2.23 -2.27,2.23 -2.31,2.23 -2.27,2.24 -2.27,2.23 -2.26,2.23 -2.26,2.23 -2.24,2.23 -2.34,2.23 -2.14,2.24 -2.32,2.23 -2.13,2.23 -2.3,2.23 -2.2,2.23 -2.2,2.23 -2.25,2.24 -2.22,2.23 -2.18,2.23 -2.18,2.23 -2.25,2.23 -2.16,2.23 -2.15,2.24 -2.23,2.23 -2.22,2.23 -2.06,2.23 -2.21,2.23 -2.21,2.23 -2.03,2.24 -2.19,2.23 -2.19,2.23 -2.18,2.23 -2.09,2.23 -2.08,2.23 -2.16,2.24 -2.16,2.23 -2.07,2.23 -2.07,2.23 -2.12,2.23 -2.13,2.23 -2.12,2.24 -2.04,2.23 -2.11,2.23 -2.02,2.23 -2.1,2.23 -2.11,2.23 -1.98,2.24 -2.09,2.23 -2.08,2.23 -2.06,2.23 -1.99,2.23 -2.06,2.23 -1.96,2.24 -2.05,2.23 -2.04,2.23 -2.04,2.23 -2.03,2.23 -1.95,2.23 -2.01,2.24 -1.91,2.23 -2.02,2.23 -2,2.23 -1.99,2.23 -1.99,2.23 -1.98,2.24 -1.99,2.23 -1.89,2.23 -1.87,2.23 -1.97,2.23 -1.96,2.23 -1.95,2.24 -1.94,2.23 -1.94,2.23 -1.94,2.23 -1.77,2.23 -1.91,2.23 -1.92,2.24 -1.91,2.23 -1.91,2.23 -1.9,2.23 -1.9,2.23 -1.72,2.23 -1.9,2.24 -1.88,2.23 -1.87,2.23 -1.87,2.23 -1.84,2.23 -1.75,2.23 -1.84,2.24 -1.85,2.23 -1.84,2.23 -1.83,2.23 -1.68,2.23 -1.84,2.24 -1.83,2.23 -1.82,2.23 -1.7,2.23 -1.77,2.23 -1.8,2.23 -1.73,2.24 -1.71,2.23 -1.8,2.23 -1.79,2.23 -1.61,2.23 -1.79,2.23 -1.78,2.24 -1.6,2.23 -1.76,2.23 -1.68,2.23 -1.68,2.23 -1.75,2.23 -1.62,2.24 -1.71,2.23 -1.66,2.23 -1.65,2.23 -1.66,2.23 -1.64,2.23 -1.64,2.24 -1.64,2.23 -1.63,2.23 -1.63,2.23 -1.54,2.23 -1.7,2.23 -1.54,2.24 -1.61,2.23 -1.61,2.23 -1.52,2.23 -1.61,2.23 -1.59,2.23 -1.51,2.24 -1.51,2.23 -1.58,2.23 -1.5,2.23 -1.57,2.23 -1.5,2.23 -1.49,2.24 -1.48,2.23 -1.49,2.23 -1.47,2.23 -1.55,2.23 -1.47,2.23 -1.43,2.24 -1.43,2.23 -1.46,2.23 -1.45,2.23 -1.45,2.23 -1.45,2.23 -1.38,2.24 -1.43,2.23 -1.36,2.23 -1.43,2.23 -1.35,2.23 -1.36,2.23 -1.42,2.24 -1.34,2.23 -1.34,2.23 -1.41,2.23 -1.26,2.23 -1.33,2.23 -1.33,2.24 -1.32,2.23 -1.32,2.23 -1.24,2.23 -1.31,2.23 -1.31,2.23 -1.23,2.24 -1.23,2.23 -1.31,2.23 -1.22,2.23 -1.2,2.23 -1.24,2.23 -1.2,2.24 -1.2,2.23 -1.23,2.23 -1.19,2.23 -1.13,2.23 -1.19,2.23 -1.15,2.24 -1.17,2.23 -1.11,2.23 -1.18,2.23 -1.03,2.23 -1.19,2.23 -1.06,2.24 -1.09,2.23 -1.07,2.23 -1.1,2.23 -1.09,2.23 -1.01,2.23 -1.02,2.24 -1.01,2.23 -1.08,2.23 -1.01,2.23 -1.01,2.23 -0.98,2.23 -0.94,2.24 -1,2.23 -0.97,2.23 -0.96,2.23 -0.91,2.23 -0.93,2.23 -0.92,2.24 -0.91,2.23 -0.93,2.23 -0.86,2.23 -0.88,2.23 -0.92,2.23 -0.82,2.24 -0.81,2.23 -0.87,2.23 -0.84,2.23 -0.75,2.23 -0.84,2.23 -0.76,2.24 -0.8,2.23 -0.79,2.23 -0.75,2.23 -0.74,2.23 -0.77,2.23 -0.68,2.24 -0.74,2.23 -0.67,2.23 -0.76,2.23 -0.66,2.23 -0.68,2.24 -0.6,2.23 -0.66,2.23 -0.68,2.23 -0.59,2.23 -0.6,2.23 -0.61,2.24 -0.63,2.23 -0.61,2.23 -0.52,2.23 -0.59,2.23 -0.52,2.23 -0.51,2.24 -0.53,2.23 -0.51,2.23 -0.51,2.23 -0.52,2.23 -0.43,2.23 -0.47,2.24 -0.49,2.23 -0.43,2.23 -0.43,2.23 -0.42,2.23 -0.4,2.23 -0.4,2.24 -0.31,2.23 -0.43,2.23 -0.37,2.23 -0.33,2.23 -0.3,2.23 -0.38,2.24 -0.3,2.23 -0.27,2.23 -0.28,2.23 -0.28,2.23 -0.29,2.23 -0.28,2.24 -0.2,2.23 -0.21,2.23 -0.29,2.23 -0.2,2.23 -0.21,2.23 -0.14,2.24 -0.14,2.23 -0.21,2.23 -0.14,2.23 -0.13,2.23 -0.16,2.23 -0.07,2.24 -0.13,2.23 -0.14,2.23 0.01,2.23 -0.15,2.23 v 2.23 l -0.07,2.24 -0.07,2.23 v 2.23 2.23 2.23 2.23 2.24 2.23 l 0.07,2.23 0.07,2.23 0.08,2.23 0.06,2.23 0.06,2.24 0.08,2.23 0.14,2.23 0.14,2.23 0.14,2.23 0.14,2.23 0.14,2.24 0.13,2.23 0.14,2.23 0.2,2.23 0.23,2.23 0.13,2.23 0.29,2.24 0.19,2.23 0.22,2.23 0.27,2.23 0.23,2.23 0.24,2.23 0.24,2.24 0.3,2.23 0.31,2.23 0.32,2.23 0.31,2.23 0.3,2.23 0.29,2.24 0.39,2.23 0.29,2.23 0.43,2.23 0.31,2.23 0.39,2.23 0.42,2.24 0.38,2.23 0.4,2.23 0.39,2.23 0.44,2.23 0.44,2.23 0.44,2.24 0.43,2.23 0.43,2.23 0.44,2.23 0.5,2.23 0.5,2.23 0.45,2.24 0.53,2.23 0.49,2.23 0.53,2.23 0.5,2.23 0.56,2.23 0.51,2.24 0.5,2.23 0.55,2.23 0.57,2.23 0.57,2.23 0.56,2.23 0.57,2.24 0.64,2.23 0.56,2.23 0.62,2.23 0.57,2.23 0.64,2.23 0.62,2.24 0.65,2.23 0.61,2.23 0.65,2.23 0.61,2.23 0.64,2.24 0.69,2.23 0.68,2.23 0.7,2.23 0.66,2.23 0.69,2.23 0.69,2.24 0.68,2.23 0.68,2.23 0.67,2.23 0.76,2.23 0.75,2.23 0.66,2.24 0.74,2.23 0.76,2.23 0.69,2.23 0.79,2.23 0.74,2.23 0.74,2.24 0.73,2.23 0.75,2.23 0.8,2.23 0.8,2.23 0.76,2.23 0.76,2.24 0.76,2.23 0.78,2.23 0.81,2.23 0.8,2.23 0.8,2.23 0.79,2.24 0.79,2.23 0.83,2.23 0.84,2.23 0.81,2.23 0.84,2.23 0.79,2.24 0.86,2.23 0.83,2.23 0.82,2.23 0.83,2.23 0.89,2.23 0.78,2.24 0.85,2.23 0.86,2.23 0.85,2.23 0.85,2.23 0.85,2.23 0.85,2.24 0.93,2.23 0.84,2.23 0.84,2.23 0.84,2.23 0.86,2.23 0.91,2.24 0.88,2.23 0.88,2.23 0.84,2.23 0.91,2.23 0.91,2.23 0.84,2.24 0.91,2.23 0.83,2.23 0.91,2.23 0.9,2.23 0.91,2.23 0.83,2.24 0.9,2.23 0.91,2.23 0.9,2.23 0.83,2.23 0.9,2.23 0.89,2.24 0.9,2.23 0.9,2.23 0.89,2.23 0.9,2.23 0.89,2.23 0.9,2.24 0.89,2.23 0.89,2.23 0.89,2.23 0.89,2.23 0.89,2.23 0.89,2.24 0.88,2.23 0.89,2.23 0.88,2.23 0.89,2.23 0.95,2.23 0.89,2.24 0.88,2.23 0.88,2.23 0.88,2.23 0.87,2.23 0.88,2.23 0.88,2.24 0.87,2.23 0.88,2.23 0.94,2.23 0.88,2.23 0.87,2.23 0.87,2.24 0.87,2.23 0.87,2.23 0.87,2.23 0.79,2.23 0.86,2.23 0.87,2.24 0.86,2.23 0.87,2.23 0.86,2.23 0.78,2.23 0.87,2.24 0.85,2.23 0.86,2.23 0.86,2.23 0.86,2.23 0.78,2.23 0.85,2.24 0.78,2.23 0.85,2.23 0.85,2.23 0.78,2.23 0.8,2.23 0.82,2.24 0.85,2.23 0.77,2.23 0.77,2.23 0.85,2.23 0.77,2.23 0.76,2.24 0.85,2.23 0.71,2.23 0.81,2.23 0.78,2.23 0.75,2.23 0.76,2.24 0.76,2.23 0.77,2.23 0.75,2.23 0.67,2.23 0.85,2.23 0.67,2.24 0.71,2.23 0.8,2.23 0.67,2.23 0.67,2.23 0.74,2.23 0.73,2.24 0.71,2.23 0.67,2.23 0.66,2.23 0.68,2.23 0.66,2.23 0.71,2.24 0.63,2.23 0.65,2.23 0.66,2.23 0.67,2.23 0.66,2.23 0.66,2.24 0.66,2.23 0.61,2.23 0.55,2.23 0.66,2.23 0.63,2.23 0.54,2.24 0.62,2.23 0.58,2.23 0.57,2.23 0.63,2.23 0.51,2.23 0.61,2.24 0.53,2.23 0.5,2.23 0.63,2.23 0.48,2.23 0.47,2.23 0.6,2.24 0.52,2.23 0.52,2.23 0.47,2.23 0.47,2.23 0.48,2.23 0.48,2.24 0.48,2.23 0.47,2.23 0.48,2.23 0.47,2.23 0.39,2.23 0.4,2.24 0.47,2.23 0.39,2.23 0.39,2.23 0.46,2.23 0.32,2.23 0.46,2.24 0.32,2.23 0.37,2.23 0.41,2.23 0.32,2.23 0.35,2.23 0.34,2.24 0.3,2.23 0.37,2.23 0.3,2.23 0.3,2.23 0.3,2.23 0.24,2.24 0.33,2.23 0.33,2.23 0.17,2.23 0.28,2.23 0.31,2.23 0.15,2.24 0.3,2.23 0.18,2.23 0.25,2.23 0.22,2.23 0.16,2.23 0.19,2.24 0.15,2.23 0.21,2.23 0.23,2.23 0.13,2.23 0.13,2.23 0.13,2.24 0.13,2.23 0.12,2.23 0.17,2.23 0.13,2.23 0.02,2.23 0.16,2.24 -0.01,2.23 0.17,2.23 v 2.23 l 0.16,2.23 -0.01,2.23 v 2.24 l 0.08,2.23 0.08,2.23 v 2.23 2.23 2.23 2.24 2.23 2.23 l -0.08,2.23 -0.08,2.23 v 2.24 l 0.01,2.23 -0.16,2.23 v 2.23 l -0.17,2.23 0.01,2.23 -0.17,2.24 0.02,2.23 -0.17,2.23 -0.16,2.23 -0.09,2.23 -0.05,2.23 -0.17,2.24 -0.16,2.23 -0.15,2.23 -0.16,2.23 -0.16,2.23 -0.15,2.23 -0.16,2.24 -0.17,2.23 -0.27,2.23 -0.2,2.23 -0.16,2.23 -0.24,2.23 -0.23,2.24 -0.2,2.23 -0.28,2.23 -0.14,2.23 -0.32,2.23 -0.26,2.23 -0.21,2.24 -0.33,2.23 -0.24,2.23 -0.21,2.23 -0.32,2.23 -0.31,2.23 -0.3,2.24 -0.33,2.23 -0.33,2.23 -0.27,2.23 -0.32,2.23 -0.34,2.23 -0.32,2.24 -0.3,2.23 -0.38,2.23 -0.33,2.23 -0.4,2.23 -0.31,2.23 -0.41,2.24 -0.33,2.23 -0.34,2.23 -0.41,2.23 -0.39,2.23 -0.38,2.23 -0.35,2.24 -0.49,2.23 -0.32,2.23 -0.49,2.23 -0.33,2.23 -0.47,2.23 -0.39,2.24 -0.44,2.23 -0.45,2.23 -0.38,2.23 -0.47,2.23 -0.48,2.23 -0.4,2.24 -0.4,2.23 -0.47,2.23 -0.48,2.23 -0.47,2.23 -0.48,2.23 -0.47,2.24 -0.47,2.23 -0.47,2.23 -0.46,2.23 -0.46,2.23 -0.47,2.23 -0.52,2.24 -0.56,2.23 -0.47,2.23 -0.46,2.23 -0.46,2.23 -0.54,2.23 -0.53,2.24 -0.46,2.23 -0.53,2.23 -0.53,2.23 -0.47,2.23 -0.6,2.23 -0.44,2.24 -0.62,2.23 -0.43,2.23 -0.62,2.23 -0.43,2.23 -0.6,2.23 -0.52,2.24 -0.52,2.23 -0.54,2.23 -0.49,2.23 -0.6,2.23 -0.51,2.23 -0.52,2.24 -0.59,2.23 -0.59,2.23 -0.51,2.23 -0.51,2.23 -0.59,2.23 -0.58,2.24 -0.5,2.23 -0.6,2.23 -0.49,2.23 -0.58,2.23 -0.58,2.23 -0.57,2.24 -0.58,2.23 -0.5,2.23 -0.57,2.23 -0.57,2.23 -0.54,2.23 -0.53,2.24 -0.57,2.23 -0.56,2.23 -0.57,2.23 -0.57,2.23 -0.56,2.23 -0.56,2.24 -0.56,2.23 -0.57,2.23 -0.56,2.23 -0.55,2.23 -0.56,2.23 -0.56,2.24 -0.55,2.23 -0.56,2.23 -0.57,2.23 -0.61,2.23 -0.55,2.23 -0.55,2.24 -0.54,2.23 -0.55,2.23 -0.62,2.23 -0.55,2.23 -0.54,2.24 -0.55,2.23 -0.54,2.23 -0.54,2.23 -0.54,2.23 -0.54,2.23 -0.53,2.24 -0.62,2.23 -0.53,2.23 -0.54,2.23 -0.53,2.23 -0.61,2.23 -0.53,2.24 -0.53,2.23 -0.53,2.23 -0.52,2.23 -0.53,2.23 -0.53,2.23 -0.52,2.24 -0.52,2.23 -0.53,2.23 -0.52,2.23 -0.52,2.23 -0.52,2.23 -0.52,2.24 -0.51,2.23 -0.52,2.23 -0.51,2.23 -0.52,2.23 -0.51,2.23 -0.51,2.24 -0.51,2.23 -0.51,2.23 -0.51,2.23 -0.51,2.23 -0.51,2.23 -0.51,2.24 -0.5,2.23 -0.5,2.23 -0.43,2.23 -0.5,2.23 -0.51,2.23 -0.42,2.24 -0.5,2.23 -0.5,2.23 -0.49,2.23 -0.43,2.23 -0.5,2.23 -0.41,2.24 -0.5,2.23 -0.49,2.23 -0.42,2.23 -0.41,2.23 -0.49,2.23 -0.47,2.24 -0.44,2.23 -0.4,2.23 -0.49,2.23 -0.39,2.23 -0.43,2.23 -0.42,2.24 -0.39,2.23 -0.49,2.23 -0.41,2.23 -0.4,2.23 -0.4,2.23 -0.41,2.24 -0.39,2.23 -0.4,2.23 -0.42,2.23 -0.39,2.23 -0.39,2.23 -0.41,2.24 -0.35,2.23 -0.44,2.23 -0.32,2.23 -0.38,2.23 -0.39,2.23 -0.32,2.24 -0.36,2.23 -0.38,2.23 -0.37,2.23 -0.32,2.23 -0.38,2.23 -0.38,2.24 -0.3,2.23 -0.33,2.23 -0.31,2.23 -0.34,2.23 -0.3,2.23 -0.39,2.24 -0.3,2.23 -0.3,2.23 -0.29,2.23 -0.3,2.23 -0.3,2.23 -0.3,2.24 -0.3,2.23 -0.29,2.23 -0.3,2.23 -0.26,2.23 -0.31,2.23 -0.26,2.24 -0.3,2.23 -0.21,2.23 -0.3,2.23 -0.27,2.23 -0.25,2.24 -0.21,2.23 -0.27,2.23 -0.25,2.23 -0.22,2.23 -0.27,2.23 -0.2,2.24 -0.22,2.23 -0.27,2.23 -0.16,2.23 -0.24,2.23 -0.18,2.23 -0.21,2.24 -0.21,2.23 -0.22,2.23 -0.21,2.23 -0.14,2.23 -0.21,2.23 -0.14,2.24 -0.23,2.23 -0.13,2.23 -0.17,2.23 -0.18,2.23 -0.13,2.23 -0.14,2.24 -0.14,2.23 -0.14,2.23 -0.22,2.23 -0.07,2.23 -0.15,2.23 -0.15,2.24 -0.14,2.23 -0.09,2.23 -0.14,2.23 -0.06,2.23 -0.15,2.23 -0.12,2.24 -0.11,2.23 -0.06,2.23 -0.15,2.23 -0.07,2.23 -0.09,2.23 -0.06,2.24 -0.07,2.23 -0.08,2.23 -0.07,2.23 -0.05,2.23 -0.05,2.23 -0.05,2.24 -0.07,2.23 -0.06,2.23 -0.01,2.23 -0.02,2.23 -0.06,2.23 -0.07,2.24 v 2.23 2.23 2.23 l -0.05,2.23 -0.02,2.23 v 2.24 2.23 2.23 2.23 2.23 l 0.07,2.23 v 2.24 2.23 2.23 l 0.08,2.23 -0.01,2.23 0.08,2.23 v 2.24 l 0.07,2.23 0.06,2.23 0.01,2.23 0.08,2.23 0.07,2.23 0.03,2.24 0.12,2.23 -0.01,2.23 0.09,2.23 0.06,2.23 0.11,2.23 0.04,2.24 0.15,2.23 0.1,2.23 0.04,2.23 0.15,2.23 0.09,2.23 0.11,2.24 0.09,2.23 0.14,2.23 0.13,2.23 0.1,2.23 0.12,2.23 0.11,2.24 0.13,2.23 0.15,2.23 0.14,2.23 0.12,2.23 0.18,2.23 0.12,2.24 0.1,2.23 0.2,2.23 0.17,2.23 0.12,2.23 0.17,2.23 0.15,2.24 0.15,2.23" />
      <path
         id="path929"
         style="fill:none;stroke:#ff0000;stroke-width:50;stroke-linecap:butt;stroke-linejoin:round;stroke-miterlimit:10;stroke-dasharray:none;stroke-opacity:1"
         d="m 2727.24,2206.79 1.69,-0.26 1.7,-0.44 1.69,-0.31 1.69,-0.45 1.69,-1.66 1.69,-3.81 1.69,-1.97 1.69,-1.66 1.69,-1.57 1.69,-1.76 1.69,-1.52 1.69,-1.61 1.69,-1.36 1.69,-1.59 1.69,-1.48 1.69,-1.45 1.69,-1.6 1.69,-1.46 1.69,-1.34 1.69,-1.56 1.69,-1.44 1.69,-1.55 1.69,-1.48 1.69,-1.44 1.69,-1.43 1.69,-1.57 1.69,-1.43 1.69,-1.42 1.69,-1.41 1.69,-1.57 1.69,-1.42 1.69,-1.41 1.69,-1.41 1.69,-1.55 1.69,-1.4 1.69,-1.4 1.69,-1.4 1.69,-1.53 1.69,-1.39 1.69,-1.39 1.69,-1.38 1.69,-1.38 1.69,-1.52 1.69,-1.4 1.69,-1.49 1.69,-1.37 1.69,-1.5 1.69,-1.36 1.69,-1.36 1.69,-1.36 1.69,-1.5 1.69,-1.48 1.69,-1.35 1.69,-1.35 1.69,-1.34 1.69,-1.48 1.7,-1.33 1.69,-1.48 1.69,-1.31 1.69,-1.48 1.69,-1.33 1.69,-1.32 1.69,-1.35 1.69,-1.56 1.69,-1.31 1.69,-1.31 1.69,-1.31 1.69,-1.55 1.69,-1.33 1.69,-1.3 1.69,-1.45 1.69,-1.27 1.69,-1.43 1.69,-1.29 1.69,-1.42 1.69,-1.29 1.69,-1.41 1.69,-1.31 1.69,-1.38 1.69,-1.27 1.69,-1.4 1.69,-1.4 1.69,-1.27 1.69,-1.26 1.69,-1.51 1.69,-1.27 1.69,-1.26 1.69,-1.27 1.69,-1.49 1.69,-1.25 1.69,-1.25 1.69,-1.49 1.69,-1.25 1.69,-1.23 1.69,-1.43 1.69,-1.3 1.69,-1.23 1.69,-1.37 1.69,-1.34 1.69,-1.22 1.69,-1.31 1.69,-1.39 1.69,-1.2 1.69,-1.32 1.69,-1.29 1.69,-1.28 1.69,-1.31 1.69,-1.21 1.69,-1.34 1.7,-1.29 1.69,-1.23 1.69,-1.31 1.69,-1.28 1.69,-1.23 1.69,-1.31 1.69,-1.32 1.69,-1.17 1.69,-1.3 1.69,-1.31 1.69,-1.16 1.69,-1.29 1.69,-1.3 1.69,-1.17 1.69,-1.29 1.69,-1.28 1.69,-1.16 1.69,-1.28 1.69,-1.28 1.69,-1.14 1.69,-1.27 1.69,-1.28 1.69,-1.13 1.69,-1.32 1.69,-1.23 1.69,-1.17 1.69,-1.35 1.69,-1.13 1.69,-1.24 1.69,-1.26 1.69,-1.13 1.69,-1.25 1.69,-1.24 1.69,-1.12 1.69,-1.23 1.69,-1.25 1.69,-1.11 1.69,-1.36 1.69,-1.1 1.69,-1.11 1.69,-1.35 1.69,-1.1 1.69,-1.08 1.69,-1.36 1.69,-1.09 1.69,-1.08 1.69,-1.35 1.69,-1.08 1.69,-1.09 1.69,-1.33 1.69,-1.08 1.69,-1.23 1.69,-1.17 1.7,-1.07 1.69,-1.34 1.69,-1.05 1.69,-1.06 1.69,-1.34 1.69,-1.04 1.69,-1.06 1.69,-1.31 1.69,-1.05 1.69,-1.05 1.69,-1.31 1.69,-1.04 1.69,-1.05 1.69,-1.3 1.69,-1.03 1.69,-1.05 1.69,-1.29 1.69,-1.03 1.69,-1.03 1.69,-1.19 1.69,-1.12 1.69,-1.03 1.69,-1.16 1.69,-1.14 1.69,-1.02 1.69,-1.14 1.69,-1.15 1.69,-1.01 1.69,-1.01 1.69,-1.26 1.69,-1.02 1.69,-1.01 1.69,-1.11 1.69,-1.14 1.69,-1.01 1.69,-1.03 1.69,-1.22 1.69,-0.99 1.69,-1 1.69,-1.11 1.69,-1.11 1.69,-0.99 1.69,-1 1.69,-1.1 1.69,-1.1 1.69,-0.99 1.69,-0.98 1.69,-1.1 1.69,-1.09 1.69,-0.98 1.69,-0.98 1.69,-1.09 1.69,-1.1 1.69,-0.96 1.7,-0.96 1.69,-0.96 1.69,-1.09 1.69,-1.08 1.69,-0.96 1.69,-0.96 1.69,-0.95 1.69,-1.08 1.69,-1.08 1.69,-0.94 1.69,-0.95 1.69,-0.95 1.69,-1.01 1.69,-0.99 1.69,-1.03 1.69,-0.97 1.69,-0.94 1.69,-0.94 1.69,-0.93 1.69,-0.93 1.69,-1.06 1.69,-0.93 1.69,-1.04 1.69,-0.93 1.69,-0.92 1.69,-0.93 1.69,-0.92 1.69,-0.92 1.69,-0.92 1.69,-0.92 1.69,-0.91 1.69,-1.03 1.69,-0.91 1.69,-0.91 1.69,-0.91 1.69,-0.91 1.69,-0.9 1.69,-0.91 1.69,-0.9 1.69,-0.9 1.69,-0.9 1.69,-0.9 1.69,-0.89 1.69,-0.9 1.69,-0.89 1.69,-0.89 1.69,-0.87 1.69,-0.8 1.69,-0.88 1.69,-0.89 1.69,-0.88 1.69,-0.88 1.69,-0.88 1.7,-0.88 1.69,-0.77 1.69,-0.87 1.69,-0.86 1.69,-0.78 1.69,-0.87 1.69,-0.87 1.69,-0.88 1.69,-0.74 1.69,-0.87 1.69,-0.74 1.69,-0.87 1.69,-0.85 1.69,-0.76 1.69,-0.73 1.69,-0.86 1.69,-0.86 1.69,-0.74 1.69,-0.73 1.69,-0.86 1.69,-0.81 1.69,-0.76 1.69,-0.75 1.69,-0.85 1.69,-0.73 1.69,-0.72 1.69,-0.84 1.69,-0.74 1.69,-0.72 1.69,-0.71 1.69,-0.74 1.69,-0.84 1.69,-0.72 1.69,-0.71 1.69,-0.72 1.69,-0.72 1.69,-0.7 1.69,-0.73 1.69,-0.71 1.69,-0.7 1.69,-0.7 1.69,-0.73 1.69,-0.7 1.69,-0.71 1.69,-0.72 1.69,-0.69 1.69,-0.64 1.69,-0.73 1.69,-0.62 1.69,-0.71 1.69,-0.7 1.69,-0.58 1.69,-0.7 1.7,-0.69 1.69,-0.58 1.69,-0.69 1.69,-0.66 1.69,-0.61 1.69,-0.63 1.69,-0.63 1.69,-0.7 1.69,-0.58 1.69,-0.55 1.69,-0.69 1.69,-0.57 1.69,-0.68 1.69,-0.58 1.69,-0.56 1.69,-0.59 1.69,-0.61 1.69,-0.6 1.69,-0.5 1.69,-0.61 1.69,-0.62 1.69,-0.51 1.69,-0.59 1.69,-0.61 1.69,-0.49 1.69,-0.61 1.69,-0.48 1.69,-0.57 1.69,-0.52 1.69,-0.49 1.69,-0.53 1.69,-0.57 1.69,-0.52 1.69,-0.56 1.69,-0.51 1.69,-0.48 1.69,-0.47 1.69,-0.5 1.69,-0.51 1.69,-0.47 1.69,-0.47 1.69,-0.5 1.69,-0.5 1.69,-0.47 1.69,-0.41 1.69,-0.55 1.69,-0.36 1.69,-0.49 1.69,-0.47 1.69,-0.37 1.69,-0.51 1.69,-0.35 1.7,-0.49 1.69,-0.36 1.69,-0.49 1.69,-0.35 1.69,-0.48 1.69,-0.38 1.69,-0.37 1.69,-0.38 1.69,-0.47 1.69,-0.36 1.69,-0.36 1.69,-0.37 1.69,-0.36 1.69,-0.37 1.69,-0.36 1.69,-0.37 1.69,-0.36 1.69,-0.36 1.69,-0.28 1.69,-0.44 1.69,-0.26 1.69,-0.36 1.69,-0.25 1.69,-0.36 1.69,-0.26 1.69,-0.35 1.69,-0.29 1.69,-0.32 1.69,-0.34 1.69,-0.26 1.69,-0.25 1.69,-0.34 1.69,-0.27 1.69,-0.24 1.69,-0.26 1.69,-0.29 1.69,-0.21 1.69,-0.23 1.69,-0.24 1.69,-0.25 1.69,-0.25 1.69,-0.26 1.69,-0.24 1.69,-0.23 1.69,-0.22 1.69,-0.22 1.69,-0.19 1.69,-0.23 1.69,-0.15 1.69,-0.24 1.69,-0.12 1.69,-0.13 1.69,-0.2 1.69,-0.23 1.69,-0.2 1.7,-0.13 1.69,-0.11 1.69,-0.19 1.69,-0.2 1.69,-0.12 1.69,-0.09 1.69,-0.17 1.69,-0.05 1.69,-0.22 1.69,-0.11 1.69,-0.1 1.69,-0.1 1.69,-0.11 1.69,-0.11 1.69,-0.1 1.69,-0.04 1.69,-0.13 1.69,-0.04 1.69,-0.11 1.69,-0.11 h 1.69 l 1.69,-0.04 1.69,-0.13 1.69,-0.04 h 1.69 1.69 l 1.69,-0.1 h 1.69 l 1.69,-0.11 h 1.69 1.69 1.69 1.69 1.69 1.69 1.69 1.69 1.69 1.69 1.69 l 1.69,0.11 1.69,-0.01 1.69,0.11 h 1.69 1.69 l 1.69,0.05 1.69,0.12 1.69,0.04 1.69,0.01 1.69,0.09 1.69,0.11 h 1.69 l 1.69,0.11 1.7,0.11 1.69,0.11 1.69,0.1 1.69,0.01 1.69,0.2 1.69,0.02 1.69,0.19 1.69,0.11 1.69,0.1 1.69,0.16 1.69,0.05 1.69,0.23 1.69,0.1 1.69,0.09 1.69,0.24 1.69,0.15 1.69,0.09 1.69,0.16 1.69,0.23 1.69,0.16 1.69,0.08 1.69,0.21 1.69,0.17 1.69,0.22 1.69,0.23 1.69,0.14 1.69,0.21 1.69,0.21 1.69,0.21 1.69,0.2 1.69,0.21 1.69,0.21 1.69,0.2 1.69,0.21 1.69,0.31 1.69,0.21 1.69,0.21 1.69,0.23 1.69,0.2 1.69,0.28 1.69,0.2 1.69,0.33 1.69,0.2 1.69,0.27 1.69,0.23 1.69,0.32 1.69,0.31 1.69,0.21 1.69,0.3 1.69,0.33 1.69,0.22 1.69,0.26 1.7,0.32 1.69,0.31 1.69,0.31 1.69,0.3 1.69,0.31 1.69,0.31 1.69,0.3 1.69,0.31 1.69,0.3 1.69,0.3 1.69,0.32 1.69,0.39 1.69,0.32 1.69,0.29 1.69,0.35 1.69,0.38 1.69,0.3 1.69,0.42 1.69,0.3 1.69,0.36 1.69,0.36 1.69,0.41 1.69,0.3 1.69,0.41 1.69,0.28 1.69,0.41 1.69,0.32 1.69,0.41 1.69,0.39 1.69,0.42 1.69,0.34 1.69,0.38 1.69,0.39 1.69,0.4 1.69,0.41 1.69,0.41 1.69,0.41 1.69,0.42 1.69,0.41 1.69,0.4 1.69,0.41 1.69,0.38 1.69,0.4 1.69,0.41 1.69,0.53 1.69,0.39 1.69,0.36 1.69,0.45 1.69,0.41 1.69,0.49 1.69,0.36 1.69,0.47 1.7,0.51 1.69,0.36 1.69,0.44 1.69,0.52 1.69,0.4 1.69,0.46 1.69,0.48 1.69,0.37 1.69,0.51 1.69,0.42 1.69,0.5 1.69,0.46 1.69,0.48 1.69,0.48 1.69,0.48 1.69,0.48 1.69,0.46 1.69,0.49 1.69,0.42 1.69,0.51 1.69,0.47 1.69,0.47 1.69,0.47 1.69,0.46 1.69,0.56 1.69,0.39 1.69,0.57 1.69,0.47 1.69,0.47 1.69,0.59 1.69,0.44 1.69,0.48 1.69,0.54 1.69,0.5 1.69,0.47 1.69,0.55 1.69,0.49 1.69,0.46 1.69,0.57 1.69,0.45 1.69,0.46 1.69,0.58 1.69,0.58 1.69,0.45 1.69,0.45 1.69,0.58 1.69,0.58 1.69,0.45 1.69,0.46 1.69,0.56 1.69,0.57 1.69,0.58 1.69,0.45 1.69,0.47 1.69,0.55 1.69,0.56 1.7,0.56 1.69,0.46 1.69,0.57 1.69,0.55 1.69,0.46 1.69,0.56 1.69,0.57 1.69,0.56 1.69,0.57 1.69,0.44 1.69,0.56 1.69,0.57 1.69,0.44 1.69,0.56 1.69,0.56 1.69,0.56 1.69,0.56 1.69,0.55 1.69,0.56 1.69,0.57 1.69,0.43 1.69,0.56 1.69,0.56 1.69,0.55 1.69,0.56 1.69,0.55 1.69,0.55 1.69,0.44 1.69,0.56 1.69,0.55 1.69,0.56 1.69,0.55 1.69,0.55 1.69,0.55 1.69,0.55 1.69,0.55 1.69,0.55 1.69,0.55 1.69,0.55 1.69,0.55 1.69,0.55 1.69,0.55 1.69,0.55 1.69,0.55 1.69,0.54 1.69,0.55 1.69,0.55 1.69,0.54 1.69,0.55 1.69,0.54 1.69,0.55 1.69,0.54 1.7,0.55 1.69,0.54 1.69,0.54 1.69,0.55 1.69,0.54 1.69,0.54 1.69,0.54 1.69,0.54 1.69,0.54 1.69,0.54 1.69,0.54 1.69,0.54 1.69,0.55 1.69,0.64 1.69,0.54 1.69,0.54 1.69,0.54 1.69,0.54 1.69,0.53 1.69,0.54 1.69,0.54 1.69,0.53 1.69,0.54 1.69,0.53 1.69,0.54 1.69,0.53 1.69,0.54 1.69,0.53 1.69,0.53 1.69,0.54 1.69,0.53 1.69,0.53 1.69,0.53 1.69,0.53 1.69,0.53 1.69,0.53 1.69,0.5 1.69,0.45 1.69,0.53 1.69,0.53 1.69,0.52 1.69,0.53 1.69,0.53 1.69,0.53 1.69,0.52 1.69,0.53 1.69,0.53 1.69,0.52 1.69,0.53 1.69,0.52 1.69,0.52 1.69,0.45 1.69,0.49 1.69,0.52 1.7,0.52 1.69,0.43 1.69,0.5 1.69,0.53 1.69,0.52 1.69,0.52 1.69,0.52 1.69,0.53 1.69,0.38 1.69,0.53 1.69,0.4 1.69,0.52 1.69,0.52 1.69,0.52 1.69,0.52 1.69,0.39 1.69,0.54 1.69,0.38 1.69,0.52 1.69,0.52 1.69,0.52 1.69,0.38 1.69,0.43 1.69,0.49 1.69,0.52 1.69,0.52 1.69,0.37 1.69,0.43 1.69,0.49 1.69,0.52 1.69,0.37 1.69,0.46 1.69,0.46 1.69,0.51 1.69,0.39 1.69,0.38 1.69,0.52 1.69,0.44 1.69,0.37 1.69,0.48 1.69,0.5 1.69,0.37 1.69,0.42 1.69,0.52 1.69,0.27 1.69,0.49 1.69,0.5 1.69,0.27 1.69,0.52 1.69,0.38 1.69,0.37 1.69,0.52 1.7,0.26 1.69,0.5 1.69,0.35 1.69,0.42 1.69,0.46 1.69,0.29 1.69,0.44 1.69,0.33 1.69,0.51 1.69,0.25 1.69,0.49 1.69,0.27 1.69,0.47 1.69,0.28 1.69,0.45 1.69,0.31 1.69,0.42 1.69,0.34 1.69,0.38 1.69,0.37 1.69,0.26 1.69,0.48 1.69,0.27 1.69,0.31 1.69,0.39 1.69,0.29 1.69,0.34 1.69,0.45 1.69,0.21 1.69,0.29 1.69,0.47 1.69,0.25 1.69,0.24 1.69,0.47 1.69,0.27 1.69,0.26 1.69,0.32 1.69,0.33 1.69,0.31 1.69,0.27 1.69,0.29 1.69,0.31 1.69,0.33 1.69,0.23 1.69,0.33 1.69,0.22 1.69,0.27 1.69,0.27 1.69,0.25 1.69,0.35 1.69,0.23 1.69,0.35 1.69,0.24 1.69,0.24 1.7,0.24 1.69,0.24 1.69,0.24 1.69,0.23 1.69,0.26 1.69,0.23 1.69,0.23 1.69,0.24 1.69,0.24 1.69,0.24 1.69,0.23 1.69,0.12 1.69,0.24 1.69,0.12 1.69,0.25 1.69,0.25 1.69,0.22 1.69,0.2 1.69,0.12 1.69,0.15 1.69,0.27 1.69,0.2 1.69,0.17 1.69,0.14 1.69,0.2 1.69,0.18 1.69,0.09 1.69,0.2 1.69,0.27 1.69,0.03 1.69,0.17 1.69,0.15 1.69,0.11 1.69,0.23 1.69,-0.01 1.69,0.26 1.69,0.08 1.69,0.16 1.69,0.16 1.69,0.07 1.69,0.13 1.69,0.11 1.69,0.08 1.69,0.15 1.69,0.02 1.69,0.23 h 1.69 l 1.69,0.11 1.69,0.13 1.69,-0.01 1.69,0.21 1.69,0.03 h 1.7 l 1.69,0.17 1.69,0.07 h 1.69 l 1.69,0.12 1.69,0.11 1.69,0.01 h 1.69 l 1.69,-0.01 1.69,0.14 1.69,0.13 1.69,-0.02 h 1.69 1.69 1.69 l 1.69,0.01 1.69,0.06 1.69,0.05 1.69,0.03 1.69,0.09 h 1.69 1.69 1.69 1.69 1.69 l 1.69,-0.02 1.69,-0.1 h 1.69 l 1.69,-0.09 1.69,-0.02 1.69,-0.01 h 1.69 1.69 1.69 l 1.69,0.02 1.69,-0.14 1.69,-0.13 1.69,0.01 h 1.69 l 1.69,0.01 1.69,-0.21 1.69,-0.03 1.69,-0.01 h 1.69 l 1.69,-0.23 h 1.69 1.69 l 1.69,-0.16 1.69,-0.08 h 1.69 l 1.69,-0.21 1.69,-0.02 1.69,-0.17 1.69,-0.08 1.69,0.02 1.7,-0.28 1.69,0.03 1.69,-0.27 1.69,0.02 1.69,-0.18 1.69,-0.05 1.69,-0.17 1.69,-0.08 1.69,-0.22 1.69,0.01 1.69,-0.3 1.69,0.02 1.69,-0.24 1.69,-0.13 1.69,-0.07 1.69,-0.28 1.69,0.03 1.69,-0.27 1.69,-0.16 1.69,-0.08 1.69,-0.24 1.69,-0.13 1.69,-0.11 1.69,-0.22 1.69,-0.2 1.69,-0.16 1.69,-0.13 1.69,-0.23 1.69,-0.18 1.69,-0.16 1.69,-0.16 1.69,-0.21 1.69,-0.2 1.69,-0.2 1.69,-0.21 1.69,-0.09 1.69,-0.26 1.69,-0.24" />
      <path
         id="path931"
         style="fill:none;stroke:#ff0000;stroke-width:50;stroke-linecap:butt;stroke-linejoin:round;stroke-miterlimit:10;stroke-dasharray:none;stroke-opacity:1"
         d="m 2719.77,2213.52 -0.29,1.52 -0.49,1.52 -0.34,1.52 -0.5,1.52 -1.85,1.53 -4.24,1.52 -2.18,1.52 -1.85,1.52 -1.74,1.52 -1.96,1.52 -1.68,1.52 -1.8,1.52 -1.51,1.53 -1.76,1.52 -1.64,1.52 -1.61,1.52 -1.78,1.52 -1.62,1.52 -1.49,1.52 -1.74,1.52 -1.6,1.52 -1.72,1.53 -1.65,1.52 -1.59,1.52 -1.6,1.52 -1.74,1.52 -1.59,1.52 -1.58,1.52 -1.57,1.52 -1.74,1.53 -1.58,1.52 -1.56,1.52 -1.57,1.52 -1.72,1.52 -1.56,1.52 -1.55,1.52 -1.55,1.52 -1.7,1.52 -1.55,1.53 -1.54,1.52 -1.54,1.52 -1.53,1.52 -1.69,1.52 -1.56,1.52 -1.65,1.52 -1.52,1.52 -1.67,1.52 -1.52,1.53 -1.51,1.52 -1.51,1.52 -1.66,1.52 -1.65,1.52 -1.5,1.52 -1.49,1.52 -1.49,1.52 -1.65,1.53 -1.48,1.52 -1.64,1.52 -1.46,1.52 -1.64,1.52 -1.48,1.52 -1.47,1.52 -1.5,1.52 -1.73,1.52 -1.46,1.53 -1.45,1.52 -1.45,1.52 -1.73,1.52 -1.48,1.52 -1.44,1.52 -1.61,1.52 -1.41,1.52 -1.6,1.53 -1.43,1.52 -1.58,1.52 -1.42,1.52 -1.57,1.52 -1.46,1.52 -1.53,1.52 -1.42,1.52 -1.55,1.52 -1.56,1.53 -1.41,1.52 -1.4,1.52 -1.68,1.52 -1.41,1.52 -1.39,1.52 -1.41,1.52 -1.66,1.52 -1.39,1.53 -1.38,1.52 -1.67,1.52 -1.38,1.52 -1.37,1.52 -1.59,1.52 -1.44,1.52 -1.37,1.52 -1.52,1.52 -1.49,1.53 -1.35,1.52 -1.46,1.52 -1.55,1.52 -1.33,1.52 -1.46,1.52 -1.44,1.52 -1.42,1.52 -1.45,1.53 -1.35,1.52 -1.49,1.52 -1.44,1.52 -1.36,1.52 -1.46,1.52 -1.42,1.52 -1.36,1.52 -1.46,1.52 -1.47,1.53 -1.29,1.52 -1.45,1.52 -1.46,1.52 -1.29,1.52 -1.43,1.52 -1.44,1.52 -1.3,1.52 -1.43,1.52 -1.43,1.53 -1.29,1.52 -1.42,1.52 -1.42,1.52 -1.27,1.52 -1.41,1.52 -1.43,1.52 -1.25,1.52 -1.46,1.53 -1.37,1.52 -1.31,1.52 -1.49,1.52 -1.26,1.52 -1.38,1.52 -1.4,1.52 -1.25,1.52 -1.39,1.52 -1.38,1.53 -1.24,1.52 -1.37,1.52 -1.38,1.52 -1.24,1.52 -1.52,1.52 -1.22,1.52 -1.22,1.52 -1.51,1.53 -1.22,1.52 -1.2,1.52 -1.51,1.52 -1.21,1.52 -1.2,1.52 -1.5,1.52 -1.21,1.52 -1.2,1.52 -1.48,1.53 -1.2,1.52 -1.36,1.52 -1.3,1.52 -1.2,1.52 -1.49,1.52 -1.16,1.52 -1.18,1.52 -1.49,1.53 -1.15,1.52 -1.18,1.52 -1.46,1.52 -1.16,1.52 -1.18,1.52 -1.44,1.52 -1.16,1.52 -1.17,1.52 -1.44,1.53 -1.15,1.52 -1.16,1.52 -1.43,1.52 -1.15,1.52 -1.15,1.52 -1.32,1.52 -1.24,1.52 -1.15,1.53 -1.28,1.52 -1.27,1.52 -1.14,1.52 -1.26,1.52 -1.28,1.52 -1.13,1.52 -1.11,1.52 -1.4,1.52 -1.14,1.53 -1.12,1.52 -1.24,1.52 -1.26,1.52 -1.12,1.52 -1.15,1.52 -1.36,1.52 -1.09,1.52 -1.11,1.53 -1.24,1.52 -1.23,1.52 -1.11,1.52 -1.1,1.52 -1.23,1.52 -1.22,1.52 -1.1,1.52 -1.09,1.52 -1.22,1.53 -1.21,1.52 -1.09,1.52 -1.08,1.52 -1.21,1.52 -1.23,1.52 -1.06,1.52 -1.08,1.52 -1.06,1.53 -1.22,1.52 -1.19,1.52 -1.07,1.52 -1.06,1.52 -1.06,1.52 -1.2,1.52 -1.2,1.52 -1.04,1.52 -1.06,1.53 -1.05,1.52 -1.13,1.52 -1.1,1.52 -1.14,1.52 -1.08,1.52 -1.05,1.52 -1.04,1.52 -1.04,1.52 -1.03,1.53 -1.17,1.52 -1.03,1.52 -1.17,1.52 -1.02,1.52 -1.03,1.52 -1.03,1.52 -1.02,1.52 -1.03,1.53 -1.02,1.52 -1.02,1.52 -1.01,1.52 -1.15,1.52 -1.01,1.52 -1.01,1.52 -1.01,1.52 -1.01,1.52 -1.01,1.53 -1,1.52 -1,1.52 -1,1.52 -1,1.52 -1,1.52 -0.99,1.52 -1,1.52 -0.99,1.53 -0.99,1.52 -0.96,1.52 -0.89,1.52 -0.98,1.52 -0.99,1.52 -0.98,1.52 -0.98,1.52 -0.98,1.52 -0.97,1.53 -0.86,1.52 -0.96,1.52 -0.96,1.52 -0.86,1.52 -0.97,1.52 -0.96,1.52 -0.98,1.52 -0.83,1.53 -0.96,1.52 -0.83,1.52 -0.96,1.52 -0.95,1.52 -0.84,1.52 -0.81,1.52 -0.96,1.52 -0.96,1.52 -0.82,1.53 -0.81,1.52 -0.95,1.52 -0.91,1.52 -0.84,1.52 -0.83,1.52 -0.95,1.52 -0.81,1.52 -0.8,1.52 -0.93,1.53 -0.82,1.52 -0.8,1.52 -0.79,1.52 -0.82,1.52 -0.94,1.52 -0.8,1.52 -0.78,1.52 -0.81,1.53 -0.79,1.52 -0.78,1.52 -0.81,1.52 -0.79,1.52 -0.78,1.52 -0.78,1.52 -0.81,1.52 -0.78,1.52 -0.79,1.53 -0.79,1.52 -0.77,1.52 -0.71,1.52 -0.82,1.52 -0.69,1.52 -0.78,1.52 -0.78,1.52 -0.64,1.53 -0.78,1.52 -0.78,1.52 -0.64,1.52 -0.77,1.52 -0.73,1.52 -0.67,1.52 -0.7,1.52 -0.7,1.52 -0.78,1.53 -0.64,1.52 -0.62,1.52 -0.77,1.52 -0.62,1.52 -0.77,1.52 -0.64,1.52 -0.62,1.52 -0.65,1.53 -0.69,1.52 -0.66,1.52 -0.55,1.52 -0.69,1.52 -0.68,1.52 -0.57,1.52 -0.66,1.52 -0.67,1.52 -0.54,1.53 -0.68,1.52 -0.54,1.52 -0.63,1.52 -0.58,1.52 -0.54,1.52 -0.59,1.52 -0.63,1.52 -0.59,1.53 -0.61,1.52 -0.57,1.52 -0.54,1.52 -0.52,1.52 -0.55,1.52 -0.57,1.52 -0.52,1.52 -0.52,1.52 -0.55,1.53 -0.56,1.52 -0.52,1.52 -0.46,1.52 -0.61,1.52 -0.41,1.52 -0.54,1.52 -0.51,1.52 -0.43,1.52 -0.56,1.53 -0.39,1.52 -0.54,1.52 -0.4,1.52 -0.54,1.52 -0.4,1.52 -0.53,1.52 -0.42,1.52 -0.42,1.53 -0.41,1.52 -0.53,1.52 -0.39,1.52 -0.41,1.52 -0.41,1.52 -0.4,1.52 -0.41,1.52 -0.4,1.52 -0.4,1.53 -0.41,1.52 -0.4,1.52 -0.31,1.52 -0.49,1.52 -0.28,1.52 -0.41,1.52 -0.28,1.52 -0.4,1.53 -0.28,1.52 -0.4,1.52 -0.31,1.52 -0.36,1.52 -0.37,1.52 -0.3,1.52 -0.28,1.52 -0.37,1.52 -0.3,1.53 -0.27,1.52 -0.29,1.52 -0.32,1.52 -0.23,1.52 -0.25,1.52 -0.27,1.52 -0.28,1.52 -0.29,1.53 -0.28,1.52 -0.27,1.52 -0.26,1.52 -0.24,1.52 -0.24,1.52 -0.22,1.52 -0.25,1.52 -0.17,1.52 -0.26,1.53 -0.14,1.52 -0.14,1.52 -0.22,1.52 -0.26,1.52 -0.22,1.52 -0.14,1.52 -0.13,1.52 -0.2,1.53 -0.23,1.52 -0.13,1.52 -0.1,1.52 -0.2,1.52 -0.04,1.52 -0.25,1.52 -0.12,1.52 -0.11,1.52 -0.12,1.53 -0.12,1.52 -0.12,1.52 -0.11,1.52 -0.05,1.52 -0.14,1.52 -0.05,1.52 -0.11,1.52 -0.13,1.52 v 1.53 l -0.05,1.52 -0.14,1.52 -0.04,1.52 v 1.52 1.52 l -0.12,1.52 0.01,1.52 -0.12,1.53 -0.01,1.52 v 1.52 1.52 1.52 1.52 1.52 1.52 1.52 1.53 1.52 1.52 l 0.12,1.52 v 1.52 l 0.12,1.52 v 1.52 1.52 l 0.05,1.53 0.13,1.52 0.05,1.52 0.01,1.52 0.11,1.52 0.12,1.52 -0.01,1.52 0.13,1.52 0.12,1.52 0.12,1.53 0.11,1.52 0.01,1.52 0.22,1.52 0.03,1.52 0.21,1.52 0.12,1.52 0.12,1.52 0.17,1.53 0.06,1.52 0.25,1.52 0.11,1.52 0.1,1.52 0.26,1.52 0.18,1.52 0.09,1.52 0.18,1.52 0.26,1.53 0.17,1.52 0.1,1.52 0.23,1.52 0.19,1.52 0.25,1.52 0.24,1.52 0.16,1.52 0.24,1.52 0.23,1.53 0.23,1.52 0.23,1.52 0.23,1.52 0.23,1.52 0.23,1.52 0.22,1.52 0.35,1.52 0.24,1.53 0.23,1.52 0.25,1.52 0.23,1.52 0.31,1.52 0.22,1.52 0.37,1.52 0.22,1.52 0.3,1.52 0.25,1.53 0.36,1.52 0.34,1.52 0.24,1.52 0.33,1.52 0.36,1.52 0.25,1.52 0.29,1.52 0.36,1.53 0.34,1.52 0.34,1.52 0.34,1.52 0.34,1.52 0.34,1.52 0.34,1.52 0.34,1.52 0.34,1.52 0.34,1.53 0.34,1.52 0.44,1.52 0.36,1.52 0.32,1.52 0.38,1.52 0.43,1.52 0.34,1.52 0.46,1.53 0.33,1.52 0.41,1.52 0.39,1.52 0.46,1.52 0.33,1.52 0.46,1.52 0.31,1.52 0.45,1.52 0.36,1.53 0.45,1.52 0.44,1.52 0.46,1.52 0.38,1.52 0.43,1.52 0.43,1.52 0.44,1.52 0.45,1.53 0.46,1.52 0.46,1.52 0.46,1.52 0.46,1.52 0.45,1.52 0.45,1.52 0.43,1.52 0.44,1.52 0.46,1.53 0.58,1.52 0.43,1.52 0.4,1.52 0.5,1.52 0.47,1.52 0.54,1.52 0.4,1.52 0.51,1.53 0.57,1.52 0.4,1.52 0.49,1.52 0.58,1.52 0.44,1.52 0.51,1.52 0.54,1.52 0.41,1.52 0.57,1.53 0.47,1.52 0.55,1.52 0.51,1.52 0.54,1.52 0.53,1.52 0.53,1.52 0.54,1.52 0.5,1.52 0.55,1.53 0.47,1.52 0.56,1.52 0.53,1.52 0.52,1.52 0.52,1.52 0.51,1.52 0.62,1.52 0.44,1.53 0.63,1.52 0.52,1.52 0.52,1.52 0.66,1.52 0.49,1.52 0.53,1.52 0.6,1.52 0.56,1.52 0.52,1.53 0.61,1.52 0.55,1.52 0.5,1.52 0.64,1.52 0.5,1.52 0.51,1.52 0.65,1.52 0.64,1.53 0.51,1.52 0.49,1.52 0.65,1.52 0.64,1.52 0.5,1.52 0.51,1.52 0.63,1.52 0.63,1.52 0.64,1.53 0.5,1.52 0.52,1.52 0.61,1.52 0.63,1.52 0.62,1.52 0.51,1.52 0.63,1.52 0.61,1.53 0.52,1.52 0.62,1.52 0.63,1.52 0.62,1.52 0.64,1.52 0.49,1.52 0.62,1.52 0.63,1.52 0.49,1.53 0.62,1.52 0.62,1.52 0.62,1.52 0.62,1.52 0.62,1.52 0.62,1.52 0.63,1.52 0.49,1.52 0.61,1.53 0.62,1.52 0.62,1.52 0.62,1.52 0.61,1.52 0.62,1.52 0.48,1.52 0.62,1.52 0.62,1.53 0.61,1.52 0.62,1.52 0.61,1.52 0.61,1.52 0.62,1.52 0.61,1.52 0.61,1.52 0.61,1.52 0.61,1.53 0.61,1.52 0.61,1.52 0.61,1.52 0.61,1.52 0.61,1.52 0.6,1.52 0.61,1.52 0.61,1.53 0.61,1.52 0.6,1.52 0.61,1.52 0.6,1.52 0.61,1.52 0.6,1.52 0.61,1.52 0.6,1.52 0.6,1.53 0.61,1.52 0.6,1.52 0.6,1.52 0.6,1.52 0.6,1.52 0.6,1.52 0.6,1.52 0.6,1.53 0.61,1.52 0.71,1.52 0.6,1.52 0.6,1.52 0.6,1.52 0.6,1.52 0.59,1.52 0.6,1.52 0.6,1.53 0.59,1.52 0.6,1.52 0.59,1.52 0.59,1.52 0.6,1.52 0.59,1.52 0.59,1.52 0.6,1.53 0.59,1.52 0.59,1.52 0.59,1.52 0.59,1.52 0.59,1.52 0.59,1.52 0.59,1.52 0.55,1.52 0.5,1.53 0.59,1.52 0.59,1.52 0.58,1.52 0.59,1.52 0.59,1.52 0.58,1.52 0.59,1.52 0.58,1.53 0.59,1.52 0.58,1.52 0.58,1.52 0.59,1.52 0.58,1.52 0.49,1.52 0.55,1.52 0.58,1.52 0.58,1.53 0.47,1.52 0.56,1.52 0.58,1.52 0.58,1.52 0.58,1.52 0.58,1.52 0.58,1.52 0.43,1.52 0.59,1.53 0.45,1.52 0.57,1.52 0.58,1.52 0.58,1.52 0.57,1.52 0.44,1.52 0.59,1.52 0.43,1.53 0.58,1.52 0.57,1.52 0.58,1.52 0.42,1.52 0.49,1.52 0.54,1.52 0.57,1.52 0.58,1.52 0.41,1.53 0.48,1.52 0.55,1.52 0.57,1.52 0.42,1.52 0.51,1.52 0.51,1.52 0.56,1.52 0.44,1.53 0.42,1.52 0.58,1.52 0.48,1.52 0.42,1.52 0.54,1.52 0.54,1.52 0.42,1.52 0.47,1.52 0.57,1.53 0.31,1.52 0.54,1.52 0.55,1.52 0.3,1.52 0.58,1.52 0.42,1.52 0.41,1.52 0.58,1.53 0.29,1.52 0.56,1.52 0.39,1.52 0.46,1.52 0.51,1.52 0.33,1.52 0.48,1.52 0.37,1.52 0.56,1.53 0.29,1.52 0.54,1.52 0.29,1.52 0.53,1.52 0.32,1.52 0.49,1.52 0.35,1.52 0.46,1.53 0.38,1.52 0.42,1.52 0.42,1.52 0.28,1.52 0.53,1.52 0.31,1.52 0.34,1.52 0.44,1.52 0.32,1.53 0.37,1.52 0.5,1.52 0.24,1.52 0.32,1.52 0.53,1.52 0.27,1.52 0.27,1.52 0.52,1.52 0.3,1.53 0.28,1.52 0.36,1.52 0.37,1.52 0.34,1.52 0.31,1.52 0.32,1.52 0.34,1.52 0.36,1.53 0.26,1.52 0.37,1.52 0.25,1.52 0.29,1.52 0.31,1.52 0.27,1.52 0.38,1.52 0.27,1.52 0.39,1.53 0.26,1.52 0.27,1.52 0.27,1.52 0.26,1.52 0.27,1.52 0.26,1.52 0.28,1.52 0.26,1.53 0.26,1.52 0.26,1.52 0.27,1.52 0.26,1.52 0.26,1.52 0.13,1.52 0.27,1.52 0.13,1.52 0.28,1.53 0.28,1.52 0.25,1.52 0.21,1.52 0.14,1.52 0.17,1.52 0.29,1.52 0.23,1.52 0.19,1.53 0.15,1.52 0.22,1.52 0.21,1.52 0.09,1.52 0.22,1.52 0.31,1.52 0.03,1.52 0.19,1.52 0.17,1.53 0.11,1.52 0.26,1.52 v 1.52 l 0.28,1.52 0.09,1.52 0.18,1.52 0.17,1.52 0.08,1.53 0.14,1.52 0.12,1.52 0.1,1.52 0.17,1.52 0.02,1.52 0.25,1.52 v 1.52 l 0.12,1.52 0.15,1.53 -0.02,1.52 0.25,1.52 0.03,1.52 -0.01,1.52 0.2,1.52 0.07,1.52 v 1.52 l 0.14,1.52 0.12,1.53 0.01,1.52 v 1.52 l -0.01,1.52 0.15,1.52 0.14,1.52 -0.01,1.52 v 1.52 1.53 1.52 1.52 l 0.07,1.52 0.06,1.52 0.03,1.52 0.1,1.52 v 1.52 1.52 1.53 1.52 1.52 l -0.02,1.52 -0.11,1.52 v 1.52 l -0.1,1.52 -0.03,1.52 v 1.53 1.52 1.52 1.52 l 0.01,1.52 -0.14,1.52 -0.15,1.52 0.01,1.52 v 1.52 l 0.01,1.53 -0.24,1.52 -0.03,1.52 -0.01,1.52 v 1.52 l -0.25,1.52 -0.01,1.52 0.01,1.52 -0.19,1.53 -0.09,1.52 0.01,1.52 -0.24,1.52 -0.02,1.52 -0.18,1.52 -0.1,1.52 0.02,1.52 -0.31,1.52 0.04,1.53 -0.3,1.52 0.02,1.52 -0.19,1.52 -0.06,1.52 -0.19,1.52 -0.09,1.52 -0.25,1.52 0.01,1.53 -0.33,1.52 0.02,1.52 -0.26,1.52 -0.15,1.52 -0.08,1.52 -0.31,1.52 0.04,1.52 -0.3,1.52 -0.18,1.53 -0.09,1.52 -0.26,1.52 -0.15,1.52 -0.12,1.52 -0.25,1.52 -0.22,1.52 -0.18,1.52 -0.14,1.52 -0.25,1.53 -0.21,1.52 -0.17,1.52 -0.18,1.52 -0.24,1.52 -0.22,1.52 -0.22,1.52 -0.23,1.52 -0.1,1.53 -0.29,1.52 -0.27,1.52" />
      <path
         id="path933"
         style="fill:none;stroke:#0000ff;stroke-width:50;stroke-linecap:butt;stroke-linejoin:bevel;stroke-miterlimit:10;stroke-dasharray:50, 50;stroke-dashoffset:0;stroke-opacity:1"
         d="m 1210,848 7.36,6.621 7.36,6.629 7.36,6.621 7.36,6.617 7.36,6.633 7.36,6.617 7.36,6.621 7.35,6.629 7.36,6.621 7.36,6.621 7.36,6.629 7.36,6.621 7.36,6.622 7.36,6.628 7.36,6.622 7.36,6.617 7.36,6.633 7.36,6.617 7.36,6.633 7.36,6.617 7.36,6.621 7.36,6.629 7.36,6.621 7.35,6.62 7.36,6.63 7.36,6.62 7.36,6.62 7.36,6.63 7.36,6.62 7.36,6.62 7.36,6.63 7.36,6.62 7.36,6.62 7.36,6.63 7.36,6.62 7.36,6.62 7.36,6.63 7.36,6.62 7.36,6.62 7.35,6.63 7.36,6.62 7.36,6.62 7.36,6.63 7.36,6.62 7.36,6.62 7.36,6.63 7.36,6.62 7.36,6.62 7.36,6.63 7.36,6.62 7.36,6.63 7.36,6.62 7.36,6.62 7.36,6.63 7.36,6.62 7.35,6.62 7.36,6.63 7.36,6.62 7.36,6.62 7.36,6.63 7.36,6.62 7.36,6.62 7.36,6.63 7.36,6.62 7.36,6.62 7.36,6.63 7.36,6.62 7.36,6.62 7.36,6.63 7.36,6.62 7.36,6.62 7.35,6.63 7.36,6.62 7.36,6.62 7.36,6.63 7.36,6.62 7.36,6.62 7.36,6.63 7.36,6.62 7.36,6.62 7.36,6.63 7.36,6.62 7.36,6.63 7.36,6.62 7.36,6.62 7.36,6.63 7.36,6.62 7.35,6.62 7.36,6.63 7.36,6.62 7.36,6.62 7.36,6.63 7.36,6.62 7.36,6.62 7.36,6.63 7.36,6.62 7.36,6.62 7.36,6.63 7.36,6.62" />
      <path
         id="path935"
         style="fill:none;stroke:#ff0000;stroke-width:50;stroke-linecap:butt;stroke-linejoin:round;stroke-miterlimit:10;stroke-dasharray:none;stroke-opacity:1"
         d="m 1938.58,1503.72 7.96,7.17 7.97,7.17 7.97,7.17 7.96,7.17 7.97,7.17 7.97,7.17 7.96,7.17 7.97,7.17 7.96,7.17 7.97,7.17 7.97,7.17 7.96,7.17 7.97,7.17 7.97,7.17 7.96,7.17 7.97,7.17 7.97,7.16 7.96,7.17 7.97,7.17 7.96,7.17 7.97,7.17 7.97,7.17 7.96,7.17 7.97,7.17 7.97,7.17 7.96,7.17 7.97,7.17 7.96,7.17 7.97,7.17 7.97,7.17 7.96,7.17 7.97,7.17 7.97,7.17 7.96,7.17 7.97,7.17 7.97,7.17 7.96,7.17 7.97,7.17 7.96,7.17 7.97,7.17 7.97,7.17 7.96,7.17 7.97,7.17 7.97,7.17 7.96,7.17 7.97,7.17 7.97,7.17 7.96,7.17 7.97,7.17 7.96,7.16 7.97,7.17 7.97,7.17 7.96,7.17 7.97,7.17 7.97,7.17 7.96,7.17 7.97,7.17 7.96,7.17 7.97,7.17 7.97,7.17 7.96,7.17 7.97,7.17 7.97,7.17 7.96,7.17 7.97,7.17 7.97,7.17 7.96,7.17 7.97,7.17 7.96,7.17 7.97,7.17 7.97,7.17 7.96,7.17 7.97,7.17 7.97,7.17 7.96,7.17 7.97,7.17 7.97,7.17 7.96,7.17 7.97,7.17 7.96,7.17 7.97,7.17 7.97,7.17 7.96,7.16 7.97,7.17 7.97,7.17 7.96,7.17 7.97,7.17 7.96,7.17 7.97,7.17 7.97,7.17 7.96,7.17 7.97,7.17 7.97,7.17 7.96,7.17 7.97,7.17 7.97,7.17 7.96,7.17 7.97,7.17 7.96,7.17" />
      <path
         id="path937"
         style="fill:none;stroke:#0000ff;stroke-width:50;stroke-linecap:butt;stroke-linejoin:bevel;stroke-miterlimit:10;stroke-dasharray:50, 50;stroke-dashoffset:0;stroke-opacity:1"
         d="m 2727.24,2213.52 6.68,6.01 6.68,6.01 6.67,6.01 6.68,6.01 6.68,6 6.67,6.01 6.68,6.01 6.68,6.01 6.67,6.01 6.68,6.01 6.68,6.01 6.67,6.01 6.68,6.01 6.68,6 6.67,6.01 6.68,6.01 6.68,6.01 6.67,6.01 6.68,6.01 6.68,6.01 6.67,6.01 6.68,6.01 6.67,6 6.68,6.01 6.68,6.01 6.67,6.01 6.68,6.01 6.68,6.01 6.67,6.01 6.68,6.01 6.68,6.01 6.67,6 6.68,6.01 6.68,6.01 6.67,6.01 6.68,6.01 6.68,6.01 6.67,6.01 6.68,6.01 6.68,6.01 6.67,6 6.68,6.01 6.68,6.01 6.67,6.01 6.68,6.01 6.68,6.01 6.67,6.01 6.68,6.01 6.67,6.01 6.68,6 6.68,6.01 6.67,6.01 6.68,6.01 6.68,6.01 6.67,6.01 6.68,6.01 6.68,6.01 6.67,6.01 6.68,6 6.68,6.01 6.67,6.01 6.68,6.01 6.68,6.01 6.67,6.01 6.68,6.01 6.68,6.01 6.67,6.01 6.68,6 6.68,6.01 6.67,6.01 6.68,6.01 6.68,6.01 6.67,6.01 6.68,6.01 6.67,6.01 6.68,6.01 6.68,6 6.67,6.01 6.68,6.01 6.68,6.01 6.67,6.01 6.68,6.01 6.68,6.01 6.67,6.01 6.68,6.01 6.68,6 6.67,6.01 6.68,6.01 6.68,6.01 6.67,6.01 6.68,6.01 6.68,6.01 6.67,6.01 6.68,6.01 6.68,6 6.67,6.01 6.68,6.01 6.68,6.01 6.67,6.01" />
      <path
         id="path939"
         style="fill:#000000;fill-opacity:1;fill-rule:nonzero;stroke:none"
         d="m 2026.58,1503.72 c 0,48.6 -39.4,88 -88,88 -48.6,0 -88,-39.4 -88,-88 0,-48.6 39.4,-88 88,-88 48.6,0 88,39.4 88,88" />
      <path
         id="path941"
         style="fill:#000000;fill-opacity:1;fill-rule:nonzero;stroke:none"
         d="m 1938.58,1589.22 c 47.22,0 85.5,-38.28 85.5,-85.5 v 0 c 0,-47.22 -38.28,-85.5 -85.5,-85.5 -47.22,0 -85.5,38.28 -85.5,85.5 0,47.22 38.28,85.5 85.5,85.5 z m 0,5 c -49.98,0 -90.5,-40.52 -90.5,-90.5 0,-49.98 40.52,-90.5 90.5,-90.5 49.98,0 90.5,40.52 90.5,90.5 v 0 c 0,49.98 -40.52,90.5 -90.5,90.5" />
      <path
         id="path943"
         style="fill:#000000;fill-opacity:1;fill-rule:nonzero;stroke:none"
         d="m 2815.25,2213.52 c 0,48.6 -39.41,88 -88,88 -48.61,0 -88,-39.4 -88,-88 0,-48.6 39.39,-88 88,-88 48.59,0 88,39.4 88,88" />
      <path
         id="path945"
         style="fill:#000000;fill-opacity:1;fill-rule:nonzero;stroke:none"
         d="m 2727.25,2299.02 c 47.21,0 85.5,-38.28 85.5,-85.5 v 0 c 0,-47.22 -38.29,-85.5 -85.5,-85.5 -47.23,0 -85.5,38.28 -85.5,85.5 0,47.22 38.27,85.5 85.5,85.5 z m 0,5 c -49.98,0 -90.5,-40.52 -90.5,-90.5 0,-49.98 40.52,-90.5 90.5,-90.5 49.98,0 90.5,40.52 90.5,90.5 v 0 c 0,49.98 -40.52,90.5 -90.5,90.5" />
    </g>
    <path
       id="path97222"
       d="m 140.22917,78.052083 c 23.8125,0 23.8125,0 23.8125,0"
       style="fill:none;stroke:#000000;stroke-width:0.948683;stroke-linecap:butt;stroke-linejoin:miter;stroke-miterlimit:4;stroke-dasharray:none;stroke-opacity:1" />
    <path
       id="path97785"
       d="m 152.13541,64.822913 c 0,26.45834 0,26.45834 0,26.45834"
       style="fill:none;stroke:#000000;stroke-width:1;stroke-linecap:butt;stroke-linejoin:miter;stroke-miterlimit:4;stroke-dasharray:none;stroke-opacity:1" />
    <path
       style="fill:none;stroke:#000000;stroke-width:1;stroke-linecap:butt;stroke-linejoin:miter;stroke-miterlimit:4;stroke-dasharray:none;stroke-opacity:1"
       d="m 138.90626,107.15625 c 26.45833,0 26.45833,0 26.45833,0"
       id="path97222-7" />
    <path
       style="fill:none;stroke:#000000;stroke-width:0.894427;stroke-linecap:butt;stroke-linejoin:miter;stroke-miterlimit:4;stroke-dasharray:none;stroke-opacity:1"
       d="m 152.13542,96.572917 c 0,21.166663 0,21.166663 0,21.166663"
       id="path97785-1" />
    <circle
       r="1.991127"
       cy="70.230309"
       cx="151.98267"
       id="path97805"
       style="fill:#ff0000;fill-opacity:1;stroke:#ff0000;stroke-width:1.5051;stroke-miterlimit:4;stroke-dasharray:none;stroke-opacity:1" />
    <circle
       style="fill:#ff0000;fill-opacity:1;stroke:#ff0000;stroke-width:1.5051;stroke-miterlimit:4;stroke-dasharray:none;stroke-opacity:1"
       id="path97805-4"
       cx="152.24155"
       cy="85.728065"
       r="1.991127" />
    <circle
       style="fill:#0000ff;fill-opacity:1;stroke:#0000ff;stroke-width:1.5051;stroke-miterlimit:4;stroke-dasharray:none;stroke-opacity:1"
       id="path97805-0"
       cx="144.28703"
       cy="107.22725"
       r="1.991127" />
    <circle
       r="1.991127"
       cy="107.0033"
       cx="159.79968"
       id="path97805-0-9"
       style="fill:#0000ff;fill-opacity:1;stroke:#0000ff;stroke-width:1.5051;stroke-miterlimit:4;stroke-dasharray:none;stroke-opacity:1" />
    <path
       id="path120980"
       d="m 214.3125,18.520833 c 0,108.479177 0,108.479177 0,108.479177"
       style="fill:none;stroke:#000000;stroke-width:1;stroke-linecap:butt;stroke-linejoin:miter;stroke-miterlimit:4;stroke-dasharray:none;stroke-opacity:1" />
    <path
       id="path121545"
       d="m 198.4375,71.4375 c 31.75,0 31.75,0 31.75,0"
       style="fill:none;stroke:#000000;stroke-width:1;stroke-linecap:butt;stroke-linejoin:miter;stroke-miterlimit:4;stroke-dasharray:none;stroke-opacity:1" />
    <circle
       r="2.6458333"
       cy="47.047253"
       cx="214.13506"
       id="path121547"
       style="fill:#ffffff;fill-opacity:1;stroke:#0000ff;stroke-width:1;stroke-miterlimit:4;stroke-dasharray:none" />
    <circle
       style="fill:#ffffff;fill-opacity:1;stroke:#0000ff;stroke-width:1;stroke-miterlimit:4;stroke-dasharray:none"
       id="path121547-6"
       cx="214.28148"
       cy="24.630125"
       r="2.6458333" />
    <circle
       r="2.6458333"
       cy="95.933685"
       cx="214.19749"
       id="path121547-6-0"
       style="fill:#ffffff;fill-opacity:1;stroke:#0000ff;stroke-width:1;stroke-miterlimit:4;stroke-dasharray:none" />
    <circle
       r="2.6458333"
       cy="119.5328"
       cx="214.27847"
       id="path121547-6-7"
       style="fill:#ffffff;fill-opacity:1;stroke:#0000ff;stroke-width:1;stroke-miterlimit:4;stroke-dasharray:none" />
    <circle
       style="fill:#ff0000;fill-opacity:1;stroke:#ff0000;stroke-width:1;stroke-miterlimit:4;stroke-dasharray:none;stroke-opacity:1"
       id="path121547-66"
       cx="214.14754"
       cy="56.207211"
       r="2.6458333" />
    <circle
       r="2.6458333"
       cy="86.575821"
       cx="214.12654"
       id="path121547-66-0"
       style="fill:#ff0000;fill-opacity:1;stroke:#ff0000;stroke-width:1;stroke-miterlimit:4;stroke-dasharray:none;stroke-opacity:1" />
    <rect
       style="fill:#000000;fill-opacity:1;stroke:#000000;stroke-width:0.264583"
       id="rect23885"
       width="5.2916665"
       height="5.2916665"
       x="211.66666"
       y="68.791664" />
  </g>
</svg>
