<?xml version="1.0" encoding="UTF-8" standalone="no"?>
<svg
   xmlns:dc="http://purl.org/dc/elements/1.1/"
   xmlns:cc="http://creativecommons.org/ns#"
   xmlns:rdf="http://www.w3.org/1999/02/22-rdf-syntax-ns#"
   xmlns:svg="http://www.w3.org/2000/svg"
   xmlns="http://www.w3.org/2000/svg"
   xmlns:sodipodi="http://sodipodi.sourceforge.net/DTD/sodipodi-0.dtd"
   xmlns:inkscape="http://www.inkscape.org/namespaces/inkscape"
   width="210mm"
   height="297mm"
   viewBox="0 0 210 297"
   version="1.1"
   id="svg5114"
   inkscape:version="1.0 (4035a4f, 2020-05-01)"
   sodipodi:docname="2pitchforkcoloreig2.svg">
  <defs
     id="defs5108" />
  <sodipodi:namedview
     id="base"
     pagecolor="#ffffff"
     bordercolor="#666666"
     borderopacity="1.0"
     inkscape:pageopacity="0.0"
     inkscape:pageshadow="2"
     inkscape:zoom="0.36510487"
     inkscape:cx="205.85649"
     inkscape:cy="660.12452"
     inkscape:document-units="mm"
     inkscape:current-layer="layer1"
     inkscape:document-rotation="0"
     showgrid="true"
     inkscape:window-width="1252"
     inkscape:window-height="943"
     inkscape:window-x="59"
     inkscape:window-y="23"
     inkscape:window-maximized="0">
    <inkscape:grid
       type="xygrid"
       id="grid5116" />
  </sodipodi:namedview>
  <metadata
     id="metadata5111">
    <rdf:RDF>
      <cc:Work
         rdf:about="">
        <dc:format>image/svg+xml</dc:format>
        <dc:type
           rdf:resource="http://purl.org/dc/dcmitype/StillImage" />
        <dc:title />
      </cc:Work>
    </rdf:RDF>
  </metadata>
  <g
     inkscape:label="Layer 1"
     inkscape:groupmode="layer"
     id="layer1">
    <g
       transform="matrix(0.03527778,0,0,-0.03527778,-23.34543,146.92137)"
       id="g23889">
      <path
         id="path23891"
         style="fill:#ffffff;fill-opacity:1;fill-rule:nonzero;stroke:none"
         d="M 0,0 H 5600 V 4200 H 0 Z" />
      <path
         id="path23893"
         style="fill:#ffffff;fill-opacity:1;fill-rule:nonzero;stroke:none"
         d="M 0,0 H 5600 V 4200 H 0 Z" />
      <path
         id="path23895"
         style="fill:#ffffff;fill-opacity:1;fill-rule:nonzero;stroke:none"
         d="M 1185,460 H 4615 V 3890 H 1185 Z" />
      <path
         id="path23897"
         style="fill:none;stroke:#262626;stroke-width:20;stroke-linecap:square;stroke-linejoin:round;stroke-miterlimit:10;stroke-dasharray:none;stroke-opacity:1"
         d="M 1185,460 H 4615" />
      <g
         transform="scale(10)"
         id="g23899">
        <text
           id="text23903"
           style="font-style:oblique;font-variant:normal;font-size:22px;font-family:Helvetica;-inkscape-font-specification:Helvetica-Oblique;writing-mode:lr-tb;fill:#262626;fill-opacity:1;fill-rule:nonzero;stroke:none"
           transform="matrix(1,0,0,-1,278,18)"><tspan
             id="tspan23901"
             y="0"
             x="0">X</tspan></text>
        <text
           id="text23907"
           style="font-style:oblique;font-variant:normal;font-size:17.6px;font-family:Helvetica;-inkscape-font-specification:Helvetica-Oblique;writing-mode:lr-tb;fill:#262626;fill-opacity:1;fill-rule:nonzero;stroke:none"
           transform="matrix(1,0,0,-1,292,7)"><tspan
             id="tspan23905"
             y="0"
             x="0">1</tspan></text>
      </g>
      <path
         id="path23909"
         style="fill:none;stroke:#262626;stroke-width:20;stroke-linecap:square;stroke-linejoin:round;stroke-miterlimit:10;stroke-dasharray:none;stroke-opacity:1"
         d="M 1185,460 V 3890" />
      <g
         transform="scale(10)"
         id="g23911">
        <text
           id="text23915"
           style="font-style:oblique;font-variant:normal;font-size:22px;font-family:Helvetica;-inkscape-font-specification:Helvetica-Oblique;writing-mode:lr-tb;fill:#262626;fill-opacity:1;fill-rule:nonzero;stroke:none"
           transform="matrix(0,1,1,0,98,206)"><tspan
             id="tspan23913"
             y="0"
             x="0">X</tspan></text>
        <text
           id="text23919"
           style="font-style:oblique;font-variant:normal;font-size:17.6px;font-family:Helvetica;-inkscape-font-specification:Helvetica-Oblique;writing-mode:lr-tb;fill:#262626;fill-opacity:1;fill-rule:nonzero;stroke:none"
           transform="matrix(0,1,1,0,109,220)"><tspan
             id="tspan23917"
             y="0"
             x="0">0</tspan></text>
      </g>
      <path
         id="path23921"
         style="fill:none;stroke:#0000ff;stroke-width:50;stroke-linecap:butt;stroke-linejoin:bevel;stroke-miterlimit:10;stroke-dasharray:50, 50;stroke-dashoffset:0;stroke-opacity:1"
         d="m 2193.42,1463.96 2.26,-0.34 2.27,-0.56 2.26,-0.7 2.27,-4.33 2.26,-2.55 2.27,-2.35 2.26,-2.28 2.27,-2.21 2.26,-2.37 2.27,-2.19 2.26,-2.22 2.27,-2.24 2.26,-2.16 2.27,-2.25 2.26,-2.12 2.26,-2.18 2.27,-2.23 2.26,-2.14 2.27,-2.21 2.26,-2.12 2.27,-2.28 2.26,-2.11 2.27,-2.17 2.26,-2.11 2.27,-2.09 2.26,-2.16 2.27,-2.16 2.26,-2.15 2.27,-2.06 2.26,-2.22 2.27,-2.05 2.26,-2.13 2.26,-2.12 2.27,-2.11 2.26,-2.02 2.27,-2.18 2.26,-2.06 2.27,-2.11 2.26,-2.08 2.27,-2.07 2.26,-2.07 2.27,-2.06 2.26,-2.05 2.27,-2.13 2.26,-1.96 2.27,-2.11 2.26,-1.95 2.27,-2.1 2.26,-2.02 2.26,-2.01 2.27,-2.05 2.26,-2.02 2.27,-2 2.26,-1.98 2.27,-2.06 2.26,-1.97 2.27,-1.97 2.26,-2.04 2.27,-2.03 2.26,-1.87 2.27,-2.02 2.26,-2.02 2.27,-1.86 2.26,-2 2.27,-1.99 2.26,-1.99 2.26,-1.91 2.27,-1.91 2.26,-1.97 2.27,-1.97 2.26,-1.89 2.27,-1.89 2.26,-1.94 2.27,-1.94 2.26,-1.94 2.27,-1.86 2.26,-1.93 2.27,-1.84 2.26,-1.92 2.27,-1.93 2.26,-1.81 2.26,-1.91 2.27,-1.89 2.26,-1.89 2.27,-1.81 2.26,-1.89 2.27,-1.79 2.26,-1.87 2.27,-1.86 2.26,-1.86 2.27,-1.86 2.26,-1.78 2.27,-1.83 2.26,-1.75 2.27,-1.85 2.26,-1.82 2.27,-1.82 2.26,-1.82 2.26,-1.81 2.27,-1.81 2.26,-1.73 2.27,-1.71 2.26,-1.8 2.27,-1.78 2.26,-1.78 2.27,-1.78 2.26,-1.77 2.27,-1.77 2.26,-1.62 2.27,-1.75 2.26,-1.75 2.27,-1.74 2.26,-1.75 2.26,-1.73 2.27,-1.74 2.26,-1.57 2.27,-1.73 2.26,-1.72 2.27,-1.71 2.26,-1.71 2.27,-1.67 2.26,-1.61 2.27,-1.67 2.26,-1.69 2.27,-1.69 2.26,-1.67 2.27,-1.53 2.26,-1.68 2.27,-1.67 2.26,-1.66 2.26,-1.56 2.27,-1.61 2.26,-1.65 2.27,-1.58 2.26,-1.56 2.27,-1.64 2.26,-1.64 2.27,-1.47 2.26,-1.63 2.27,-1.63 2.26,-1.46 2.27,-1.61 2.26,-1.53 2.27,-1.54 2.26,-1.6 2.27,-1.47 2.26,-1.57 2.26,-1.52 2.27,-1.5 2.26,-1.51 2.27,-1.5 2.26,-1.5 2.27,-1.5 2.26,-1.49 2.27,-1.48 2.26,-1.42 2.27,-1.55 2.26,-1.4 2.27,-1.47 2.26,-1.47 2.27,-1.39 2.26,-1.47 2.27,-1.46 2.26,-1.37 2.26,-1.38 2.27,-1.44 2.26,-1.38 2.27,-1.43 2.26,-1.37 2.27,-1.36 2.26,-1.36 2.27,-1.35 2.26,-1.35 2.27,-1.41 2.26,-1.35 2.27,-1.3 2.26,-1.3 2.27,-1.34 2.26,-1.32 2.26,-1.33 2.27,-1.32 2.26,-1.27 2.27,-1.3 2.26,-1.24 2.27,-1.31 2.26,-1.23 2.27,-1.25 2.26,-1.29 2.27,-1.22 2.26,-1.23 2.27,-1.28 2.26,-1.16 2.27,-1.21 2.26,-1.21 2.27,-1.21 2.26,-1.21 2.26,-1.13 2.27,-1.2 2.26,-1.19 2.27,-1.13 2.26,-1.11 2.27,-1.2 2.26,-1.12 2.27,-1.1 2.26,-1.12 2.27,-1.1 2.26,-1.1 2.27,-1.12 2.26,-1.09 2.27,-1.03 2.26,-1.09 2.26,-1.05 2.27,-1.07 2.26,-1.01 2.27,-1.07 2.26,-0.95 2.27,-1.09 2.26,-0.97 2.27,-0.99 2.26,-0.97 2.27,-1.01 2.26,-1 2.27,-0.92 2.26,-0.93 2.27,-0.92 2.26,-0.99 2.27,-0.92 2.26,-0.92 2.26,-0.9 2.27,-0.86 2.26,-0.91 2.27,-0.88 2.26,-0.89 2.27,-0.83 2.26,-0.85 2.27,-0.83 2.26,-0.83 2.27,-0.85 2.26,-0.79 2.27,-0.8 2.26,-0.84 2.27,-0.75 2.26,-0.74 2.26,-0.8 2.27,-0.77 2.26,-0.68 2.27,-0.76 2.26,-0.7 2.27,-0.73 2.26,-0.72 2.27,-0.69 2.26,-0.67 2.27,-0.71 2.26,-0.62 2.27,-0.68 2.26,-0.61 2.27,-0.69 2.26,-0.61 2.27,-0.61 2.26,-0.55 2.26,-0.6 2.27,-0.62 2.26,-0.55 2.27,-0.55 2.26,-0.55 2.27,-0.58 2.26,-0.55 2.27,-0.48 2.26,-0.53 2.27,-0.48 2.26,-0.46 2.27,-0.49 2.26,-0.47 2.27,-0.46 2.26,-0.47 2.27,-0.4 2.26,-0.43 2.26,-0.45 2.27,-0.39 2.26,-0.39 2.27,-0.39 2.26,-0.36 2.27,-0.37 2.26,-0.28 2.27,-0.39 2.26,-0.34 2.27,-0.3 2.26,-0.28 2.27,-0.34 2.26,-0.28 2.27,-0.25 2.26,-0.25 2.27,-0.26 2.26,-0.26 2.26,-0.25 2.27,-0.19 2.26,-0.19 2.27,-0.26 2.26,-0.19 2.27,-0.19 2.26,-0.13 2.27,-0.12 2.26,-0.2 2.27,-0.13 2.26,-0.12 2.27,-0.14 2.26,-0.07 2.27,-0.11 2.26,-0.13 2.26,0.01 2.27,-0.14 h 2.26 l 2.27,-0.06 2.26,-0.07 h 2.27 2.26 2.27 2.26 2.27 l 2.26,0.01 2.27,0.06 2.26,0.06 2.27,0.07 2.26,0.06 2.27,0.05 2.26,0.07 2.26,0.13 2.27,0.13 2.26,0.13 2.27,0.13 2.26,0.13 2.27,0.12 2.26,0.13 2.27,0.17 2.26,0.22 2.27,0.12 2.26,0.26 2.27,0.18 2.26,0.19 2.27,0.25 2.26,0.22 2.26,0.21 2.27,0.22 2.26,0.28 2.27,0.28 2.26,0.28 2.27,0.29 2.26,0.28 2.27,0.26 2.26,0.35 2.27,0.27 2.26,0.4 2.27,0.27 2.26,0.36 2.27,0.39 2.26,0.34 2.27,0.37 2.26,0.36 2.26,0.4 2.27,0.4 2.26,0.4 2.27,0.39 2.26,0.4 2.27,0.4 2.26,0.45 2.27,0.46 2.26,0.41 2.27,0.48 2.26,0.45 2.27,0.49 2.26,0.46 2.27,0.51 2.26,0.46 2.27,0.46 2.26,0.51 2.26,0.51 2.27,0.52 2.26,0.52 2.27,0.51 2.26,0.59 2.27,0.51 2.26,0.57 2.27,0.51 2.26,0.6 2.27,0.56 2.26,0.59 2.27,0.56 2.26,0.59 2.27,0.56 2.26,0.58 2.26,0.64 2.27,0.62 2.26,0.63 2.27,0.61 2.26,0.63 2.27,0.63 2.26,0.62 2.27,0.62 2.26,0.61 2.27,0.69 2.26,0.69 2.27,0.61 2.26,0.67 2.27,0.7 2.26,0.63 2.27,0.72 2.26,0.67 2.26,0.68 2.27,0.67 2.26,0.68 2.27,0.73 2.26,0.73 2.27,0.7 2.26,0.69 2.27,0.69 2.26,0.72 2.27,0.74 2.26,0.73 2.27,0.72 2.26,0.73 2.27,0.72 2.26,0.75 2.27,0.78 2.26,0.74 2.26,0.77 2.27,0.72 2.26,0.78 2.27,0.75 2.26,0.76 2.27,0.76 2.26,0.81 2.27,0.71 2.26,0.77 2.27,0.79 2.26,0.78 2.27,0.77 2.26,0.78 2.27,0.77 2.26,0.85 2.26,0.77 2.27,0.77 2.26,0.77 2.27,0.78 2.26,0.83 2.27,0.81 2.26,0.8 2.27,0.76 2.26,0.84 2.27,0.83 2.26,0.76 2.27,0.84 2.26,0.76 2.27,0.83 2.26,0.82 2.27,0.83 2.26,0.76 2.26,0.82 2.27,0.83 2.26,0.82 2.27,0.76 2.26,0.82 2.27,0.82 2.26,0.82 2.27,0.82 2.26,0.82 2.27,0.82 2.26,0.81 2.27,0.82 2.26,0.81 2.27,0.82 2.26,0.81 2.26,0.81 2.27,0.81 2.26,0.81 2.27,0.81 2.26,0.81 2.27,0.81 2.26,0.81 2.27,0.87 2.26,0.81 2.27,0.8 2.26,0.81 2.27,0.8 2.26,0.8 2.27,0.8 2.26,0.8 2.27,0.8 2.26,0.8 2.26,0.86 2.27,0.8 2.26,0.8 2.27,0.79 2.26,0.8 2.27,0.79 2.26,0.8 2.27,0.72 2.26,0.79 2.27,0.79 2.26,0.79 2.27,0.79 2.26,0.78 2.27,0.72 2.26,0.79 2.27,0.78 2.26,0.79 2.26,0.78 2.27,0.78 2.26,0.71 2.27,0.78 2.26,0.72 2.27,0.77 2.26,0.78 2.27,0.71 2.26,0.73 2.27,0.75 2.26,0.78 2.27,0.7 2.26,0.71 2.27,0.77 2.26,0.7 2.26,0.7 2.27,0.77 2.26,0.66 2.27,0.74 2.26,0.7 2.27,0.69 2.26,0.69 2.27,0.7 2.26,0.7 2.27,0.68 2.26,0.62 2.27,0.77 2.26,0.62 2.27,0.64 2.26,0.73 2.27,0.62 2.26,0.61 2.26,0.68 2.27,0.66 2.26,0.65 2.27,0.61 2.26,0.6 2.27,0.63 2.26,0.6 2.27,0.64 2.26,0.58 2.27,0.6 2.26,0.6 2.27,0.61 2.26,0.6 2.27,0.61 2.26,0.6 2.26,0.55 2.27,0.51 2.26,0.6 2.27,0.57 2.26,0.5 2.27,0.57 2.26,0.53 2.27,0.51 2.26,0.58 2.27,0.46 2.26,0.56 2.27,0.49 2.26,0.45 2.27,0.58 2.26,0.44 2.27,0.43 2.26,0.55 2.26,0.47 2.27,0.48 2.26,0.42 2.27,0.44 2.26,0.44 2.27,0.43 2.26,0.44 2.27,0.43 2.26,0.44 2.27,0.43 2.26,0.36 2.27,0.35 2.26,0.43 2.27,0.36 2.26,0.35 2.27,0.43 2.26,0.29 2.26,0.42 2.27,0.29 2.26,0.34 2.27,0.37 2.26,0.3 2.27,0.32 2.26,0.31 2.27,0.28 2.26,0.33 2.27,0.28 2.26,0.27 2.27,0.28 2.26,0.21 2.27,0.3 2.26,0.31 2.26,0.15 2.27,0.26 2.26,0.28 2.27,0.13 2.26,0.28 2.27,0.16 2.26,0.24 2.27,0.2 2.26,0.14 2.27,0.17 2.26,0.14 2.27,0.19 2.26,0.21 2.27,0.12 2.26,0.12 2.27,0.12 2.26,0.12 2.26,0.11 2.27,0.15 2.26,0.12 2.27,0.02 2.26,0.15 2.27,-0.01 2.26,0.15 h 2.27 l 2.26,0.15 2.27,-0.01 h 2.26 l 2.27,0.07 2.26,0.08 h 2.27 2.26 2.27 2.26 2.26 l 2.27,-0.01 2.26,-0.06 2.27,-0.08 h 2.26 l 2.27,0.01 2.26,-0.15 h 2.27 l 2.26,-0.15 h 2.27 l 2.26,-0.15 2.27,0.02 2.26,-0.15 2.27,-0.15 2.26,-0.09 2.26,-0.05 2.27,-0.14 2.26,-0.15 2.27,-0.14 2.26,-0.15 2.27,-0.14 2.26,-0.14 2.27,-0.14 2.26,-0.16 2.27,-0.25 2.26,-0.18 2.27,-0.15 2.26,-0.22 2.27,-0.2 2.26,-0.18 2.27,-0.26 2.26,-0.13 2.26,-0.29 2.27,-0.25 2.26,-0.18 2.27,-0.3 2.26,-0.22 2.27,-0.19 2.26,-0.3 2.27,-0.28 2.26,-0.28 2.27,-0.3 2.26,-0.3 2.27,-0.24 2.26,-0.3 2.27,-0.31 2.26,-0.29 2.27,-0.27 2.26,-0.35 2.26,-0.3 2.27,-0.36 2.26,-0.29 2.27,-0.37 2.26,-0.3 2.27,-0.32 2.26,-0.37 2.27,-0.36 2.26,-0.35 2.27,-0.32 2.26,-0.44 2.27,-0.3 2.26,-0.44 2.27,-0.3 2.26,-0.44 2.26,-0.34 2.27,-0.41 2.26,-0.41 2.27,-0.35 2.26,-0.42 2.27,-0.44 2.26,-0.37 2.27,-0.36 2.26,-0.43 2.27,-0.44 2.26,-0.43 2.27,-0.44 2.26,-0.43 2.27,-0.43 2.26,-0.43 2.27,-0.42 2.26,-0.42 2.26,-0.43 2.27,-0.48 2.26,-0.5 2.27,-0.44 2.26,-0.42 2.27,-0.41 2.26,-0.49 2.27,-0.5 2.26,-0.41 2.27,-0.49 2.26,-0.48 2.27,-0.42 2.26,-0.56 2.27,-0.4 2.26,-0.56 2.26,-0.4 2.27,-0.56 2.26,-0.39 2.27,-0.56 2.26,-0.47 2.27,-0.48 2.26,-0.49 2.27,-0.45 2.26,-0.55 2.27,-0.46 2.26,-0.47 2.27,-0.55 2.26,-0.53 2.27,-0.47 2.26,-0.47 2.27,-0.53 2.26,-0.53 2.26,-0.46 2.27,-0.54 2.26,-0.45 2.27,-0.53 2.26,-0.53 2.27,-0.53 2.26,-0.52 2.27,-0.46 2.26,-0.52 2.27,-0.52 2.26,-0.5 2.27,-0.48 2.26,-0.52 2.27,-0.52 2.26,-0.51 2.27,-0.52 2.26,-0.51 2.26,-0.52 2.27,-0.51 2.26,-0.51 2.27,-0.51 2.26,-0.51 2.27,-0.51 2.26,-0.51 2.27,-0.51 2.26,-0.5 2.27,-0.53 2.26,-0.55 2.27,-0.51 2.26,-0.5 2.27,-0.5 2.26,-0.49 2.27,-0.58 2.26,-0.49 2.26,-0.5 2.27,-0.5 2.26,-0.49 2.27,-0.49 2.26,-0.5 2.27,-0.49 2.26,-0.48 2.27,-0.57 2.26,-0.49 2.27,-0.49 2.26,-0.48 2.27,-0.56 2.26,-0.48 2.27,-0.49 2.26,-0.48 2.26,-0.48 2.27,-0.48 2.26,-0.48 2.27,-0.48 2.26,-0.48 2.27,-0.48 2.26,-0.47 2.27,-0.48 2.26,-0.47 2.27,-0.48 2.26,-0.47 2.27,-0.47 2.26,-0.47 2.27,-0.47 2.26,-0.47 2.27,-0.47 2.26,-0.46 2.26,-0.47 2.27,-0.46 2.26,-0.47 2.27,-0.46 2.26,-0.46 2.27,-0.46 2.26,-0.46 2.27,-0.39 2.26,-0.46 2.27,-0.47 2.26,-0.38 2.27,-0.46 2.26,-0.45 2.27,-0.45 2.26,-0.39 2.26,-0.46 2.27,-0.38 2.26,-0.45 2.27,-0.45 2.26,-0.38 2.27,-0.37 2.26,-0.45 2.27,-0.43 2.26,-0.4 2.27,-0.37 2.26,-0.44 2.27,-0.36 2.26,-0.4 2.27,-0.38 2.26,-0.36 2.27,-0.45 2.26,-0.37 2.26,-0.36 2.27,-0.37 2.26,-0.37 2.27,-0.36 2.26,-0.37 2.27,-0.38 2.26,-0.35 2.27,-0.36 2.26,-0.38 2.27,-0.31 2.26,-0.41 2.27,-0.29 2.26,-0.35 2.27,-0.35 2.26,-0.3 2.27,-0.32 2.26,-0.35 2.26,-0.34 2.27,-0.29 2.26,-0.35 2.27,-0.35 2.26,-0.27 2.27,-0.3 2.26,-0.29 2.27,-0.3 2.26,-0.28 2.27,-0.35 2.26,-0.28 2.27,-0.27 2.26,-0.27 2.27,-0.27 2.26,-0.28 2.26,-0.27 2.27,-0.27 2.26,-0.27 2.27,-0.27 2.26,-0.24 2.27,-0.28 2.26,-0.24 2.27,-0.28 2.26,-0.18 2.27,-0.28 2.26,-0.25 2.27,-0.22 2.26,-0.19 2.27,-0.25 2.26,-0.23 2.27,-0.2 2.26,-0.25 2.26,-0.18 2.27,-0.21 2.26,-0.24 2.27,-0.15 2.26,-0.21 2.27,-0.17 2.26,-0.19 2.27,-0.19 2.26,-0.2 2.27,-0.19 2.26,-0.13 2.27,-0.2 2.26,-0.13 2.27,-0.2 2.26,-0.12 2.27,-0.15 2.26,-0.17 2.26,-0.12 2.27,-0.13 2.26,-0.13 2.27,-0.13 2.26,-0.19 2.27,-0.07 2.26,-0.14 2.27,-0.13 2.26,-0.13 2.27,-0.08 2.26,-0.13 2.27,-0.06 2.26,-0.13 2.27,-0.11 2.26,-0.1 2.26,-0.06 2.27,-0.14 2.26,-0.06 2.27,-0.08 2.26,-0.06 2.27,-0.06 2.26,-0.07 2.27,-0.07 2.26,-0.04 2.27,-0.05 2.26,-0.04 2.27,-0.07 2.26,-0.05 2.27,-0.02 2.26,-0.01 2.27,-0.05 2.26,-0.07 h 2.26 2.27 2.26 l 2.27,-0.05 2.26,-0.02 h 2.27 2.26 2.27 2.26 2.27 l 2.26,0.07 h 2.27 2.26 2.27 l 2.26,0.08 2.27,-0.01 2.26,0.07 h 2.26 l 2.27,0.07 2.26,0.05 2.27,0.01 2.26,0.07 2.27,0.07 2.26,0.02 2.27,0.11 2.26,-0.01 2.27,0.09 2.26,0.05 2.27,0.1 2.26,0.04 2.27,0.13 2.26,0.09 2.26,0.04 2.27,0.14 2.26,0.08 2.27,0.1 2.26,0.09 2.27,0.12 2.26,0.12 2.27,0.09 2.26,0.11 2.27,0.1 2.26,0.12 2.27,0.14 2.26,0.13 2.27,0.11 2.26,0.16 2.27,0.11 2.26,0.09 2.26,0.18 2.27,0.16 2.26,0.1 2.27,0.16 2.26,0.14 2.27,0.14" />
      <path
         id="path23923"
         style="fill:none;stroke:#0000ff;stroke-width:50;stroke-linecap:butt;stroke-linejoin:bevel;stroke-miterlimit:10;stroke-dasharray:50, 50;stroke-dashoffset:0;stroke-opacity:1"
         d="m 2188.96,1468.42 -0.34,2.26 -0.56,2.27 -0.7,2.26 -4.33,2.27 -2.55,2.26 -2.35,2.27 -2.28,2.26 -2.21,2.27 -2.37,2.26 -2.19,2.27 -2.22,2.26 -2.24,2.27 -2.16,2.26 -2.25,2.27 -2.12,2.26 -2.18,2.27 -2.23,2.26 -2.14,2.26 -2.21,2.27 -2.12,2.26 -2.28,2.27 -2.11,2.26 -2.17,2.27 -2.11,2.26 -2.09,2.27 -2.16,2.26 -2.16,2.27 -2.15,2.26 -2.06,2.27 -2.22,2.26 -2.05,2.27 -2.13,2.26 -2.12,2.26 -2.11,2.27 -2.02,2.26 -2.18,2.27 -2.06,2.26 -2.11,2.27 -2.08,2.26 -2.07,2.27 -2.07,2.26 -2.06,2.27 -2.05,2.26 -2.13,2.27 -1.96,2.26 -2.11,2.27 -1.95,2.26 -2.1,2.27 -2.02,2.26 -2.01,2.26 -2.05,2.27 -2.02,2.26 -2,2.27 -1.98,2.26 -2.06,2.27 -1.97,2.26 -1.97,2.27 -2.04,2.26 -2.03,2.27 -1.87,2.26 -2.02,2.27 -2.02,2.26 -1.86,2.27 -2,2.26 -1.99,2.26 -1.99,2.27 -1.91,2.26 -1.91,2.27 -1.97,2.26 -1.97,2.27 -1.89,2.26 -1.89,2.27 -1.94,2.26 -1.94,2.27 -1.94,2.26 -1.86,2.27 -1.93,2.26 -1.84,2.27 -1.92,2.26 -1.93,2.27 -1.81,2.26 -1.91,2.26 -1.89,2.27 -1.89,2.26 -1.81,2.27 -1.89,2.26 -1.79,2.27 -1.87,2.26 -1.86,2.27 -1.86,2.26 -1.86,2.27 -1.78,2.26 -1.83,2.27 -1.75,2.26 -1.85,2.27 -1.82,2.26 -1.82,2.27 -1.82,2.26 -1.81,2.26 -1.81,2.27 -1.73,2.26 -1.71,2.27 -1.8,2.26 -1.78,2.27 -1.78,2.26 -1.78,2.27 -1.77,2.26 -1.77,2.27 -1.62,2.26 -1.75,2.27 -1.75,2.26 -1.74,2.27 -1.75,2.26 -1.73,2.26 -1.74,2.27 -1.57,2.26 -1.73,2.27 -1.72,2.26 -1.71,2.27 -1.71,2.26 -1.67,2.27 -1.61,2.26 -1.67,2.27 -1.69,2.26 -1.69,2.27 -1.67,2.26 -1.53,2.27 -1.68,2.26 -1.67,2.27 -1.66,2.26 -1.56,2.26 -1.61,2.27 -1.65,2.26 -1.58,2.27 -1.56,2.26 -1.64,2.27 -1.64,2.26 -1.47,2.27 -1.63,2.26 -1.63,2.27 -1.46,2.26 -1.61,2.27 -1.53,2.26 -1.54,2.27 -1.6,2.26 -1.47,2.27 -1.57,2.26 -1.52,2.26 -1.5,2.27 -1.51,2.26 -1.5,2.27 -1.5,2.26 -1.5,2.27 -1.49,2.26 -1.48,2.27 -1.42,2.26 -1.55,2.27 -1.4,2.26 -1.47,2.27 -1.47,2.26 -1.39,2.27 -1.47,2.26 -1.46,2.27 -1.37,2.26 -1.38,2.26 -1.44,2.27 -1.38,2.26 -1.43,2.27 -1.37,2.26 -1.36,2.27 -1.36,2.26 -1.35,2.27 -1.35,2.26 -1.41,2.27 -1.35,2.26 -1.3,2.27 -1.3,2.26 -1.33,2.27 -1.33,2.26 -1.33,2.26 -1.32,2.27 -1.27,2.26 -1.3,2.27 -1.24,2.26 -1.31,2.27 -1.23,2.26 -1.25,2.27 -1.29,2.26 -1.22,2.27 -1.23,2.26 -1.28,2.27 -1.16,2.26 -1.21,2.27 -1.21,2.26 -1.21,2.27 -1.21,2.26 -1.13,2.26 -1.2,2.27 -1.19,2.26 -1.13,2.27 -1.11,2.26 -1.2,2.27 -1.12,2.26 -1.1,2.27 -1.12,2.26 -1.1,2.27 -1.1,2.26 -1.12,2.27 -1.09,2.26 -1.03,2.27 -1.09,2.26 -1.05,2.26 -1.07,2.27 -1.01,2.26 -1.07,2.27 -0.95,2.26 -1.09,2.27 -0.97,2.26 -0.99,2.27 -0.97,2.26 -1.01,2.27 -1,2.26 -0.92,2.27 -0.93,2.26 -0.92,2.27 -0.99,2.26 -0.92,2.27 -0.92,2.26 -0.9,2.26 -0.86,2.27 -0.91,2.26 -0.88,2.27 -0.89,2.26 -0.83,2.27 -0.85,2.26 -0.83,2.27 -0.83,2.26 -0.85,2.27 -0.79,2.26 -0.8,2.27 -0.84,2.26 -0.75,2.27 -0.74,2.26 -0.8,2.26 -0.77,2.27 -0.68,2.26 -0.76,2.27 -0.7,2.26 -0.73,2.27 -0.72,2.26 -0.69,2.27 -0.67,2.26 -0.71,2.27 -0.62,2.26 -0.68,2.27 -0.61,2.26 -0.69,2.27 -0.61,2.26 -0.61,2.27 -0.55,2.26 -0.6,2.26 -0.62,2.27 -0.55,2.26 -0.55,2.27 -0.55,2.26 -0.58,2.27 -0.55,2.26 -0.48,2.27 -0.54,2.26 -0.47,2.27 -0.46,2.26 -0.49,2.27 -0.47,2.26 -0.46,2.27 -0.47,2.26 -0.4,2.27 -0.43,2.26 -0.45,2.26 -0.39,2.27 -0.39,2.26 -0.39,2.27 -0.36,2.26 -0.37,2.27 -0.28,2.26 -0.39,2.27 -0.34,2.26 -0.3,2.27 -0.28,2.26 -0.34,2.27 -0.28,2.26 -0.25,2.27 -0.25,2.26 -0.26,2.26 -0.26,2.27 -0.25,2.26 -0.19,2.27 -0.19,2.26 -0.26,2.27 -0.19,2.26 -0.19,2.27 -0.13,2.26 -0.12,2.27 -0.2,2.26 -0.13,2.27 -0.12,2.26 -0.14,2.27 -0.07,2.26 -0.11,2.27 -0.13,2.26 0.01,2.26 -0.14,2.27 v 2.26 l -0.06,2.27 -0.07,2.26 v 2.27 2.26 2.27 2.26 2.27 l 0.01,2.26 0.06,2.27 0.06,2.26 0.07,2.27 0.06,2.26 0.05,2.27 0.07,2.26 0.13,2.26 0.13,2.27 0.13,2.26 0.13,2.27 0.13,2.26 0.12,2.27 0.13,2.26 0.17,2.27 0.22,2.26 0.12,2.27 0.26,2.26 0.18,2.27 0.19,2.26 0.25,2.27 0.22,2.26 0.21,2.26 0.22,2.27 0.27,2.26 0.29,2.27 0.28,2.26 0.29,2.27 0.28,2.26 0.26,2.27 0.35,2.26 0.27,2.27 0.4,2.26 0.27,2.27 0.36,2.26 0.39,2.27 0.34,2.26 0.37,2.27 0.36,2.26 0.4,2.26 0.4,2.27 0.4,2.26 0.39,2.27 0.4,2.26 0.4,2.27 0.45,2.26 0.46,2.27 0.41,2.26 0.48,2.27 0.45,2.26 0.49,2.27 0.46,2.26 0.51,2.27 0.46,2.26 0.46,2.27 0.51,2.26 0.51,2.26 0.52,2.27 0.52,2.26 0.51,2.27 0.59,2.26 0.51,2.27 0.57,2.26 0.51,2.27 0.6,2.26 0.56,2.27 0.59,2.26 0.56,2.27 0.59,2.26 0.56,2.27 0.58,2.26 0.64,2.26 0.62,2.27 0.63,2.26 0.61,2.27 0.63,2.26 0.63,2.27 0.62,2.26 0.62,2.27 0.61,2.26 0.69,2.27 0.69,2.26 0.61,2.27 0.67,2.26 0.7,2.27 0.63,2.26 0.72,2.27 0.67,2.26 0.68,2.26 0.67,2.27 0.68,2.26 0.73,2.27 0.73,2.26 0.7,2.27 0.69,2.26 0.69,2.27 0.72,2.26 0.74,2.27 0.73,2.26 0.72,2.27 0.73,2.26 0.72,2.27 0.75,2.26 0.78,2.27 0.74,2.26 0.77,2.26 0.72,2.27 0.78,2.26 0.76,2.27 0.75,2.26 0.76,2.27 0.81,2.26 0.71,2.27 0.77,2.26 0.79,2.27 0.78,2.26 0.77,2.27 0.78,2.26 0.77,2.27 0.85,2.26 0.77,2.26 0.77,2.27 0.77,2.26 0.78,2.27 0.83,2.26 0.81,2.27 0.8,2.26 0.76,2.27 0.84,2.26 0.83,2.27 0.76,2.26 0.84,2.27 0.76,2.26 0.83,2.27 0.82,2.26 0.83,2.27 0.76,2.26 0.82,2.26 0.83,2.27 0.82,2.26 0.76,2.27 0.82,2.26 0.82,2.27 0.82,2.26 0.82,2.27 0.82,2.26 0.82,2.27 0.81,2.26 0.82,2.27 0.81,2.26 0.82,2.27 0.81,2.26 0.81,2.26 0.81,2.27 0.81,2.26 0.81,2.27 0.81,2.26 0.81,2.27 0.81,2.26 0.87,2.27 0.81,2.26 0.8,2.27 0.81,2.26 0.8,2.27 0.8,2.26 0.8,2.27 0.8,2.26 0.8,2.27 0.8,2.26 0.86,2.26 0.8,2.27 0.8,2.26 0.79,2.27 0.8,2.26 0.79,2.27 0.8,2.26 0.72,2.27 0.79,2.26 0.79,2.27 0.79,2.26 0.79,2.27 0.78,2.26 0.72,2.27 0.79,2.26 0.78,2.27 0.79,2.26 0.78,2.26 0.78,2.27 0.71,2.26 0.78,2.27 0.72,2.26 0.77,2.27 0.78,2.26 0.71,2.27 0.73,2.26 0.75,2.27 0.78,2.26 0.7,2.27 0.71,2.26 0.77,2.27 0.7,2.26 0.7,2.27 0.77,2.26 0.66,2.26 0.74,2.27 0.7,2.26 0.69,2.27 0.69,2.26 0.7,2.27 0.7,2.26 0.68,2.27 0.62,2.26 0.77,2.27 0.62,2.26 0.64,2.27 0.73,2.26 0.62,2.27 0.61,2.26 0.68,2.26 0.66,2.27 0.65,2.26 0.61,2.27 0.6,2.26 0.63,2.27 0.6,2.26 0.64,2.27 0.58,2.26 0.6,2.27 0.6,2.26 0.61,2.27 0.6,2.26 0.61,2.27 0.6,2.26 0.55,2.26 0.51,2.27 0.6,2.26 0.57,2.27 0.5,2.26 0.57,2.27 0.53,2.26 0.51,2.27 0.58,2.26 0.46,2.27 0.56,2.26 0.49,2.27 0.45,2.26 0.58,2.27 0.44,2.26 0.43,2.27 0.55,2.26 0.47,2.26 0.48,2.27 0.43,2.26 0.43,2.27 0.44,2.26 0.43,2.27 0.44,2.26 0.43,2.27 0.44,2.26 0.43,2.27 0.36,2.26 0.35,2.27 0.43,2.26 0.36,2.27 0.36,2.26 0.42,2.27 0.29,2.26 0.42,2.26 0.29,2.27 0.34,2.26 0.37,2.27 0.3,2.26 0.32,2.27 0.31,2.26 0.28,2.27 0.33,2.26 0.28,2.27 0.27,2.26 0.28,2.27 0.21,2.26 0.3,2.27 0.31,2.26 0.15,2.26 0.26,2.27 0.28,2.26 0.13,2.27 0.28,2.26 0.16,2.27 0.24,2.26 0.2,2.27 0.14,2.26 0.17,2.27 0.14,2.26 0.19,2.27 0.21,2.26 0.12,2.27 0.12,2.26 0.12,2.27 0.12,2.26 0.11,2.26 0.15,2.27 0.12,2.26 0.02,2.27 0.15,2.26 -0.01,2.27 0.15,2.26 v 2.27 l 0.15,2.26 -0.01,2.27 v 2.26 l 0.07,2.27 0.08,2.26 v 2.27 2.26 2.27 2.26 2.26 l -0.01,2.27 -0.06,2.26 -0.08,2.27 v 2.26 l 0.01,2.27 -0.15,2.26 v 2.27 l -0.15,2.26 v 2.27 l -0.15,2.26 0.02,2.27 -0.15,2.26 -0.15,2.27 -0.09,2.26 -0.05,2.27 -0.14,2.26 -0.15,2.26 -0.14,2.27 -0.15,2.26 -0.14,2.27 -0.14,2.26 -0.14,2.27 -0.16,2.26 -0.25,2.27 -0.18,2.26 -0.15,2.27 -0.22,2.26 -0.2,2.27 -0.18,2.26 -0.26,2.27 -0.13,2.26 -0.29,2.26 -0.24,2.27 -0.19,2.26 -0.3,2.27 -0.22,2.26 -0.19,2.27 -0.3,2.26 -0.28,2.27 -0.28,2.26 -0.3,2.27 -0.3,2.26 -0.24,2.27 -0.3,2.26 -0.31,2.27 -0.29,2.26 -0.27,2.27 -0.35,2.26 -0.3,2.26 -0.36,2.27 -0.29,2.26 -0.37,2.27 -0.3,2.26 -0.32,2.27 -0.37,2.26 -0.36,2.27 -0.35,2.26 -0.32,2.27 -0.44,2.26 -0.3,2.27 -0.44,2.26 -0.3,2.27 -0.44,2.26 -0.34,2.26 -0.41,2.27 -0.41,2.26 -0.35,2.27 -0.42,2.26 -0.44,2.27 -0.37,2.26 -0.36,2.27 -0.43,2.26 -0.44,2.27 -0.43,2.26 -0.44,2.27 -0.43,2.26 -0.43,2.27 -0.43,2.26 -0.42,2.27 -0.42,2.26 -0.43,2.26 -0.48,2.27 -0.5,2.26 -0.44,2.27 -0.42,2.26 -0.41,2.27 -0.49,2.26 -0.5,2.27 -0.41,2.26 -0.49,2.27 -0.48,2.26 -0.42,2.27 -0.56,2.26 -0.4,2.27 -0.56,2.26 -0.4,2.26 -0.56,2.27 -0.39,2.26 -0.56,2.27 -0.47,2.26 -0.48,2.27 -0.49,2.26 -0.45,2.27 -0.55,2.26 -0.46,2.27 -0.47,2.26 -0.55,2.27 -0.53,2.26 -0.47,2.27 -0.47,2.26 -0.53,2.27 -0.53,2.26 -0.46,2.26 -0.54,2.27 -0.45,2.26 -0.53,2.27 -0.53,2.26 -0.53,2.27 -0.52,2.26 -0.46,2.27 -0.52,2.26 -0.53,2.27 -0.49,2.26 -0.48,2.27 -0.52,2.26 -0.52,2.27 -0.51,2.26 -0.52,2.27 -0.51,2.26 -0.52,2.26 -0.51,2.27 -0.51,2.26 -0.51,2.27 -0.51,2.26 -0.51,2.27 -0.51,2.26 -0.51,2.27 -0.5,2.26 -0.53,2.27 -0.55,2.26 -0.51,2.27 -0.5,2.26 -0.5,2.27 -0.49,2.26 -0.58,2.27 -0.49,2.26 -0.5,2.26 -0.5,2.27 -0.49,2.26 -0.49,2.27 -0.5,2.26 -0.49,2.27 -0.48,2.26 -0.57,2.27 -0.49,2.26 -0.49,2.27 -0.48,2.26 -0.56,2.27 -0.48,2.26 -0.49,2.27 -0.48,2.26 -0.48,2.26 -0.48,2.27 -0.48,2.26 -0.48,2.27 -0.48,2.26 -0.48,2.27 -0.47,2.26 -0.48,2.27 -0.47,2.26 -0.48,2.27 -0.47,2.26 -0.47,2.27 -0.47,2.26 -0.47,2.27 -0.47,2.26 -0.47,2.27 -0.46,2.26 -0.47,2.26 -0.46,2.27 -0.47,2.26 -0.46,2.27 -0.46,2.26 -0.46,2.27 -0.46,2.26 -0.39,2.27 -0.46,2.26 -0.47,2.27 -0.38,2.26 -0.46,2.27 -0.45,2.26 -0.45,2.27 -0.39,2.26 -0.46,2.27 -0.38,2.26 -0.45,2.26 -0.45,2.27 -0.38,2.26 -0.37,2.27 -0.45,2.26 -0.43,2.27 -0.4,2.26 -0.37,2.27 -0.44,2.26 -0.36,2.27 -0.4,2.26 -0.38,2.27 -0.36,2.26 -0.45,2.27 -0.37,2.26 -0.36,2.26 -0.37,2.27 -0.37,2.26 -0.36,2.27 -0.37,2.26 -0.38,2.27 -0.35,2.26 -0.36,2.27 -0.38,2.26 -0.31,2.27 -0.41,2.26 -0.29,2.27 -0.35,2.26 -0.35,2.27 -0.3,2.26 -0.32,2.26 -0.35,2.27 -0.34,2.26 -0.29,2.27 -0.35,2.26 -0.35,2.27 -0.27,2.26 -0.3,2.27 -0.29,2.26 -0.3,2.27 -0.28,2.26 -0.35,2.27 -0.28,2.26 -0.27,2.27 -0.27,2.26 -0.27,2.27 -0.28,2.26 -0.27,2.26 -0.27,2.27 -0.27,2.26 -0.27,2.27 -0.24,2.26 -0.28,2.27 -0.24,2.26 -0.28,2.27 -0.18,2.26 -0.28,2.27 -0.25,2.26 -0.22,2.27 -0.19,2.26 -0.25,2.27 -0.23,2.26 -0.2,2.27 -0.25,2.26 -0.18,2.26 -0.21,2.27 -0.24,2.26 -0.15,2.27 -0.21,2.26 -0.17,2.27 -0.19,2.26 -0.19,2.27 -0.2,2.26 -0.19,2.27 -0.13,2.26 -0.2,2.27 -0.13,2.26 -0.2,2.27 -0.12,2.26 -0.15,2.27 -0.17,2.26 -0.12,2.26 -0.13,2.27 -0.13,2.26 -0.13,2.27 -0.19,2.26 -0.07,2.27 -0.14,2.26 -0.13,2.27 -0.13,2.26 -0.08,2.27 -0.13,2.26 -0.06,2.27 -0.13,2.26 -0.11,2.27 -0.1,2.26 -0.06,2.26 -0.14,2.27 -0.06,2.26 -0.08,2.27 -0.06,2.26 -0.06,2.27 -0.07,2.26 -0.07,2.27 -0.04,2.26 -0.05,2.27 -0.04,2.26 -0.07,2.27 -0.05,2.26 -0.02,2.27 -0.01,2.26 -0.05,2.27 -0.07,2.26 v 2.26 2.27 2.26 l -0.05,2.27 -0.02,2.26 v 2.27 2.26 2.27 2.26 2.27 l 0.07,2.26 v 2.27 2.26 2.27 l 0.08,2.26 -0.01,2.27 0.07,2.26 v 2.26 l 0.07,2.27 0.05,2.26 0.01,2.27 0.07,2.26 0.07,2.27 0.02,2.26 0.11,2.27 -0.01,2.26 0.09,2.27 0.05,2.26 0.1,2.27 0.04,2.26 0.13,2.27 0.09,2.26 0.04,2.26 0.14,2.27 0.08,2.26 0.1,2.27 0.09,2.26 0.12,2.27 0.12,2.26 0.09,2.27 0.11,2.26 0.1,2.27 0.12,2.26 0.14,2.27 0.13,2.26 0.11,2.27 0.16,2.26 0.11,2.27 0.09,2.26 0.18,2.26 0.16,2.27 0.1,2.26 0.16,2.27 0.14,2.26 0.14,2.27" />
      <path
         id="path23925"
         style="fill:none;stroke:#ff0000;stroke-width:50;stroke-linecap:butt;stroke-linejoin:round;stroke-miterlimit:10;stroke-dasharray:none;stroke-opacity:1"
         d="m 2913.72,2181.89 1.54,-0.26 1.55,-0.45 1.54,-0.31 1.54,-0.46 1.55,-1.68 1.54,-3.88 1.55,-1.99 1.54,-1.69 1.54,-1.59 1.55,-1.79 1.54,-1.54 1.54,-1.63 1.55,-1.38 1.54,-1.61 1.55,-1.5 1.54,-1.47 1.54,-1.63 1.55,-1.48 1.54,-1.36 1.54,-1.58 1.55,-1.47 1.54,-1.57 1.54,-1.5 1.55,-1.46 1.54,-1.45 1.55,-1.6 1.54,-1.45 1.54,-1.45 1.55,-1.42 1.54,-1.6 1.54,-1.44 1.55,-1.43 1.54,-1.43 1.54,-1.57 1.55,-1.42 1.54,-1.42 1.55,-1.42 1.54,-1.55 1.54,-1.41 1.55,-1.41 1.54,-1.41 1.54,-1.4 1.55,-1.54 1.54,-1.42 1.55,-1.51 1.54,-1.39 1.54,-1.52 1.55,-1.39 1.54,-1.38 1.54,-1.38 1.55,-1.52 1.54,-1.5 1.54,-1.37 1.55,-1.37 1.54,-1.36 1.55,-1.5 1.54,-1.35 1.54,-1.5 1.55,-1.33 1.54,-1.5 1.54,-1.35 1.55,-1.34 1.54,-1.38 1.54,-1.57 1.55,-1.34 1.54,-1.33 1.55,-1.32 1.54,-1.58 1.54,-1.35 1.55,-1.32 1.54,-1.46 1.54,-1.3 1.55,-1.45 1.54,-1.31 1.55,-1.44 1.54,-1.3 1.54,-1.44 1.55,-1.33 1.54,-1.4 1.54,-1.29 1.55,-1.42 1.54,-1.42 1.54,-1.29 1.55,-1.28 1.54,-1.53 1.55,-1.29 1.54,-1.27 1.54,-1.29 1.55,-1.52 1.54,-1.26 1.54,-1.27 1.55,-1.52 1.54,-1.26 1.55,-1.25 1.54,-1.46 1.54,-1.31 1.55,-1.25 1.54,-1.39 1.54,-1.36 1.55,-1.23 1.54,-1.34 1.54,-1.41 1.55,-1.22 1.54,-1.33 1.55,-1.31 1.54,-1.3 1.54,-1.33 1.55,-1.23 1.54,-1.36 1.54,-1.31 1.55,-1.24 1.54,-1.34 1.54,-1.3 1.55,-1.24 1.54,-1.33 1.55,-1.34 1.54,-1.19 1.54,-1.32 1.55,-1.33 1.54,-1.18 1.54,-1.31 1.55,-1.31 1.54,-1.19 1.55,-1.31 1.54,-1.3 1.54,-1.18 1.55,-1.29 1.54,-1.3 1.54,-1.16 1.55,-1.29 1.54,-1.3 1.54,-1.15 1.55,-1.33 1.54,-1.25 1.55,-1.2 1.54,-1.36 1.54,-1.15 1.55,-1.26 1.54,-1.28 1.54,-1.14 1.55,-1.27 1.54,-1.26 1.55,-1.13 1.54,-1.26 1.54,-1.26 1.55,-1.12 1.54,-1.39 1.54,-1.12 1.55,-1.12 1.54,-1.37 1.54,-1.11 1.55,-1.11 1.54,-1.37 1.55,-1.11 1.54,-1.1 1.54,-1.36 1.55,-1.1 1.54,-1.1 1.54,-1.35 1.55,-1.1 1.54,-1.25 1.54,-1.18 1.55,-1.09 1.54,-1.37 1.55,-1.06 1.54,-1.08 1.54,-1.35 1.55,-1.06 1.54,-1.08 1.54,-1.33 1.55,-1.06 1.54,-1.07 1.55,-1.32 1.54,-1.06 1.54,-1.07 1.55,-1.31 1.54,-1.05 1.54,-1.06 1.55,-1.31 1.54,-1.05 1.54,-1.05 1.55,-1.2 1.54,-1.14 1.55,-1.05 1.54,-1.17 1.54,-1.16 1.55,-1.04 1.54,-1.15 1.54,-1.16 1.55,-1.04 1.54,-1.02 1.54,-1.28 1.55,-1.03 1.54,-1.03 1.55,-1.12 1.54,-1.16 1.54,-1.02 1.55,-1.05 1.54,-1.24 1.54,-1 1.55,-1.01 1.54,-1.13 1.55,-1.13 1.54,-1.01 1.54,-1.01 1.55,-1.12 1.54,-1.12 1.54,-1 1.55,-1 1.54,-1.11 1.54,-1.11 1.55,-0.99 1.54,-0.99 1.55,-1.11 1.54,-1.11 1.54,-0.98 1.55,-0.98 1.54,-0.97 1.54,-1.11 1.55,-1.09 1.54,-0.97 1.55,-0.98 1.54,-0.97 1.54,-1.09 1.55,-1.09 1.54,-0.96 1.54,-0.96 1.55,-0.96 1.54,-1.03 1.54,-1.01 1.55,-1.04 1.54,-0.99 1.55,-0.95 1.54,-0.95 1.54,-0.95 1.55,-0.95 1.54,-1.06 1.54,-0.95 1.55,-1.06 1.54,-0.94 1.54,-0.94 1.55,-0.94 1.54,-0.93 1.55,-0.93 1.54,-0.94 1.54,-0.93 1.55,-0.93 1.54,-1.04 1.54,-0.93 1.55,-0.92 1.54,-0.92 1.55,-0.92 1.54,-0.92 1.54,-0.92 1.55,-0.92 1.54,-0.91 1.54,-0.91 1.55,-0.91 1.54,-0.91 1.54,-0.91 1.55,-0.91 1.54,-0.9 1.55,-0.88 1.54,-0.81 1.54,-0.9 1.55,-0.9 1.54,-0.89 1.54,-0.9 1.55,-0.89 1.54,-0.89 1.55,-0.78 1.54,-0.89 1.54,-0.87 1.55,-0.78 1.54,-0.89 1.54,-0.88 1.55,-0.89 1.54,-0.75 1.54,-0.89 1.55,-0.75 1.54,-0.88 1.55,-0.87 1.54,-0.76 1.54,-0.75 1.55,-0.88 1.54,-0.87 1.54,-0.75 1.55,-0.74 1.54,-0.87 1.54,-0.83 1.55,-0.77 1.54,-0.75 1.55,-0.87 1.54,-0.74 1.54,-0.73 1.55,-0.85 1.54,-0.75 1.54,-0.73 1.55,-0.72 1.54,-0.75 1.55,-0.85 1.54,-0.74 1.54,-0.71 1.55,-0.74 1.54,-0.72 1.54,-0.71 1.55,-0.75 1.54,-0.72 1.54,-0.71 1.55,-0.72 1.54,-0.73 1.55,-0.71 1.54,-0.72 1.54,-0.73 1.55,-0.7 1.54,-0.65 1.54,-0.75 1.55,-0.63 1.54,-0.71 1.54,-0.71 1.55,-0.59 1.54,-0.71 1.55,-0.71 1.54,-0.58 1.54,-0.71 1.55,-0.66 1.54,-0.62 1.54,-0.64 1.55,-0.64 1.54,-0.71 1.55,-0.59 1.54,-0.56 1.54,-0.7 1.55,-0.57 1.54,-0.7 1.54,-0.58 1.55,-0.57 1.54,-0.6 1.54,-0.62 1.55,-0.61 1.54,-0.5 1.55,-0.63 1.54,-0.63 1.54,-0.51 1.55,-0.6 1.54,-0.62 1.54,-0.49 1.55,-0.63 1.54,-0.48 1.55,-0.58 1.54,-0.53 1.54,-0.49 1.55,-0.54 1.54,-0.58 1.54,-0.53 1.55,-0.56 1.54,-0.53 1.54,-0.48 1.55,-0.48 1.54,-0.5 1.55,-0.52 1.54,-0.48 1.54,-0.48 1.55,-0.5 1.54,-0.51 1.54,-0.48 1.55,-0.41 1.54,-0.56 1.54,-0.37 1.55,-0.5 1.54,-0.47 1.55,-0.38 1.54,-0.52 1.54,-0.35 1.55,-0.5 1.54,-0.36 1.54,-0.5 1.55,-0.36 1.54,-0.49 1.55,-0.38 1.54,-0.38 1.54,-0.38 1.55,-0.48 1.54,-0.36 1.54,-0.37 1.55,-0.37 1.54,-0.37 1.54,-0.37 1.55,-0.37 1.54,-0.37 1.55,-0.37 1.54,-0.37 1.54,-0.28 1.55,-0.45 1.54,-0.26 1.54,-0.36 1.55,-0.26 1.54,-0.37 1.55,-0.26 1.54,-0.36 1.54,-0.29 1.55,-0.32 1.54,-0.34 1.54,-0.27 1.55,-0.26 1.54,-0.34 1.54,-0.27 1.55,-0.25 1.54,-0.26 1.55,-0.3 1.54,-0.21 1.54,-0.23 1.55,-0.24 1.54,-0.26 1.54,-0.26 1.55,-0.25 1.54,-0.25 1.54,-0.24 1.55,-0.22 1.54,-0.22 1.55,-0.2 1.54,-0.23 1.54,-0.15 1.55,-0.25 1.54,-0.12 1.54,-0.13 1.55,-0.2 1.54,-0.23 1.55,-0.2 1.54,-0.14 1.54,-0.11 1.55,-0.19 1.54,-0.21 1.54,-0.12 1.55,-0.09 1.54,-0.17 1.54,-0.05 1.55,-0.22 1.54,-0.11 1.55,-0.11 1.54,-0.1 1.54,-0.11 1.55,-0.11 1.54,-0.1 1.54,-0.05 1.55,-0.13 1.54,-0.04 1.54,-0.1 1.55,-0.12 h 1.54 l 1.55,-0.05 1.54,-0.12 1.54,-0.04 h 1.55 1.54 l 1.54,-0.11 1.55,0.01 1.54,-0.11 1.55,-0.01 h 1.54 1.54 1.55 1.54 1.54 1.55 1.54 1.54 1.55 1.54 l 1.55,0.11 h 1.54 l 1.54,0.11 h 1.55 1.54 l 1.54,0.05 1.55,0.12 1.54,0.04 1.55,0.01 1.54,0.1 1.54,0.11 1.55,-0.01 1.54,0.11 1.54,0.11 1.55,0.11 1.54,0.11 1.54,0.01 1.55,0.2 1.54,0.02 1.55,0.2 1.54,0.11 1.54,0.1 1.55,0.16 1.54,0.05 1.54,0.24 1.55,0.09 1.54,0.1 1.54,0.24 1.55,0.16 1.54,0.08 1.55,0.17 1.54,0.23 1.54,0.16 1.55,0.09 1.54,0.21 1.54,0.17 1.55,0.23 1.54,0.22 1.54,0.15 1.55,0.21 1.54,0.21 1.55,0.21 1.54,0.21 1.54,0.21 1.55,0.21 1.54,0.21 1.54,0.21 1.55,0.32 1.54,0.21 1.55,0.22 1.54,0.22 1.54,0.21 1.55,0.29 1.54,0.2 1.54,0.33 1.55,0.2 1.54,0.28 1.55,0.23 1.54,0.33 1.54,0.31 1.55,0.22 1.54,0.3 1.54,0.33 1.55,0.23 1.54,0.26 1.54,0.33 1.55,0.31 1.54,0.31 1.55,0.31 1.54,0.31 1.54,0.31 1.55,0.32 1.54,0.31 1.54,0.31 1.55,0.3 1.54,0.32 1.54,0.4 1.55,0.33 1.54,0.29 1.55,0.35 1.54,0.39 1.54,0.31 1.55,0.42 1.54,0.3 1.54,0.37 1.55,0.36 1.54,0.42 1.55,0.3 1.54,0.42 1.54,0.29 1.55,0.41 1.54,0.33 1.54,0.41 1.55,0.4 1.54,0.42 1.54,0.35 1.55,0.39 1.54,0.39 1.55,0.41 1.54,0.41 1.54,0.41 1.55,0.42 1.54,0.42 1.54,0.42 1.55,0.41 1.54,0.42 1.54,0.39 1.55,0.4 1.54,0.42 1.55,0.53 1.54,0.39 1.54,0.37 1.55,0.46 1.54,0.42 1.54,0.49 1.55,0.37 1.54,0.47 1.55,0.52 1.54,0.37 1.54,0.44 1.55,0.53 1.54,0.4 1.54,0.47 1.55,0.49 1.54,0.38 1.54,0.52 1.55,0.43 1.54,0.49 1.55,0.47 1.54,0.49 1.54,0.49 1.55,0.49 1.54,0.48 1.54,0.47 1.55,0.5 1.54,0.42 1.55,0.52 1.54,0.48 1.54,0.48 1.55,0.47 1.54,0.47 1.54,0.56 1.55,0.4 1.54,0.58 1.54,0.48 1.55,0.47 1.54,0.6 1.55,0.46 1.54,0.48 1.54,0.54 1.55,0.51 1.54,0.48 1.54,0.55 1.55,0.51 1.54,0.46 1.54,0.58 1.55,0.46 1.54,0.46 1.55,0.59 1.54,0.59 1.54,0.46 1.55,0.46 1.54,0.59 1.54,0.58 1.55,0.46 1.54,0.47 1.54,0.57 1.55,0.58 1.54,0.58 1.55,0.46 1.54,0.47 1.54,0.56 1.55,0.57 1.54,0.57 1.54,0.47 1.55,0.57 1.54,0.56 1.55,0.47 1.54,0.57 1.54,0.57 1.55,0.57 1.54,0.58 1.54,0.45 1.55,0.57 1.54,0.58 1.55,0.44 1.54,0.57 1.54,0.57 1.55,0.57 1.54,0.56 1.54,0.57 1.55,0.56 1.54,0.58 1.54,0.44 1.55,0.57 1.54,0.56 1.55,0.56 1.54,0.57 1.54,0.56 1.55,0.56 1.54,0.44 1.54,0.57 1.55,0.56 1.54,0.56 1.54,0.57 1.55,0.56 1.54,0.55 1.55,0.56 1.54,0.56 1.54,0.56 1.55,0.56 1.54,0.56 1.54,0.55 1.55,0.56 1.54,0.56 1.54,0.55 1.55,0.56 1.54,0.55 1.55,0.56 1.54,0.55 1.54,0.56 1.55,0.55 1.54,0.55 1.54,0.56 1.55,0.55 1.54,0.55 1.55,0.55 1.54,0.55 1.54,0.56 1.55,0.55 1.54,0.55 1.54,0.55 1.55,0.55 1.54,0.54 1.54,0.55 1.55,0.55 1.54,0.55 1.55,0.55 1.54,0.65 1.54,0.55 1.55,0.55 1.54,0.55 1.54,0.54 1.55,0.55 1.54,0.54 1.55,0.54 1.54,0.55 1.54,0.54 1.55,0.54 1.54,0.55 1.54,0.54 1.55,0.54 1.54,0.54 1.54,0.54 1.55,0.54 1.54,0.54 1.55,0.54 1.54,0.54 1.54,0.54 1.55,0.54 1.54,0.54 1.54,0.5 1.55,0.46 1.54,0.54 1.55,0.53 1.54,0.54 1.54,0.53 1.55,0.54 1.54,0.53 1.54,0.54 1.55,0.53 1.54,0.54 1.54,0.53 1.55,0.53 1.54,0.54 1.55,0.53 1.54,0.44 1.54,0.5 1.55,0.54 1.54,0.52 1.54,0.44 1.55,0.51 1.54,0.53 1.54,0.53 1.55,0.53 1.54,0.52 1.55,0.54 1.54,0.39 1.54,0.54 1.55,0.41 1.54,0.52 1.54,0.53 1.55,0.53 1.54,0.52 1.55,0.4 1.54,0.54 1.54,0.39 1.55,0.53 1.54,0.53 1.54,0.53 1.55,0.38 1.54,0.44 1.54,0.5 1.55,0.52 1.54,0.53 1.55,0.38 1.54,0.44 1.54,0.49 1.55,0.52 1.54,0.39 1.54,0.46 1.55,0.47 1.54,0.51 1.55,0.4 1.54,0.39 1.54,0.52 1.55,0.44 1.54,0.38 1.54,0.5 1.55,0.5 1.54,0.38 1.54,0.42 1.55,0.52 1.54,0.29 1.55,0.49 1.54,0.51 1.54,0.27 1.55,0.53 1.54,0.38 1.54,0.38 1.55,0.53 1.54,0.27 1.54,0.5 1.55,0.36 1.54,0.42 1.55,0.46 1.54,0.3 1.54,0.44 1.55,0.35 1.54,0.51 1.54,0.26 1.55,0.49 1.54,0.27 1.54,0.48 1.55,0.29 1.54,0.45 1.55,0.32 1.54,0.42 1.54,0.35 1.55,0.39 1.54,0.37 1.54,0.26 1.55,0.49 1.54,0.28 1.55,0.31 1.54,0.4 1.54,0.29 1.55,0.35 1.54,0.45 1.54,0.22 1.55,0.29 1.54,0.48 1.54,0.25 1.55,0.24 1.54,0.48 1.55,0.28 1.54,0.26 1.54,0.32 1.55,0.34 1.54,0.31 1.54,0.28 1.55,0.29 1.54,0.32 1.55,0.33 1.54,0.23 1.54,0.34 1.55,0.22 1.54,0.27 1.54,0.28 1.55,0.25 1.54,0.35 1.54,0.24 1.55,0.36 1.54,0.24 1.55,0.25 1.54,0.24 1.54,0.24 1.55,0.24 1.54,0.24 1.54,0.26 1.55,0.23 1.54,0.24 1.54,0.24 1.55,0.24 1.54,0.24 1.55,0.24 1.54,0.12 1.54,0.25 1.55,0.12 1.54,0.25 1.54,0.26 1.55,0.22 1.54,0.2 1.55,0.13 1.54,0.15 1.54,0.27 1.55,0.21 1.54,0.17 1.54,0.14 1.55,0.2 1.54,0.19 1.54,0.08 1.55,0.2 1.54,0.29 1.55,0.02 1.54,0.18 1.54,0.15 1.55,0.1 1.54,0.24 h 1.54 l 1.55,0.25 1.54,0.09 1.55,0.16 1.54,0.16 1.54,0.07 1.55,0.13 1.54,0.11 1.54,0.09 1.55,0.15 1.54,0.02 1.54,0.23 h 1.55 l 1.54,0.11 1.55,0.14 1.54,-0.02 1.54,0.22 1.55,0.03 h 1.54 l 1.54,0.18 1.55,0.07 h 1.54 l 1.54,0.12 1.55,0.11 1.54,0.01 h 1.55 l 1.54,-0.01 1.54,0.14 1.55,0.13 1.54,-0.01 1.54,-0.01 h 1.55 1.54 l 1.55,0.01 1.54,0.06 1.54,0.06 1.55,0.02 1.54,0.1 h 1.54 1.55 1.54 1.54 1.55 l 1.54,-0.02 1.55,-0.1 1.54,-0.01 1.54,-0.08 1.55,-0.03 1.54,-0.01 h 1.54 1.55 l 1.54,0.01 1.55,0.01 1.54,-0.14 1.54,-0.13 1.55,0.01 h 1.54 l 1.54,0.01 1.55,-0.22 1.54,-0.03 h 1.54 1.55 l 1.54,-0.23 1.55,-0.01 h 1.54 l 1.54,-0.17 1.55,-0.08 1.54,0.01 1.54,-0.22 1.55,-0.02 1.54,-0.17 1.54,-0.08 1.55,0.02 1.54,-0.29 1.55,0.04 1.54,-0.28 1.54,0.02 1.55,-0.18 1.54,-0.05 1.54,-0.17 1.55,-0.09 1.54,-0.22 1.55,0.01 1.54,-0.3 1.54,0.02 1.55,-0.25 1.54,-0.13 1.54,-0.07 1.55,-0.28 1.54,0.03 1.54,-0.27 1.55,-0.17 1.54,-0.08 1.55,-0.24 1.54,-0.13 1.54,-0.12 1.55,-0.22 1.54,-0.21 1.54,-0.16 1.55,-0.13 1.54,-0.23 1.54,-0.18 1.55,-0.16 1.54,-0.17 1.55,-0.21 1.54,-0.2 1.54,-0.21 1.55,-0.2 1.54,-0.1 1.54,-0.26 1.55,-0.25" />
      <path
         id="path23927"
         style="fill:none;stroke:#ff0000;stroke-width:50;stroke-linecap:butt;stroke-linejoin:round;stroke-miterlimit:10;stroke-dasharray:none;stroke-opacity:1"
         d="m 2906.89,2188.72 -0.26,1.54 -0.45,1.55 -0.31,1.54 -0.46,1.54 -1.68,1.55 -3.88,1.54 -1.99,1.55 -1.69,1.54 -1.59,1.54 -1.79,1.55 -1.54,1.54 -1.63,1.54 -1.38,1.55 -1.61,1.54 -1.5,1.55 -1.47,1.54 -1.63,1.54 -1.48,1.55 -1.36,1.54 -1.58,1.54 -1.47,1.55 -1.57,1.54 -1.5,1.54 -1.46,1.55 -1.45,1.54 -1.6,1.55 -1.45,1.54 -1.45,1.54 -1.42,1.55 -1.6,1.54 -1.44,1.54 -1.43,1.55 -1.43,1.54 -1.57,1.54 -1.42,1.55 -1.42,1.54 -1.42,1.55 -1.55,1.54 -1.41,1.54 -1.41,1.55 -1.41,1.54 -1.39,1.54 -1.55,1.55 -1.42,1.54 -1.51,1.55 -1.39,1.54 -1.52,1.54 -1.39,1.55 -1.38,1.54 -1.38,1.54 -1.52,1.55 -1.5,1.54 -1.37,1.54 -1.37,1.55 -1.36,1.54 -1.5,1.55 -1.35,1.54 -1.5,1.54 -1.33,1.55 -1.5,1.54 -1.35,1.54 -1.34,1.55 -1.38,1.54 -1.57,1.54 -1.34,1.55 -1.33,1.54 -1.32,1.55 -1.58,1.54 -1.35,1.54 -1.32,1.55 -1.46,1.54 -1.3,1.54 -1.45,1.55 -1.31,1.54 -1.44,1.55 -1.3,1.54 -1.44,1.54 -1.33,1.55 -1.4,1.54 -1.29,1.54 -1.42,1.55 -1.42,1.54 -1.29,1.54 -1.28,1.55 -1.53,1.54 -1.29,1.55 -1.27,1.54 -1.29,1.54 -1.52,1.55 -1.26,1.54 -1.27,1.54 -1.52,1.55 -1.26,1.54 -1.25,1.55 -1.46,1.54 -1.31,1.54 -1.25,1.55 -1.39,1.54 -1.36,1.54 -1.23,1.55 -1.34,1.54 -1.41,1.54 -1.22,1.55 -1.33,1.54 -1.31,1.55 -1.3,1.54 -1.33,1.54 -1.23,1.55 -1.36,1.54 -1.31,1.54 -1.24,1.55 -1.34,1.54 -1.3,1.54 -1.24,1.55 -1.33,1.54 -1.34,1.55 -1.19,1.54 -1.32,1.54 -1.33,1.55 -1.18,1.54 -1.31,1.54 -1.31,1.55 -1.19,1.54 -1.31,1.55 -1.3,1.54 -1.18,1.54 -1.29,1.55 -1.3,1.54 -1.16,1.54 -1.29,1.55 -1.3,1.54 -1.15,1.54 -1.33,1.55 -1.25,1.54 -1.2,1.55 -1.36,1.54 -1.15,1.54 -1.26,1.55 -1.28,1.54 -1.14,1.54 -1.27,1.55 -1.26,1.54 -1.13,1.55 -1.26,1.54 -1.26,1.54 -1.12,1.55 -1.39,1.54 -1.12,1.54 -1.12,1.55 -1.37,1.54 -1.11,1.54 -1.11,1.55 -1.37,1.54 -1.11,1.55 -1.1,1.54 -1.36,1.54 -1.1,1.55 -1.1,1.54 -1.35,1.54 -1.1,1.55 -1.25,1.54 -1.18,1.54 -1.09,1.55 -1.37,1.54 -1.06,1.55 -1.08,1.54 -1.35,1.54 -1.06,1.55 -1.07,1.54 -1.34,1.54 -1.06,1.55 -1.07,1.54 -1.32,1.55 -1.06,1.54 -1.07,1.54 -1.31,1.55 -1.05,1.54 -1.06,1.54 -1.31,1.55 -1.05,1.54 -1.05,1.54 -1.2,1.55 -1.14,1.54 -1.05,1.55 -1.17,1.54 -1.16,1.54 -1.04,1.55 -1.15,1.54 -1.16,1.54 -1.04,1.55 -1.02,1.54 -1.28,1.54 -1.03,1.55 -1.03,1.54 -1.12,1.55 -1.16,1.54 -1.02,1.54 -1.05,1.55 -1.24,1.54 -1,1.54 -1.01,1.55 -1.13,1.54 -1.13,1.55 -1.01,1.54 -1.01,1.54 -1.12,1.55 -1.12,1.54 -1,1.54 -0.99,1.55 -1.12,1.54 -1.11,1.54 -0.99,1.55 -0.99,1.54 -1.11,1.55 -1.11,1.54 -0.98,1.54 -0.98,1.55 -0.97,1.54 -1.11,1.54 -1.09,1.55 -0.97,1.54 -0.98,1.55 -0.97,1.54 -1.09,1.54 -1.09,1.55 -0.96,1.54 -0.96,1.54 -0.96,1.55 -1.03,1.54 -1.01,1.54 -1.04,1.55 -0.99,1.54 -0.95,1.55 -0.95,1.54 -0.95,1.54 -0.95,1.55 -1.06,1.54 -0.95,1.54 -1.06,1.55 -0.94,1.54 -0.94,1.54 -0.94,1.55 -0.93,1.54 -0.93,1.55 -0.94,1.54 -0.93,1.54 -0.93,1.55 -1.04,1.54 -0.93,1.54 -0.92,1.55 -0.92,1.54 -0.92,1.55 -0.92,1.54 -0.92,1.54 -0.92,1.55 -0.91,1.54 -0.91,1.54 -0.91,1.55 -0.91,1.54 -0.91,1.54 -0.91,1.55 -0.9,1.54 -0.88,1.55 -0.81,1.54 -0.9,1.54 -0.9,1.55 -0.89,1.54 -0.9,1.54 -0.89,1.55 -0.89,1.54 -0.78,1.55 -0.89,1.54 -0.87,1.54 -0.78,1.55 -0.89,1.54 -0.88,1.54 -0.89,1.55 -0.75,1.54 -0.89,1.54 -0.75,1.55 -0.88,1.54 -0.87,1.55 -0.76,1.54 -0.75,1.54 -0.88,1.55 -0.87,1.54 -0.75,1.54 -0.74,1.55 -0.87,1.54 -0.83,1.54 -0.77,1.55 -0.75,1.54 -0.87,1.55 -0.74,1.54 -0.73,1.54 -0.85,1.55 -0.75,1.54 -0.73,1.54 -0.72,1.55 -0.75,1.54 -0.85,1.55 -0.74,1.54 -0.71,1.54 -0.74,1.55 -0.72,1.54 -0.71,1.54 -0.75,1.55 -0.72,1.54 -0.71,1.54 -0.72,1.55 -0.73,1.54 -0.71,1.55 -0.72,1.54 -0.73,1.54 -0.7,1.55 -0.65,1.54 -0.75,1.54 -0.63,1.55 -0.71,1.54 -0.71,1.54 -0.59,1.55 -0.71,1.54 -0.71,1.55 -0.58,1.54 -0.71,1.54 -0.66,1.55 -0.62,1.54 -0.64,1.54 -0.64,1.55 -0.71,1.54 -0.59,1.55 -0.56,1.54 -0.7,1.54 -0.57,1.55 -0.7,1.54 -0.58,1.54 -0.57,1.55 -0.6,1.54 -0.62,1.54 -0.61,1.55 -0.5,1.54 -0.63,1.55 -0.63,1.54 -0.51,1.54 -0.6,1.55 -0.62,1.54 -0.49,1.54 -0.63,1.55 -0.48,1.54 -0.58,1.55 -0.53,1.54 -0.49,1.54 -0.54,1.55 -0.58,1.54 -0.53,1.54 -0.56,1.55 -0.53,1.54 -0.48,1.54 -0.48,1.55 -0.5,1.54 -0.52,1.55 -0.48,1.54 -0.48,1.54 -0.5,1.55 -0.51,1.54 -0.48,1.54 -0.41,1.55 -0.56,1.54 -0.37,1.54 -0.5,1.55 -0.47,1.54 -0.38,1.55 -0.52,1.54 -0.35,1.54 -0.5,1.55 -0.36,1.54 -0.5,1.54 -0.36,1.55 -0.49,1.54 -0.38,1.55 -0.38,1.54 -0.38,1.54 -0.48,1.55 -0.36,1.54 -0.37,1.54 -0.37,1.55 -0.37,1.54 -0.37,1.54 -0.37,1.55 -0.37,1.54 -0.37,1.55 -0.37,1.54 -0.28,1.54 -0.45,1.55 -0.26,1.54 -0.36,1.54 -0.26,1.55 -0.37,1.54 -0.26,1.55 -0.36,1.54 -0.29,1.54 -0.32,1.55 -0.34,1.54 -0.27,1.54 -0.26,1.55 -0.34,1.54 -0.27,1.54 -0.25,1.55 -0.26,1.54 -0.3,1.55 -0.21,1.54 -0.23,1.54 -0.24,1.55 -0.26,1.54 -0.26,1.54 -0.25,1.55 -0.25,1.54 -0.24,1.54 -0.22,1.55 -0.22,1.54 -0.2,1.55 -0.23,1.54 -0.15,1.54 -0.25,1.55 -0.12,1.54 -0.13,1.54 -0.2,1.55 -0.23,1.54 -0.2,1.55 -0.14,1.54 -0.11,1.54 -0.19,1.55 -0.21,1.54 -0.12,1.54 -0.09,1.55 -0.17,1.54 -0.05,1.54 -0.22,1.55 -0.11,1.54 -0.11,1.55 -0.1,1.54 -0.11,1.54 -0.11,1.55 -0.1,1.54 -0.05,1.54 -0.13,1.55 -0.04,1.54 -0.1,1.54 -0.12,1.55 v 1.54 l -0.05,1.55 -0.12,1.54 -0.04,1.54 v 1.55 1.54 l -0.11,1.54 0.01,1.55 -0.11,1.54 -0.01,1.55 v 1.54 1.54 1.55 1.54 1.54 1.55 1.54 1.54 1.55 1.54 l 0.11,1.55 v 1.54 l 0.11,1.54 v 1.55 1.54 l 0.05,1.54 0.12,1.55 0.04,1.54 0.01,1.55 0.1,1.54 0.11,1.54 -0.01,1.55 0.11,1.54 0.11,1.54 0.11,1.55 0.11,1.54 0.01,1.54 0.2,1.55 0.02,1.54 0.2,1.55 0.11,1.54 0.1,1.54 0.16,1.55 0.05,1.54 0.24,1.54 0.09,1.55 0.1,1.54 0.24,1.54 0.16,1.55 0.08,1.54 0.17,1.55 0.23,1.54 0.16,1.54 0.09,1.55 0.21,1.54 0.17,1.54 0.23,1.55 0.22,1.54 0.15,1.55 0.21,1.54 0.21,1.54 0.21,1.55 0.21,1.54 0.21,1.54 0.21,1.55 0.21,1.54 0.21,1.54 0.32,1.55 0.21,1.54 0.22,1.55 0.22,1.54 0.21,1.54 0.29,1.55 0.2,1.54 0.33,1.54 0.2,1.55 0.28,1.54 0.23,1.55 0.33,1.54 0.31,1.54 0.22,1.55 0.3,1.54 0.33,1.54 0.23,1.55 0.26,1.54 0.33,1.54 0.31,1.55 0.31,1.54 0.31,1.55 0.31,1.54 0.31,1.54 0.32,1.55 0.31,1.54 0.31,1.54 0.3,1.55 0.32,1.54 0.4,1.54 0.33,1.55 0.29,1.54 0.35,1.55 0.39,1.54 0.31,1.54 0.42,1.55 0.3,1.54 0.37,1.54 0.36,1.55 0.42,1.54 0.3,1.55 0.42,1.54 0.29,1.54 0.41,1.55 0.33,1.54 0.41,1.54 0.4,1.55 0.42,1.54 0.35,1.54 0.39,1.55 0.39,1.54 0.41,1.55 0.41,1.54 0.41,1.54 0.42,1.55 0.42,1.54 0.42,1.54 0.41,1.55 0.42,1.54 0.39,1.54 0.4,1.55 0.42,1.54 0.53,1.55 0.39,1.54 0.37,1.54 0.46,1.55 0.42,1.54 0.49,1.54 0.37,1.55 0.47,1.54 0.52,1.55 0.37,1.54 0.44,1.54 0.53,1.55 0.4,1.54 0.47,1.54 0.49,1.55 0.38,1.54 0.52,1.54 0.43,1.55 0.49,1.54 0.47,1.55 0.49,1.54 0.49,1.54 0.49,1.55 0.48,1.54 0.47,1.54 0.5,1.55 0.42,1.54 0.52,1.55 0.48,1.54 0.48,1.54 0.47,1.55 0.47,1.54 0.56,1.54 0.4,1.55 0.58,1.54 0.48,1.54 0.47,1.55 0.6,1.54 0.46,1.55 0.48,1.54 0.54,1.54 0.51,1.55 0.48,1.54 0.55,1.54 0.51,1.55 0.46,1.54 0.58,1.54 0.46,1.55 0.46,1.54 0.59,1.55 0.59,1.54 0.46,1.54 0.46,1.55 0.59,1.54 0.58,1.54 0.46,1.55 0.47,1.54 0.57,1.55 0.58,1.54 0.58,1.54 0.46,1.55 0.47,1.54 0.56,1.54 0.57,1.55 0.57,1.54 0.47,1.54 0.57,1.55 0.56,1.54 0.47,1.55 0.57,1.54 0.57,1.54 0.57,1.55 0.58,1.54 0.45,1.54 0.57,1.55 0.58,1.54 0.44,1.55 0.57,1.54 0.57,1.54 0.57,1.55 0.56,1.54 0.57,1.54 0.56,1.55 0.58,1.54 0.44,1.54 0.57,1.55 0.56,1.54 0.56,1.55 0.57,1.54 0.56,1.54 0.56,1.55 0.44,1.54 0.57,1.54 0.56,1.55 0.56,1.54 0.57,1.54 0.56,1.55 0.55,1.54 0.56,1.55 0.56,1.54 0.56,1.54 0.56,1.55 0.56,1.54 0.55,1.54 0.56,1.55 0.56,1.54 0.55,1.55 0.56,1.54 0.55,1.54 0.56,1.55 0.55,1.54 0.56,1.54 0.55,1.55 0.55,1.54 0.56,1.54 0.55,1.55 0.55,1.54 0.55,1.55 0.56,1.54 0.55,1.54 0.55,1.55 0.55,1.54 0.55,1.54 0.55,1.55 0.54,1.54 0.55,1.54 0.55,1.55 0.55,1.54 0.55,1.55 0.65,1.54 0.55,1.54 0.55,1.55 0.55,1.54 0.54,1.54 0.55,1.55 0.54,1.54 0.54,1.55 0.55,1.54 0.54,1.54 0.54,1.55 0.55,1.54 0.54,1.54 0.54,1.55 0.54,1.54 0.54,1.54 0.54,1.55 0.54,1.54 0.54,1.55 0.54,1.54 0.54,1.54 0.54,1.55 0.54,1.54 0.5,1.54 0.46,1.55 0.54,1.54 0.53,1.55 0.54,1.54 0.53,1.54 0.54,1.55 0.53,1.54 0.54,1.54 0.53,1.55 0.54,1.54 0.53,1.54 0.53,1.55 0.54,1.54 0.53,1.55 0.44,1.54 0.5,1.54 0.54,1.55 0.52,1.54 0.44,1.54 0.51,1.55 0.53,1.54 0.53,1.54 0.53,1.55 0.52,1.54 0.54,1.55 0.39,1.54 0.54,1.54 0.41,1.55 0.52,1.54 0.53,1.54 0.53,1.55 0.52,1.54 0.4,1.55 0.54,1.54 0.39,1.54 0.53,1.55 0.53,1.54 0.53,1.54 0.38,1.55 0.44,1.54 0.5,1.54 0.52,1.55 0.53,1.54 0.38,1.55 0.44,1.54 0.49,1.54 0.52,1.55 0.39,1.54 0.46,1.54 0.47,1.55 0.51,1.54 0.4,1.55 0.39,1.54 0.52,1.54 0.44,1.55 0.38,1.54 0.5,1.54 0.5,1.55 0.38,1.54 0.42,1.54 0.52,1.55 0.29,1.54 0.49,1.55 0.51,1.54 0.27,1.54 0.53,1.55 0.38,1.54 0.38,1.54 0.53,1.55 0.27,1.54 0.5,1.54 0.36,1.55 0.42,1.54 0.46,1.55 0.3,1.54 0.44,1.54 0.35,1.55 0.51,1.54 0.26,1.54 0.49,1.55 0.27,1.54 0.48,1.55 0.29,1.54 0.45,1.54 0.32,1.55 0.42,1.54 0.35,1.54 0.39,1.55 0.37,1.54 0.26,1.54 0.49,1.55 0.28,1.54 0.31,1.55 0.4,1.54 0.29,1.54 0.35,1.55 0.45,1.54 0.22,1.54 0.29,1.55 0.48,1.54 0.25,1.54 0.24,1.55 0.48,1.54 0.28,1.55 0.26,1.54 0.32,1.54 0.34,1.55 0.31,1.54 0.28,1.54 0.29,1.55 0.32,1.54 0.33,1.55 0.23,1.54 0.34,1.54 0.22,1.55 0.27,1.54 0.28,1.54 0.25,1.55 0.35,1.54 0.24,1.54 0.36,1.55 0.24,1.54 0.25,1.55 0.24,1.54 0.24,1.54 0.24,1.55 0.24,1.54 0.26,1.54 0.23,1.55 0.24,1.54 0.24,1.55 0.24,1.54 0.24,1.54 0.24,1.55 0.12,1.54 0.25,1.54 0.12,1.55 0.25,1.54 0.26,1.54 0.22,1.55 0.2,1.54 0.13,1.55 0.15,1.54 0.27,1.54 0.21,1.55 0.17,1.54 0.14,1.54 0.2,1.55 0.19,1.54 0.08,1.54 0.2,1.55 0.29,1.54 0.02,1.55 0.18,1.54 0.15,1.54 0.1,1.55 0.24,1.54 v 1.54 l 0.25,1.55 0.09,1.54 0.16,1.55 0.16,1.54 0.07,1.54 0.13,1.55 0.11,1.54 0.09,1.54 0.15,1.55 0.02,1.54 0.23,1.54 v 1.55 l 0.11,1.54 0.13,1.55 -0.01,1.54 0.22,1.54 0.03,1.55 v 1.54 l 0.18,1.54 0.07,1.55 v 1.54 l 0.12,1.54 0.11,1.55 0.01,1.54 v 1.55 l -0.01,1.54 0.14,1.54 0.13,1.55 -0.01,1.54 -0.01,1.54 v 1.55 1.54 l 0.01,1.55 0.06,1.54 0.06,1.54 0.02,1.55 0.1,1.54 v 1.54 1.55 1.54 1.54 1.55 l -0.02,1.54 -0.1,1.55 -0.01,1.54 -0.08,1.54 -0.03,1.55 -0.01,1.54 v 1.54 1.55 l 0.01,1.54 0.01,1.55 -0.14,1.54 -0.13,1.54 0.01,1.55 v 1.54 l 0.01,1.54 -0.22,1.55 -0.03,1.54 v 1.54 1.55 l -0.23,1.54 -0.01,1.55 v 1.54 l -0.17,1.54 -0.08,1.55 0.01,1.54 -0.22,1.54 -0.02,1.55 -0.17,1.54 -0.08,1.54 0.02,1.55 -0.29,1.54 0.04,1.55 -0.28,1.54 0.02,1.54 -0.18,1.55 -0.05,1.54 -0.17,1.54 -0.09,1.55 -0.22,1.54 0.01,1.55 -0.3,1.54 0.02,1.54 -0.25,1.55 -0.13,1.54 -0.07,1.54 -0.28,1.55 0.03,1.54 -0.27,1.54 -0.17,1.55 -0.08,1.54 -0.24,1.55 -0.13,1.54 -0.12,1.54 -0.22,1.55 -0.21,1.54 -0.16,1.54 -0.13,1.55 -0.23,1.54 -0.18,1.55 -0.16,1.54 -0.17,1.54 -0.21,1.55 -0.2,1.54 -0.21,1.54 -0.2,1.55 -0.1,1.54 -0.26,1.54 -0.25,1.55" />
      <path
         id="path23929"
         style="fill:none;stroke:#0000ff;stroke-width:50;stroke-linecap:butt;stroke-linejoin:bevel;stroke-miterlimit:10;stroke-dasharray:50, 50;stroke-dashoffset:0;stroke-opacity:1"
         d="m 1528,803 6.72,6.719 6.72,6.722 6.72,6.719 6.73,6.731 6.72,6.718 6.72,6.723 6.72,6.719 6.72,6.719 6.72,6.718 6.72,6.723 6.73,6.73 6.72,6.719 6.72,6.719 6.72,6.723 6.72,6.718 6.72,6.719 6.72,6.723 6.73,6.726 6.72,6.723 6.72,6.719 6.72,6.718 6.72,6.723 6.72,6.719 6.72,6.719 6.73,6.73 6.72,6.723 6.72,6.718 6.72,6.719 6.72,6.723 6.72,6.718 6.72,6.72 6.73,6.73 6.72,6.72 6.72,6.72 6.72,6.72 6.72,6.72 6.72,6.72 6.72,6.72 6.73,6.73 6.72,6.72 6.72,6.72 6.72,6.72 6.72,6.72 6.72,6.72 6.72,6.72 6.73,6.73 6.72,6.72 6.72,6.72 6.72,6.72 6.72,6.72 6.72,6.72 6.72,6.72 6.72,6.72 6.73,6.73 6.72,6.72 6.72,6.72 6.72,6.72 6.72,6.72 6.72,6.72 6.72,6.72 6.73,6.73 6.72,6.72 6.72,6.72 6.72,6.72 6.72,6.72 6.72,6.72 6.72,6.72 6.73,6.73 6.72,6.72 6.72,6.72 6.72,6.72 6.72,6.72 6.72,6.72 6.72,6.72 6.73,6.73 6.72,6.72 6.72,6.72 6.72,6.72 6.72,6.72 6.72,6.72 6.72,6.72 6.73,6.73 6.72,6.72 6.72,6.72 6.72,6.72 6.72,6.72 6.72,6.72 6.72,6.72 6.73,6.73 6.72,6.72 6.72,6.72 6.72,6.72 6.72,6.72 6.72,6.72 6.72,6.72 6.73,6.73 6.72,6.72 6.72,6.72 6.72,6.72" />
      <path
         id="path23931"
         style="fill:none;stroke:#ff0000;stroke-width:50;stroke-linecap:butt;stroke-linejoin:round;stroke-miterlimit:10;stroke-dasharray:none;stroke-opacity:1"
         d="m 2193.42,1468.42 7.28,7.28 7.27,7.27 7.28,7.28 7.27,7.27 7.28,7.28 7.27,7.27 7.28,7.28 7.28,7.28 7.27,7.27 7.28,7.28 7.27,7.27 7.28,7.28 7.27,7.27 7.28,7.28 7.28,7.28 7.27,7.27 7.28,7.28 7.27,7.27 7.28,7.28 7.28,7.28 7.27,7.27 7.28,7.28 7.27,7.27 7.28,7.28 7.27,7.27 7.28,7.28 7.28,7.28 7.27,7.27 7.28,7.28 7.27,7.27 7.28,7.28 7.27,7.27 7.28,7.28 7.28,7.28 7.27,7.27 7.28,7.28 7.27,7.27 7.28,7.28 7.27,7.27 7.28,7.28 7.28,7.28 7.27,7.27 7.28,7.28 7.27,7.27 7.28,7.28 7.27,7.27 7.28,7.28 7.28,7.28 7.27,7.27 7.28,7.28 7.27,7.27 7.28,7.28 7.28,7.28 7.27,7.27 7.28,7.28 7.27,7.27 7.28,7.28 7.27,7.27 7.28,7.28 7.28,7.28 7.27,7.27 7.28,7.28 7.27,7.27 7.28,7.28 7.27,7.27 7.28,7.28 7.28,7.28 7.27,7.27 7.28,7.28 7.27,7.27 7.28,7.28 7.27,7.27 7.28,7.28 7.28,7.28 7.27,7.27 7.28,7.28 7.27,7.27 7.28,7.28 7.27,7.27 7.28,7.28 7.28,7.28 7.27,7.27 7.28,7.28 7.27,7.27 7.28,7.28 7.28,7.28 7.27,7.27 7.28,7.28 7.27,7.27 7.28,7.28 7.27,7.27 7.28,7.28 7.28,7.28 7.27,7.27 7.28,7.28 7.27,7.27 7.28,7.28 7.27,7.27 7.28,7.28" />
      <path
         id="path23933"
         style="fill:none;stroke:#0000ff;stroke-width:50;stroke-linecap:butt;stroke-linejoin:bevel;stroke-miterlimit:10;stroke-dasharray:50, 50;stroke-dashoffset:0;stroke-opacity:1"
         d="m 2913.72,2188.72 6.1,6.1 6.1,6.1 6.09,6.09 6.1,6.1 6.1,6.1 6.1,6.1 6.09,6.09 6.1,6.1 6.1,6.1 6.1,6.1 6.1,6.1 6.09,6.09 6.1,6.1 6.1,6.1 6.1,6.1 6.09,6.09 6.1,6.1 6.1,6.1 6.1,6.1 6.1,6.1 6.09,6.09 6.1,6.1 6.1,6.1 6.1,6.1 6.09,6.09 6.1,6.1 6.1,6.1 6.1,6.1 6.1,6.1 6.09,6.09 6.1,6.1 6.1,6.1 6.1,6.1 6.09,6.09 6.1,6.1 6.1,6.1 6.1,6.1 6.1,6.1 6.09,6.09 6.1,6.1 6.1,6.1 6.1,6.1 6.09,6.09 6.1,6.1 6.1,6.1 6.1,6.1 6.1,6.1 6.09,6.09 6.1,6.1 6.1,6.1 6.1,6.1 6.09,6.09 6.1,6.1 6.1,6.1 6.1,6.1 6.1,6.1 6.09,6.09 6.1,6.1 6.1,6.1 6.1,6.1 6.09,6.09 6.1,6.1 6.1,6.1 6.1,6.1 6.1,6.1 6.09,6.09 6.1,6.1 6.1,6.1 6.1,6.1 6.09,6.09 6.1,6.1 6.1,6.1 6.1,6.1 6.1,6.1 6.09,6.09 6.1,6.1 6.1,6.1 6.1,6.1 6.09,6.09 6.1,6.1 6.1,6.1 6.1,6.1 6.1,6.1 6.09,6.09 6.1,6.1 6.1,6.1 6.1,6.1 6.09,6.09 6.1,6.1 6.1,6.1 6.1,6.1 6.1,6.1 6.09,6.09 6.1,6.1 6.1,6.1 6.1,6.1 6.09,6.09 6.1,6.1 6.1,6.1" />
      <path
         id="path23935"
         style="fill:#000000;fill-opacity:1;fill-rule:nonzero;stroke:none"
         d="m 2281.42,1468.42 c 0,48.6 -39.4,88 -88,88 -48.6,0 -88,-39.4 -88,-88 0,-48.6 39.4,-88 88,-88 48.6,0 88,39.4 88,88" />
      <path
         id="path23937"
         style="fill:#000000;fill-opacity:1;fill-rule:nonzero;stroke:none"
         d="m 2193.42,1553.92 c 47.22,0 85.5,-38.28 85.5,-85.5 v 0 c 0,-47.22 -38.28,-85.5 -85.5,-85.5 -47.22,0 -85.5,38.28 -85.5,85.5 0,47.22 38.28,85.5 85.5,85.5 z m 0,5 c -49.98,0 -90.5,-40.52 -90.5,-90.5 0,-49.98 40.52,-90.5 90.5,-90.5 49.98,0 90.5,40.52 90.5,90.5 v 0 c 0,49.98 -40.52,90.5 -90.5,90.5" />
      <path
         id="path23939"
         style="fill:#000000;fill-opacity:1;fill-rule:nonzero;stroke:none"
         d="m 3001.72,2188.72 c 0,48.6 -39.4,88 -88,88 -48.6,0 -88,-39.4 -88,-88 0,-48.6 39.4,-88 88,-88 48.6,0 88,39.4 88,88" />
      <path
         id="path23941"
         style="fill:#000000;fill-opacity:1;fill-rule:nonzero;stroke:none"
         d="m 2913.72,2274.22 c 47.22,0 85.5,-38.28 85.5,-85.5 v 0 c 0,-47.22 -38.28,-85.5 -85.5,-85.5 -47.22,0 -85.5,38.28 -85.5,85.5 0,47.22 38.28,85.5 85.5,85.5 z m 0,5 c -49.98,0 -90.5,-40.52 -90.5,-90.5 0,-49.98 40.52,-90.5 90.5,-90.5 49.98,0 90.5,40.52 90.5,90.5 v 0 c 0,49.98 -40.52,90.5 -90.5,90.5" />
    </g>
    <path
       style="fill:none;stroke:#000000;stroke-width:0.948683;stroke-linecap:butt;stroke-linejoin:miter;stroke-miterlimit:4;stroke-dasharray:none;stroke-opacity:1"
       d="m 140.22917,78.052083 c 23.8125,0 23.8125,0 23.8125,0"
       id="path97222" />
    <path
       style="fill:none;stroke:#000000;stroke-width:1;stroke-linecap:butt;stroke-linejoin:miter;stroke-miterlimit:4;stroke-dasharray:none;stroke-opacity:1"
       d="m 152.13541,64.822913 c 0,26.45834 0,26.45834 0,26.45834"
       id="path97785" />
    <path
       id="path97222-7"
       d="m 138.90626,107.15625 c 26.45833,0 26.45833,0 26.45833,0"
       style="fill:none;stroke:#000000;stroke-width:1;stroke-linecap:butt;stroke-linejoin:miter;stroke-miterlimit:4;stroke-dasharray:none;stroke-opacity:1" />
    <path
       id="path97785-1"
       d="m 152.13542,96.572917 c 0,21.166663 0,21.166663 0,21.166663"
       style="fill:none;stroke:#000000;stroke-width:0.894427;stroke-linecap:butt;stroke-linejoin:miter;stroke-miterlimit:4;stroke-dasharray:none;stroke-opacity:1" />
    <circle
       style="fill:#ff0000;fill-opacity:1;stroke:#ff0000;stroke-width:1.5051;stroke-miterlimit:4;stroke-dasharray:none;stroke-opacity:1"
       id="path97805"
       cx="151.98267"
       cy="70.230309"
       r="1.991127" />
    <circle
       r="1.991127"
       cy="85.728065"
       cx="152.24155"
       id="path97805-4"
       style="fill:#ff0000;fill-opacity:1;stroke:#ff0000;stroke-width:1.5051;stroke-miterlimit:4;stroke-dasharray:none;stroke-opacity:1" />
    <circle
       r="1.991127"
       cy="107.22725"
       cx="144.28703"
       id="path97805-0"
       style="fill:#0000ff;fill-opacity:1;stroke:#0000ff;stroke-width:1.5051;stroke-miterlimit:4;stroke-dasharray:none;stroke-opacity:1" />
    <circle
       style="fill:#0000ff;fill-opacity:1;stroke:#0000ff;stroke-width:1.5051;stroke-miterlimit:4;stroke-dasharray:none;stroke-opacity:1"
       id="path97805-0-9"
       cx="159.79968"
       cy="107.0033"
       r="1.991127" />
    <path
       style="fill:none;stroke:#000000;stroke-width:1;stroke-linecap:butt;stroke-linejoin:miter;stroke-miterlimit:4;stroke-dasharray:none;stroke-opacity:1"
       d="m 214.3125,18.520833 c 0,108.479177 0,108.479177 0,108.479177"
       id="path120980" />
    <path
       style="fill:none;stroke:#000000;stroke-width:1;stroke-linecap:butt;stroke-linejoin:miter;stroke-miterlimit:4;stroke-dasharray:none;stroke-opacity:1"
       d="m 198.4375,71.4375 c 31.75,0 31.75,0 31.75,0"
       id="path121545" />
    <circle
       style="fill:#ffffff;fill-opacity:1;stroke:#0000ff;stroke-width:1;stroke-miterlimit:4;stroke-dasharray:none"
       id="path121547"
       cx="214.13506"
       cy="47.047253"
       r="2.6458333" />
    <circle
       r="2.6458333"
       cy="24.630125"
       cx="214.28148"
       id="path121547-6"
       style="fill:#ffffff;fill-opacity:1;stroke:#0000ff;stroke-width:1;stroke-miterlimit:4;stroke-dasharray:none" />
    <circle
       style="fill:#ffffff;fill-opacity:1;stroke:#0000ff;stroke-width:1;stroke-miterlimit:4;stroke-dasharray:none"
       id="path121547-6-0"
       cx="214.19749"
       cy="95.933685"
       r="2.6458333" />
    <circle
       style="fill:#ffffff;fill-opacity:1;stroke:#0000ff;stroke-width:1;stroke-miterlimit:4;stroke-dasharray:none"
       id="path121547-6-7"
       cx="214.27847"
       cy="119.5328"
       r="2.6458333" />
    <circle
       r="2.6458333"
       cy="56.207211"
       cx="214.14754"
       id="path121547-66"
       style="fill:#ff0000;fill-opacity:1;stroke:#ff0000;stroke-width:1;stroke-miterlimit:4;stroke-dasharray:none;stroke-opacity:1" />
    <circle
       style="fill:#ff0000;fill-opacity:1;stroke:#ff0000;stroke-width:1;stroke-miterlimit:4;stroke-dasharray:none;stroke-opacity:1"
       id="path121547-66-0"
       cx="214.12654"
       cy="86.575821"
       r="2.6458333" />
    <rect
       y="68.791664"
       x="211.66666"
       height="5.2916665"
       width="5.2916665"
       id="rect23885"
       style="fill:#000000;fill-opacity:1;stroke:#000000;stroke-width:0.264583" />
  </g>
</svg>
