<?xml version="1.0" encoding="UTF-8" standalone="no"?>
<!DOCTYPE svg PUBLIC "-//W3C//DTD SVG 1.1//EN" "http://www.w3.org/Graphics/SVG/1.1/DTD/svg11.dtd">
<!--Generated by Intaglio, www.PurgatoryDesign.com-->
<svg version="1.1" viewBox="0,0,576,432" width="576" height="432" xmlns="http://www.w3.org/2000/svg" xmlns:xlink="http://www.w3.org/1999/xlink" xmlns:intaglio="http://purgatorydesign.com/namespaces/intaglio" intaglio:grid="36,36,8,8,0.5,#9999bf,1,0,0,0" intaglio:guides="0.8,#f0f,1,1"><path stroke="#000" d="M434.25,-106.813 C434.25,-102.062,430.514,-98.2102,425.906,-98.2102 C421.298,-98.2102,417.562,-102.062,417.562,-106.813 C417.562,-111.564,421.298,-115.415,425.906,-115.415 C430.514,-115.415,434.25,-111.564,434.25,-106.813 Z"/><path stroke="#000" d="M385.656,-121.175 C385.656,-116.424,381.921,-112.573,377.312,-112.573 C372.704,-112.573,368.969,-116.424,368.969,-121.175 C368.969,-125.926,372.704,-129.778,377.312,-129.778 C381.921,-129.778,385.656,-125.926,385.656,-121.175 Z"/><image xlink:href="1.pdf" width="612" height="792" transform="matrix(1,0,0,1,-64.7812,-185.857)"/><path fill="none" stroke="#000100" stroke-width="3" d="M431.088,129.221 L503.088,129.221"/><path fill="none" stroke="#000100" stroke-width="3" d="M467.713,92.9905 L467.713,164.991"/><path fill="#0049fd" stroke="#0049fd" d="M455.212,128.991 C455.212,132.857,452.078,135.991,448.212,135.991 C444.347,135.991,441.212,132.857,441.212,128.991 C441.212,125.125,444.347,121.991,448.212,121.991 C452.078,121.991,455.212,125.125,455.212,128.991 Z"/><path fill="#0049fd" stroke="#0049fd" d="M493.713,129.221 C493.713,133.087,490.578,136.221,486.713,136.221 C482.847,136.221,479.713,133.087,479.713,129.221 C479.713,125.355,482.847,122.221,486.713,122.221 C490.578,122.221,493.713,125.355,493.713,129.221 Z"/><path fill="none" stroke="#000100" stroke-width="3" d="M431.713,223.688 L503.712,223.688"/><path fill="none" stroke="#000100" stroke-width="3" d="M467.712,187.688 L467.712,259.688"/><path fill="#ff0004" stroke="#ff0004" d="M474.712,207.438 C474.712,211.304,471.578,214.438,467.712,214.438 C463.847,214.438,460.712,211.304,460.712,207.438 C460.712,203.572,463.847,200.438,467.712,200.438 C471.578,200.438,474.712,203.572,474.712,207.438 Z"/><path fill="#ff0004" stroke="#ff0004" d="M474.712,238.188 C474.712,242.054,471.578,245.188,467.712,245.188 C463.847,245.188,460.712,242.054,460.712,238.188 C460.712,234.322,463.847,231.188,467.712,231.188 C471.578,231.188,474.712,234.322,474.712,238.188 Z"/><path fill="none" stroke="#000100" stroke-width="3" d="M431.713,324.07 L503.713,324.07"/><path fill="none" stroke="#000100" stroke-width="3" d="M468.337,287.839 L468.337,359.839"/><path fill="#0049fd" stroke="#0049fd" d="M494.588,323.839 C494.588,327.705,491.453,330.839,487.588,330.839 C483.722,330.839,480.588,327.705,480.588,323.839 C480.588,319.973,483.722,316.839,487.588,316.839 C491.453,316.839,494.588,319.973,494.588,323.839 Z"/><path fill="#0049fd" stroke="#0049fd" d="M456.337,324.07 C456.337,327.936,453.203,331.07,449.337,331.07 C445.472,331.07,442.338,327.936,442.338,324.07 C442.338,320.204,445.472,317.07,449.337,317.07 C453.203,317.07,456.337,320.204,456.337,324.07 Z"/><path stroke="#000" d="M245.062,207.438 C245.062,212.189,241.327,216.041,236.719,216.041 C232.111,216.041,228.375,212.189,228.375,207.438 C228.375,202.687,232.111,198.836,236.719,198.836 C241.327,198.836,245.062,202.687,245.062,207.438 Z"/><path stroke="#000" d="M343.406,107.119 C343.406,111.87,339.671,115.721,335.062,115.721 C330.454,115.721,326.719,111.87,326.719,107.119 C326.719,102.368,330.454,98.5162,335.062,98.5162 C339.671,98.5162,343.406,102.368,343.406,107.119 Z"/><path stroke="#000" d="M147.406,301.888 C147.406,306.639,143.671,310.491,139.062,310.491 C134.454,310.491,130.719,306.639,130.719,301.888 C130.719,297.137,134.454,293.285,139.062,293.285 C143.671,293.285,147.406,297.137,147.406,301.888 Z"/></svg>
