<?xml version="1.0" encoding="UTF-8" standalone="no"?>
<!DOCTYPE svg PUBLIC "-//W3C//DTD SVG 1.1//EN" "http://www.w3.org/Graphics/SVG/1.1/DTD/svg11.dtd">
<!--Generated by Intaglio, www.PurgatoryDesign.com-->
<svg version="1.1" viewBox="0,0,576,273.6" width="576" height="273.6" xmlns="http://www.w3.org/2000/svg" xmlns:xlink="http://www.w3.org/1999/xlink" xmlns:intaglio="http://purgatorydesign.com/namespaces/intaglio" intaglio:grid="36,36,1,1,0.5,#9999bf,1,0,0,0" intaglio:guides="0.8,#f0f,0,1"><image xlink:href="1.pdf" width="612" height="792" transform="matrix(1,0,0,1,-19.4286,-257.42)"/><text font-family="Helvetica" font-style="oblique" font-size="28" transform="matrix(1,0,0,1,337.089,174.42)" xml:space="preserve"><tspan>s</tspan><tspan font-style="normal" baseline-shift="sub">1</tspan></text><g><path fill="none" intaglio:arrow-end="1" stroke="#000" stroke-width="2" d="M369.089,170.863 L391.214,170.863" intaglio:d="M369.089,170.863 L403.089,170.863"/><path intaglio:omit="yes" d="M390.589,165.863 L403.089,170.863 L390.589,175.863"/></g><text font-family="Helvetica" font-style="oblique" font-size="28" transform="matrix(1,0,0,1,174.111,145.703)" xml:space="preserve"><tspan>p</tspan><tspan font-style="normal">*</tspan></text><text font-family="Helvetica" font-style="oblique" font-size="28" transform="matrix(1,0,0,1,151.103,106.042)" xml:space="preserve"><tspan>s</tspan><tspan font-style="normal" baseline-shift="sub">0</tspan></text><g><path fill="none" intaglio:arrow-end="1" stroke="#000" stroke-width="2" d="M152.606,112.175 L124.034,138.001" intaglio:d="M152.606,112.175 L115.224,145.963"/><path intaglio:omit="yes" d="M127.85,141.291 L115.224,145.963 L121.145,133.872"/></g><image xlink:href="1.pdf" width="612" height="792" transform="matrix(1,0,0,1,-19.4286,-267.134)"/><text font-family="Helvetica" font-style="oblique" font-size="28" transform="matrix(1,0,0,1,337.089,158.992)" xml:space="preserve"><tspan>s</tspan><tspan font-style="normal" baseline-shift="sub">1</tspan></text><g><path fill="none" intaglio:arrow-end="1" stroke="#000" stroke-width="2" d="M369.089,155.434 L391.214,155.434" intaglio:d="M369.089,155.434 L403.089,155.434"/><path intaglio:omit="yes" d="M390.589,150.434 L403.089,155.434 L390.589,160.434"/></g><text font-family="Helvetica" font-style="oblique" font-size="28" transform="matrix(1,0,0,1,176.415,136.192)" xml:space="preserve"><tspan>p</tspan><tspan font-style="normal">*</tspan></text><text font-family="Helvetica" font-style="oblique" font-size="28" transform="matrix(1,0,0,1,148.799,94.6131)" xml:space="preserve"><tspan>s</tspan><tspan font-style="normal" baseline-shift="sub">0</tspan></text><g><path fill="none" intaglio:arrow-end="1" stroke="#000" stroke-width="2" d="M150.303,100.746 L121.73,126.572" intaglio:d="M150.303,100.746 L112.92,134.535"/><path intaglio:omit="yes" d="M125.547,129.862 L112.92,134.535 L118.841,122.444"/></g></svg>
